<svg viewBox="0 0 800 800" xmlns="http://www.w3.org/2000/svg"><path d="M62.71646892526462,506.96701969993717 L213.5778245540245,420.15654367079117 M213.5446349366156,412.86964096937396 L213.5778245540245,420.15654367079117 M62.649329461340756,499.6609890474637 L213.5446349366156,412.86964096937396 M62.71646892526462,506.96701969993717 L62.649329461340756,499.6609890474637 M62.71646892526462,506.96701969993717 L72.46080100921745,512.758588608965 M72.46080100921745,512.758588608965 L82.59913420427199,518.3248307779116 M82.59913420427199,518.3248307779116 L93.11575480398517,523.6567491359576 M93.11575480398517,523.6567491359576 L88.35722994145021,524.4636953070896 M88.35722994145021,524.4636953070896 L84.06550240677586,525.9169411849522 M84.06550240677586,525.9169411849522 L80.49672005176575,527.9299610937906 M80.49672005176575,527.9299610937906 L77.864204269872,530.3827784923595 M77.864204269872,530.3827784923595 L76.32547311127689,533.1291688088348 M76.32547311127689,533.1291688088348 L75.97301912879448,536.0051948820507 M75.97301912879448,536.0051948820507 L76.82852814181581,538.8390162414304 M76.82852814181581,538.8390162414304 L78.84144215124343,541.4611563274759 M78.84144215124343,541.4611563274759 L81.89185434766159,543.714655100852 M81.89185434766159,543.714655100852 L85.79761522537785,545.4644875601324 M85.79761522537785,545.4644875601324 L90.32519362048612,546.6057137262515 M90.32519362048612,546.6057137262515 L95.20355629394669,547.0698948585379 M95.20355629394669,547.0698948585379 L100.14057481189911,546.8291822023754 M100.14057481189911,546.8291822023754 L104.84064897149642,545.8979915282791 M104.84064897149642,545.8979915282791 L109.02236552017104,544.3322136429325 M109.02236552017104,544.3322136429325 L112.43557536248778,542.2257429183918 M112.43557536248778,542.2257429183918 L114.8763139234544,539.7048340431305 M114.8763139234544,539.7048340431305 L116.19909138047507,536.9204149509394 M116.19909138047507,536.9204149509394 L116.32533895828226,534.0390939028764 M213.5778245540245,420.15654367079117 L208.80372307168466,419.6628163185027 M208.80372307168466,419.6628163185027 L204.38024981513084,418.5207576187596 M204.38024981513084,418.5207576187596 L200.56595235781873,416.79725039514807 M200.56595235781873,416.79725039514807 L197.58353102484676,414.5932136938068 M197.58353102484676,414.5932136938068 L195.60689726380122,412.0375872003373 M195.60689726380122,412.0375872003373 L194.75100472725686,409.27977090297975 M194.75100472725686,409.27977090297975 L195.06525942627076,406.4808006708373 M195.06525942627076,406.4808006708373 L196.53073935753127,403.8039875276833 M196.53073935753127,403.8039875276833 L199.06144091347826,401.40534563318755 M199.06144091347826,401.40534563318755 L202.50942584011696,399.42454013315535 M202.50942584011696,399.42454013315535 L206.67346940480493,397.9768351474087 M206.67346940480493,397.9768351474087 L211.3108684045131,397.1464069591544 M211.3108684045131,397.1464069591544 L216.15148377396577,396.98153066203975 M216.15148377396577,396.98153066203975 L220.91341597439214,397.49177586971666 M220.91341597439214,397.49177586971666 L225.3193214577043,398.6475039758003 M225.3193214577043,398.6475039758003 L229.11247966355847,400.3815148225174 M229.11247966355847,400.3815148225174 L232.0716731949696,402.5929484378981 M232.0716731949696,402.5929484378981 L234.0240630000534,405.1530876993075 M234.0240630000534,405.1530876993075 L234.8553305835341,407.9127823746239 M116.32533895828226,534.0390939028764 L136.42755271636645,541.7009399396734 M136.42755271636645,541.7009399396734 L157.39952736433594,548.5576978147031 M157.39952736433594,548.5576978147031 L179.14372804424212,554.5761456218677 M179.14372804424212,554.5761456218677 L201.55868560362407,559.7270477727347 M201.55868560362407,559.7270477727347 L224.5394576408459,563.9853204252815 M224.5394576408459,563.9853204252815 L247.9781198009897,567.3302321814786 M234.8553305835341,407.9127823746239 L235.48082777151808,407.55285117542786 M247.9781198009897,567.3302321814786 L244.44456309169692,569.3551465500996 M244.44456309169692,569.3551465500996 L241.8508685304247,571.8174958298865 M241.8508685304247,571.8174958298865 L240.35137476004473,574.571326408715 M240.35137476004473,574.571326408715 L240.03563545145607,577.4532830218237 M240.03563545145607,577.4532830218237 L240.92299778263623,580.2922307340936 M240.92299778263623,580.2922307340936 L242.9613762657508,582.9193820164611 M242.9613762657508,582.9193820164611 L246.0300502993905,585.1784636594618 M246.0300502993905,585.1784636594618 L249.94692367384255,586.9348912840433 M249.94692367384255,586.9348912840433 L254.47913125192383,588.0840314792482 M254.47913125192383,588.0840314792482 L259.3571209799279,588.5573393448268 M259.3571209799279,588.5573393448268 L264.2904946609545,588.3266022060672 M264.2904946609545,588.3266022060672 L268.9856793751324,587.4055595118009 M268.9856793751324,587.4055595118009 L273.16323182926766,585.8491677930066 M273.16323182926766,585.8491677930066 L276.5748067573904,583.750159297402 M276.5748067573904,583.750159297402 L279.0177541540151,581.2336210700835 M279.0177541540151,581.2336210700835 L280.34731619350623,578.4492982085079 M280.34731619350623,578.4492982085079 L280.4850455369767,575.5627632182151 M280.4850455369767,575.5627632182151 L279.42333429028366,572.7454947691349 M279.42333429028366,572.7454947691349 L277.2258442111619,570.164689021856 M235.48082777151808,407.55285117542786 L239.93131481798434,415.7830089344465 M239.93131481798434,415.7830089344465 L245.97781851660432,423.671228435497 M245.97781851660432,423.671228435497 L253.54385110386238,431.1142474266512 M253.54385110386238,431.1142474266512 L262.5327789455586,438.014353146079 M262.5327789455586,438.014353146079 L272.8289629526333,444.28073488255023 M272.8289629526333,444.28073488255023 L284.2992439588496,449.8307241891945 M284.2992439588496,449.8307241891945 L296.7946563373964,454.5909460216881 M296.7946563373964,454.5909460216881 L310.15238389862327,458.49834804300014 M310.15238389862327,458.49834804300014 L324.1979042011512,461.50109323010696 M324.1979042011512,461.50109323010696 L338.7473376812192,463.5593082500696 M338.7473376812192,463.5593082500696 L353.60995126099266,464.64561499912526 M353.60995126099266,464.64561499912526 L368.5907247543828,464.745574924697 M368.5907247543828,464.745574924697 L383.49302924139965,463.8578596616511 M383.49302924139965,463.8578596616511 L398.12131113793424,461.99426913745776 M398.12131113793424,461.99426913745776 L412.2837543640608,459.1795900195853 M412.2837543640608,459.1795900195853 L425.79488683130586,455.4512116016635 M425.79488683130586,455.4512116016635 L438.47810904370994,450.8586074586869 M438.47810904370994,450.8586074586869 L450.16805229555246,445.4626305212897 M450.16805229555246,445.4626305212897 L460.71278616989963,439.3346461012299 M460.71278616989963,439.3346461012299 L469.9758125694716,432.55553500779035 M469.9758125694716,432.55553500779035 L477.8378352576815,425.2145634370803 M477.8378352576815,425.2145634370803 L484.19826084263457,417.4081509324603 M484.19826084263457,417.4081509324603 L488.97644873619424,409.2385469839378 M488.97644873619424,409.2385469839378 L492.1126680700952,400.8124550929891 M492.1126680700952,400.8124550929891 L493.5687331198668,392.2395936320802 M493.5687331198668,392.2395936320802 L493.32842112593937,383.6312456517211 M493.32842112593937,383.6312456517211 L491.3974992744796,375.0988074911824 M491.3974992744796,375.0988074911824 L487.80351459042856,366.75235098204183 M487.80351459042856,366.75235098204183 L482.59536793958,358.69920937247025 M482.59536793958,358.69920937247025 L475.84247134947987,351.04264085639164 M475.84247134947987,351.04264085639164 L467.6338116552406,343.8805341770343 M467.6338116552406,343.8805341770343 L458.07669906339146,337.30420100069796 M458.07669906339146,337.30420100069796 L447.2953226882401,331.3972763443828 M447.2953226882401,331.3972763443828 L435.4291204123633,326.2347107221426 M435.4291204123633,326.2347107221426 L422.6309807427904,321.88187883032754 M422.6309807427904,321.88187883032754 L409.0653227823498,318.3937920446471 M409.0653227823498,318.3937920446471 L394.90600293755466,315.8144779551145 M277.2258442111619,570.164689021856 L302.15359435847927,571.4500554776947 M302.15359435847927,571.4500554776947 L327.18029188174336,571.716042509552 M327.18029188174336,571.716042509552 L352.179162787396,570.9612532231266 M352.179162787396,570.9612532231266 L377.0236053725077,569.18964192074 M377.0236053725077,569.18964192074 L401.58787638064285,566.410499974329 M401.58787638064285,566.410499974329 L425.74777430865146,562.6384181146486 M425.74777430865146,562.6384181146486 L449.38140210205046,557.8931333262103 M449.38140210205046,557.8931333262103 L472.3698008641334,552.1994665900515 M472.3698008641334,552.1994665900515 L494.59755532842087,545.587135907345 M494.59755532842087,545.587135907345 L515.9535273044766,538.0905802745332 M515.9535273044766,538.0905802745332 L536.3313602887937,529.7487619282589 M536.3313602887937,529.7487619282589 L555.6300430958773,520.6048783389009 M555.6300430958773,520.6048783389009 L573.7545316653488,510.70618389571985 M573.7545316653488,510.70618389571985 L590.6160645185345,500.1036102058585 M590.6160645185345,500.1036102058585 L606.1327817665765,488.8515673940192 M606.1327817665765,488.8515673940192 L620.2299369907349,477.0075207819416 M620.2299369907349,477.0075207819416 L632.8404070133619,464.6317544430392 M632.8404070133619,464.6317544430392 L643.904841921247,451.78697119132244 M643.904841921247,451.78697119132244 L653.3719944816091,438.5379396191497 M653.3719944816091,438.5379396191497 L661.1988904330648,424.9511896335864 M661.1988904330648,424.9511896335864 L667.3509577568557,411.0945907048355 M667.3509577568557,411.0945907048355 L671.8021773122517,397.03701827526527 M671.8021773122517,397.03701827526527 L674.5350265563358,382.8480178418119 M674.5350265563358,382.8480178418119 L675.540584464397,368.59740844115606 M675.540584464397,368.59740844115606 L674.8184528960483,354.3549441946175 M674.8184528960483,354.3549441946175 L672.3766524518741,340.1899851680311 M394.90600293755466,315.8144779551145 L395.52449267184124,315.45857907014965 M667.277629276977,323.5935186314794 L670.657907117775,321.59989127823513 M670.657907117775,321.59989127823513 L674.7846465689324,320.1411833727956 M674.7846465689324,320.1411833727956 L679.4129707305582,319.30373581423413 M679.4129707305582,319.30373581423413 L684.2684705827818,319.1370879961149 M684.2684705827818,319.1370879961149 L689.0633356598545,319.65108915703223 M689.0633356598545,319.65108915703223 L693.513265703471,320.8153596933484 M693.513265703471,320.8153596933484 L697.3544130317507,322.5609756318856 M697.3544130317507,322.5609756318856 L700.3586761739355,324.7846053702224 M700.3586761739355,324.7846053702224 L702.3475277801839,327.35447022056724 M702.3475277801839,327.35447022056724 L703.2023886591311,330.1182147347471 M703.2023886591311,330.1182147347471 L702.8719485524155,332.91174649814866 M702.8719485524155,332.91174649814866 L701.37520839723,335.5691186314992 M701.37520839723,335.5691186314992 L698.800645430919,337.93224350921486 M698.800645430919,337.93224350921486 L695.3008603578014,339.86047522881813 M695.3008603578014,339.86047522881813 L691.0838466264588,341.2389152521125 M691.0838466264588,341.2389152521125 L686.4003236195957,341.98541180694593 M686.4003236195957,341.98541180694593 L681.5290012163588,342.0554487478181 M681.5290012163588,342.0554487478181 L676.7598321261896,341.44482662065366 M676.7598321261896,341.44482662065366 L672.3766524518741,340.1899851680311 M395.52449267184124,315.45857907014965 L390.77541405949887,314.9711325383305 M390.77541405949887,314.9711325383305 L386.36758468102596,313.8435980767212 M386.36758468102596,313.8435980767212 L382.55861910756676,312.14201644936884 M382.55861910756676,312.14201644936884 L379.57092623846484,309.96601067835934 M379.57092623846484,309.96601067835934 L377.5787184302478,307.44288539851186 M377.5787184302478,307.44288539851186 L376.69788961345813,304.72012546059096 M376.69788961345813,304.72012546059096 L376.9792738330678,301.956739158585 M376.9792738330678,301.956739158585 L378.40589795486045,299.3139480221824 M378.40589795486045,299.3139480221824 L380.8940238635349,296.9457879333058 M380.8940238635349,296.9457879333058 L384.2981977906716,294.9901510667281 M384.2981977906716,294.9901510667281 L388.41974811435597,293.5608390938517 M388.41974811435597,293.5608390938517 L393.0184443997298,292.74096072402017 M393.0184443997298,292.74096072402017 L397.82640392907626,292.57817553412093 M397.82640392907626,292.57817553412093 L402.5636013647208,293.08194553796943 M402.5636013647208,293.08194553796943 L406.95416628269334,294.222987311465 M406.95416628269334,294.222987311465 L410.7422475614537,295.93496656126365 M410.7422475614537,295.93496656126365 L413.7069379011576,298.1182958686929 M413.7069379011576,298.1182958686929 L415.67506546762644,300.64590196369795 M415.67506546762644,300.64590196369795 L416.5314185942853,303.3705182699806 M667.277629276977,323.5935186314794 L661.3862449198255,310.3085492790841 M661.3862449198255,310.3085492790841 L653.9659056785391,297.29352099209217 M653.9659056785391,297.29352099209217 L645.0535462278307,284.60626619579733 M645.0535462278307,284.60626619579733 L634.6926034433519,272.30286619418996 M634.6926034433519,272.30286619418996 L622.9326753558106,260.43744931372873 M622.9326753558106,260.43744931372873 L609.8292577989282,249.06200507083986 M416.5314185942853,303.3705182699806 L563.7010440237077,218.68438253089744 M592.1151297974159,235.92076796456573 L593.4392192256265,233.25448154261727 M593.4392192256265,233.25448154261727 L595.8569202829583,230.85759713564477 M595.8569202829583,230.85759713564477 L599.2234703073865,228.8730459927813 M599.2234703073865,228.8730459927813 L603.3376054778988,227.41912522046852 M603.3376054778988,227.41912522046852 L607.9537881743778,226.58237807735603 M607.9537881743778,226.58237807735603 L612.7966051886972,226.41263509624605 M612.7966051886972,226.41263509624605 L617.5772149585757,226.92000598830703 M617.5772149585757,226.92000598830703 L622.0104850263369,228.07428668927253 M622.0104850263369,228.07428668927253 L625.8318919225736,229.80674107898707 M625.8318919225736,229.80674107898707 L628.8131947739618,232.01416874904734 M628.8131947739618,232.01416874904734 L630.7760402240344,234.5649998495856 M630.7760402240344,234.5649998495856 L631.602761753728,237.30701785562167 M631.602761753728,237.30701785562167 L631.2434016254316,240.0764596300927 M631.2434016254316,240.0764596300927 L629.7188005539588,242.7077921867358 M629.7188005539588,242.7077921867358 L627.1196339533634,245.04353459546724 M627.1196339533634,245.04353459546724 L623.6009721491143,246.9437979590747 M623.6009721491143,246.9437979590747 L619.3731474773562,248.2946683402336 M619.3731474773562,248.2946683402336 L614.6890807300277,249.01515552888173 M614.6890807300277,249.01515552888173 L609.8292577989282,249.06200507083986 M592.1151297974159,235.92076796456573 L583.0311311213154,229.96185719805004 M583.0311311213154,229.96185719805004 L573.5549158585047,224.21358415741472 M573.5549158585047,224.21358415741472 L563.7010440237077,218.68438253089744 M90.56560286016185,538.5247715089539 L89.4097700467803,537.6545348829715 M89.4097700467803,537.6545348829715 L88.64774628779912,536.6465561642719 M88.64774628779912,536.6465561642719 L88.32379452629971,535.5594318831578 M88.32379452629971,535.5594318831578 L88.45664795750645,534.4563671954935 M88.45664795750645,534.4563671954935 L89.03848254674801,533.4014694643864 M89.03848254674801,533.4014694643864 L90.03544752171109,532.4559946960014 M90.03544752171109,532.4559946960014 L91.38952027240919,531.674869152008 M91.38952027240919,531.674869152008 L93.02204712724784,531.1034143521997 M93.02204712724784,531.1034143521997 L94.83817536441,530.7748051603704 M94.83817536441,530.7748051603704 L96.73242143435323,530.7081160770919 M96.73242143435323,530.7081160770919 L98.59479876073169,530.9072108086337 M98.59479876073169,530.9072108086337 L100.31714380914474,531.3605427992932 M100.31714380914474,531.3605427992932 L101.79943316108461,532.0417978822974 M101.79943316108461,532.0417978822974 L102.95554971598216,532.9114290937924 M102.95554971598216,532.9114290937924 L103.71827417841536,533.9189523808496 M103.71827417841536,533.9189523808496 L104.04320617251915,535.005860575244 M104.04320617251915,535.005860575244 L103.91138935127958,536.108998859989 M103.91138935127958,536.108998859989 L103.33038484005681,537.1642565861306 M103.33038484005681,537.1642565861306 L102.33389663995854,538.1102702677006 M102.33389663995854,538.1102702677006 L100.97981407329519,538.8920045558258 M100.97981407329519,538.8920045558258 L99.34679306008832,539.4639984913574 M99.34679306008832,539.4639984913574 L97.52982359256544,539.7929393042782 M97.52982359256544,539.7929393042782 L95.63453854618228,539.8597015437016 M95.63453854618228,539.8597015437016 L93.77118794880425,539.6603911680276 M93.77118794880425,539.6603911680276 L92.04815689187888,539.2066032959539 M92.04815689187888,539.2066032959539 L90.56560286016185,538.5247715089539 M209.2486823605457,411.75120490641564 L208.0954965106284,410.8942790805382 M208.0954965106284,410.8942790805382 L207.33214133048344,409.90170193883733 M207.33214133048344,409.90170193883733 L207.00292208150822,408.8311881517624 M207.00292208150822,408.8311881517624 L207.12689593328972,407.7449794882649 M207.12689593328972,407.7449794882649 L207.6967686270644,406.7061898659406 M207.6967686270644,406.7061898659406 L208.6793392374745,405.77516826041733 M208.6793392374745,405.77516826041733 L210.01747409043074,405.0059694896557 M210.01747409043074,405.0059694896557 L211.6333972280922,404.44325088328327 M211.6333972280922,404.44325088328327 L213.43325182091914,404.11966475725126 M213.43325182091914,404.11966475725126 L215.31249698100618,404.05399357349995 M215.31249698100618,404.05399357349995 L217.16201020430648,404.2500524935116 M217.16201020430648,404.2500524935116 L218.8743881456757,404.6964512192172 M218.8743881456757,404.6964512192172 L220.35016826829286,405.36729467011816 M220.35016826829286,405.36729467011816 L221.5036055970607,406.22364293198507 M221.5036055970607,406.22364293198507 L222.26764113871428,407.2157783018079 M222.26764113871428,407.2157783018079 L222.5978305349867,408.2860776729683 M222.5978305349867,408.2860776729683 L222.47487760128797,409.3723580373997 M222.47487760128797,409.3723580373997 L221.90584876835828,410.411485573311 M221.90584876835828,410.411485573311 L220.92375163953147,411.34303389028406 M220.92375163953147,411.34303389028406 L219.5856114239637,412.11282751083877 M219.5856114239637,412.11282751083877 L217.9692053080117,412.6760728290783 M217.9692053080117,412.6760728290783 L216.16850076161856,412.99999687127684 M216.16850076161856,412.99999687127684 L214.28823339057323,413.06573975763865 M214.28823339057323,413.06573975763865 L212.43775382319853,412.86947337621774 M212.43775382319853,412.86947337621774 L210.72470354831555,412.4226259212383 M210.72470354831555,412.4226259212383 L209.2486823605457,411.75120490641564 M391.1303471388828,307.16014104144534 L389.97507225590346,306.3141107175834 M389.97507225590346,306.3141107175834 L389.2056522330514,305.3341496951645 M389.2056522330514,305.3341496951645 L388.8667282884059,304.2772489308483 M388.8667282884059,304.2772489308483 L388.97794047769224,303.2048484864207 M388.97794047769224,303.2048484864207 L389.5327312130052,302.17926343012977 M389.5327312130052,302.17926343012977 L390.4987768199783,301.26007579417677 M390.4987768199783,301.26007579417677 L391.8199038680475,300.5006536035436 M391.8199038680475,300.5006536035436 L393.4193243815371,299.94508690951415 M393.4193243815371,299.94508690951415 L395.20413943566587,299.6256133143555 M395.20413943566587,299.6256133143555 L397.0706810890358,299.56077675104314 M397.0706810890358,299.56077675104314 L398.91056993277823,299.75434049947364 M398.91056993277823,299.75434049947364 L400.6169433792044,300.195069207775 M400.6169433792044,300.195069207775 L402.09070522691127,300.8573863676028 M402.09070522691127,300.8573863676028 L403.2462220687639,301.7028501058152 M403.2462220687639,301.7028501058152 L404.01632087534887,302.682370906019 M404.01632087534887,302.682370906019 L404.35618837914313,303.73906817760275 M404.35618837914313,303.73906817760275 L404.24598491446903,304.8115389600699 M404.24598491446903,304.8115389600699 L403.6920310118125,305.8374555068723 M403.6920310118125,305.8374555068723 L402.7264586336051,306.7571598425217 M402.7264586336051,306.7571598425217 L401.40533280338525,307.5171655760178 M401.40533280338525,307.5171655760178 L399.8054412178036,308.07324897015263 M399.8054412178036,308.07324897015263 L398.0197907145917,308.3930540583525 M398.0197907145917,308.3930540583525 L396.1522406301222,308.45796096134916 M396.1522406301222,308.45796096134916 L394.31140736348334,308.2641868473881 M394.31140736348334,308.2641868473881 L392.60435331024524,307.8230247868351 M392.60435331024524,307.8230247868351 L391.1303471388828,307.16014104144534 M606.3360614272071,240.87684638193676 L605.174350852056,240.03768784403587 M605.174350852056,240.03768784403587 L604.3951568505357,239.0656885102231 M604.3951568505357,239.0656885102231 L604.0437185742359,238.01736628852035 M604.0437185742359,238.01736628852035 L604.140370574852,236.9536700723685 M604.140370574852,236.9536700723685 L604.679419794563,235.93640571324977 M604.679419794563,235.93640571324977 L605.6294565370521,235.0246708884441 M605.6294565370521,235.0246708884441 L606.9352106899419,234.27141895093047 M606.9352106899419,234.27141895093047 L608.5208336855832,233.72035507521127 M608.5208336855832,233.72035507521127 L610.2941728211531,233.40348478332191 M610.2941728211531,233.40348478332191 L612.1522740045303,233.3391752409815 M612.1522740045303,233.3391752409815 L613.9872239220016,233.53116602254224 M613.9872239220016,233.53116602254224 L615.6924509987745,233.96832224778163 M615.6924509987745,233.96832224778163 L617.1689488588431,234.62525439250948 M617.1689488588431,234.62525439250948 L618.330868022467,235.4638666420002 M618.330868022467,235.4638666420002 L619.1107240216803,236.43543471112633 M619.1107240216803,236.43543471112633 L619.4631010366172,237.48355230684868 M619.4631010366172,237.48355230684868 L619.3674508699727,238.5473182191907 M619.3674508699727,238.5473182191907 L618.8292597386089,239.5648964652281 M618.8292597386089,239.5648964652281 L617.8796989671034,240.47714160902945 M617.8796989671034,240.47714160902945 L616.5739536657129,241.2309699934911 M616.5739536657129,241.2309699934911 L614.9878703745328,241.78254440277055 M614.9878703745328,241.78254440277055 L613.2136832070539,242.09975572987977 M613.2136832070539,242.09975572987977 L611.3545823235042,242.16413454319985 M611.3545823235042,242.16413454319985 L609.5186873897461,241.97193956243407 M609.5186873897461,241.97193956243407 L607.812785064314,241.53435163893187 M607.812785064314,241.53435163893187 L606.3360614272071,240.87684638193676 M254.6884358569227,579.9708468073217 L253.52101053942397,579.0962509229671 M253.52101053942397,579.0962509229671 L252.7470664437676,578.0831970715717 M252.7470664437676,578.0831970715717 L252.41145701559066,576.9906294098049 M252.41145701559066,576.9906294098049 L252.53366926538826,575.8820305674521 M252.53366926538826,575.8820305674521 L253.10647332666986,574.8218155857678 M253.10647332666986,574.8218155857678 L254.09653225041347,573.8715985371028 M254.09653225041347,573.8715985371028 L255.44622261717683,573.0865515897907 M255.44622261717683,573.0865515897907 L257.0771448017847,572.5122236566804 M257.0771448017847,572.5122236566804 L258.89454079857717,572.1819857442172 M258.89454079857717,572.1819857442172 L260.79286369273046,572.114957459585 M260.79286369273046,572.114957459585 L262.66188971152354,572.3150502788037 M262.66188971152354,572.3150502788037 L264.39308927546244,572.7706428734617 M264.39308927546244,572.7706428734617 L265.88588361192245,573.455321020057 M265.88588361192245,573.455321020057 L267.05356395406835,574.3293213874059 M267.05356395406835,574.3293213874059 L267.8282073639989,575.3419161448572 M267.8282073639989,575.3419161448572 L268.16477575184496,576.4342805185586 M268.16477575184496,576.4342805185586 L268.04360566724466,577.5429532898844 M268.04360566724466,577.5429532898844 L267.4716882365,578.6035024868521 M267.4716882365,578.6035024868521 L266.48211404517576,579.5542626216974 M266.48211404517576,579.5542626216974 L265.1324198896051,580.3399229035632 M265.1324198896051,580.3399229035632 L263.5010062627901,580.9147939311629 M263.5010062627901,580.9147939311629 L261.68271933081434,581.2453944552079 M261.68271933081434,581.2453944552079 L259.783353357962,581.3124966751401 M259.783353357962,581.3124966751401 L257.91337106657346,581.1121721540799 M257.91337106657346,581.1121721540799 L256.18147786035945,580.6561204775926 M256.18147786035945,580.6561204775926 L254.6884358569227,579.9708468073217 M73.7673274345758,506.0875744908791 L230.1492918857155,416.0704565723666 M230.1492918857155,416.0704565723666 L236.18527092148167,424.4561454053225 M236.18527092148167,424.4561454053225 L243.81211548402217,432.4032482905657 M243.81211548402217,432.4032482905657 L252.93602007404758,439.81098140278846 M252.93602007404758,439.81098140278846 L263.44386457305444,446.58514292301425 M263.44386457305444,446.58514292301425 L275.2046007396189,452.63936257269364 M275.2046007396189,452.63936257269364 L288.0708532680087,457.8962761426719 M288.0708532680087,457.8962761426719 L301.88078793479355,462.288572099008 M301.88078793479355,462.288572099008 L316.4601904395908,465.7599004183209 M316.4601904395908,465.7599004183209 L331.6247096762245,468.26567637963853 M331.6247096762245,468.26567637963853 L347.1822649814736,469.7736789236273 M347.1822649814736,469.7736789236273 L362.9355869533,470.26450305714593 M362.9355869533,470.26450305714593 L378.6848074011668,469.7318330622037 M378.6848074011668,469.7318330622037 L394.2301162687598,468.18251533901395 M394.2301162687598,468.18251533901395 L409.3744123610991,465.63649510178243 M409.3744123610991,465.63649510178243 L423.9258715244188,462.1265054440977 M423.9258715244188,462.1265054440977 L437.7005228069119,457.69763512787836 M437.7005228069119,457.69763512787836 L450.52460903616355,452.4066927713885 M450.52460903616355,452.4066927713885 L462.236842075189,446.32141579143484 M462.236842075189,446.32141579143484 L472.6904935824425,439.51956740408497 M472.6904935824425,439.51956740408497 L481.75520323720934,432.0878536314845 M481.75520323720934,432.0878536314845 L489.31863544979683,424.12077868547846 M489.31863544979683,424.12077868547846 L495.28779099027054,415.71936827772845 M495.28779099027054,415.71936827772845 L499.5901041015252,406.9898324816534 M499.5901041015252,406.9898324816534 L502.17426442989233,398.0422040067557 M502.17426442989233,398.0422040067557 L503.0106943066552,388.9888882643378 M503.0106943066552,388.9888882643378 L502.0918373432854,379.9432519848629 M502.0918373432854,379.9432519848629 L499.4320534366078,371.0181945414325 M499.4320534366078,371.0181945414325 L495.0673224321189,362.32474068728123 M495.0673224321189,362.32474068728123 L489.054654815371,353.97069026990954 M489.054654815371,353.97069026990954 L481.47125115211463,346.0593073611288 M481.47125115211463,346.0593073611288 L472.41347009929393,338.6880895012387 M472.41347009929393,338.6880895012387 L461.9955026211256,331.9476263968842 M461.9955026211256,331.9476263968842 L450.3479207632539,325.9205410228687 M450.3479207632539,325.9205410228687 L437.61603877640533,320.68053270438236 M437.61603877640533,320.68053270438236 L423.9580948037179,316.2915485477669 M423.9580948037179,316.2915485477669 L409.54333295816707,312.8070488912154 M409.54333295816707,312.8070488912154 L562.2913943894553,224.8816905805995 M73.7673274345758,506.0875744908791 L91.7472373376076,516.0409163006126 M91.7472373376076,516.0409163006126 L110.94099944454729,525.2231594530482 M110.94099944454729,525.2231594530482 L131.24912070238406,533.5844657013477 M131.24912070238406,533.5844657013477 L152.56576241051303,541.079289942368 M152.56576241051303,541.079289942368 L174.77923546540885,547.6667161454571 M174.77923546540885,547.6667161454571 L197.7726461590678,553.3106969874857 M197.7726461590678,553.3106969874857 L221.4246328825658,557.9802467129639 M221.4246328825658,557.9802467129639 L245.60992082935127,561.649711691434 M245.60992082935127,561.649711691434 L270.20013222163647,564.2989050959666 M270.20013222163647,564.2989050959666 L295.06451601415796,565.913222260169 M295.06451601415796,565.913222260169 L320.0707312833588,566.4837732131089 M320.0707312833588,566.4837732131089 L345.0855517617266,566.0073988267911 M345.0855517617266,566.0073988267911 L369.9757553622916,564.4867262033513 M369.9757553622916,564.4867262033513 L394.6088075776377,561.9301496942064 M394.6088075776377,561.9301496942064 L418.85373658593977,558.3517447677411 M418.85373658593977,558.3517447677411 L442.5818087000123,553.7712285065189 M442.5818087000123,553.7712285065189 L465.66734730359786,548.213751160793 M465.66734730359786,548.213751160793 L487.98839616603846,541.7098207022714 M487.98839616603846,541.7098207022714 L509.42749696324245,534.2950461306883 M509.42749696324245,534.2950461306883 L529.8722703793632,526.0099238797541 M529.8722703793632,526.0099238797541 L549.2160491494412,516.8995651081568 M549.2160491494412,516.8995651081568 L567.3585579867516,507.0134667706518 M567.3585579867516,507.0134667706518 L584.2062736008381,496.40510235221933 M584.2062736008381,496.40510235221933 L599.67309857688,485.13170044132585 M599.67309857688,485.13170044132585 L613.680602157992,473.25378476116913 M613.680602157992,473.25378476116913 L626.1585692650268,460.83490827552714 M626.1585692650268,460.83490827552714 L637.0452243678773,447.9412171873495 M637.0452243678773,447.9412171873495 L646.2875213768757,434.6410573126907 M646.2875213768757,434.6410573126907 L653.8413275613891,421.0046262085077 M653.8413275613891,421.0046262085077 L659.6716771414731,407.10352810739175 M659.6716771414731,407.10352810739175 L663.7527200435663,393.01041082571044 M663.7527200435663,393.01041082571044 L666.0679015411527,378.79852847651966 M666.0679015411527,378.79852847651966 L666.6098663462577,364.5414010478574 M666.6098663462577,364.5414010478574 L665.3804532393755,350.31237321316183 M665.3804532393755,350.31237321316183 L662.3905942884317,336.184294533042 M662.3905942884317,336.184294533042 L657.6601053242936,322.22909244300365 M657.6601053242936,322.22909244300365 L651.2175660649641,308.5174591235956 M651.2175660649641,308.5174591235956 L643.1000257063167,295.1184996305142 M643.1000257063167,295.1184996305142 L633.3527623130708,282.09941490507595 M633.3527623130708,282.09941490507595 L622.0290335803405,269.5251416735422 M622.0290335803405,269.5251416735422 L609.1896255413039,257.4581358746939 M609.1896255413039,257.4581358746939 L594.9025549901432,245.95805165848117 M594.9025549901432,245.95805165848117 L579.2427172494051,235.08146756314568 M579.2427172494051,235.08146756314568 L562.2913943894553,224.8816905805995 M677.8103110775027,333.7663947325635 L676.6382289534012,332.9175993821319 M676.6382289534012,332.9175993821319 L675.8502955481226,331.93442890291107 M675.8502955481226,331.93442890291107 L675.4922054748374,330.87407434905003 M675.4922054748374,330.87407434905003 L675.5847073663423,329.79817313967874 M675.5847073663423,329.79817313967874 L676.1223008977495,328.7692405093748 M676.1223008977495,328.7692405093748 L677.0737431899029,327.8470462340434 M677.0737431899029,327.8470462340434 L678.3836319872203,327.085149856196 M678.3836319872203,327.085149856196 L679.9758783237256,326.5277578339817 M679.9758783237256,326.5277578339817 L681.7579944317503,326.207244014711 M681.7579944317503,326.207244014711 L683.6264337515038,326.1421921993149 M683.6264337515038,326.1421921993149 L685.4727068583281,326.336398616465 M685.4727068583281,326.336398616465 L687.1896500683517,326.77855679801144 M687.1896500683517,326.77855679801144 L688.6774896819388,327.44304462803643 M688.6774896819388,327.44304462803643 L689.8498045510189,328.29127061341404 M689.8498045510189,328.29127061341404 L690.6384052673098,329.27400215966406 M690.6384052673098,329.27400215966406 L690.9974680031385,330.3341349899749 M690.9974680031385,330.3341349899749 L690.9059793701866,331.4101068817503 M690.9059793701866,331.4101068817503 L690.369207575242,332.43938641319306 M690.369207575242,332.43938641319306 L689.4182491767064,333.3620999252374 M689.4182491767064,333.3620999252374 L688.1083719015801,334.12458270323407 M688.1083719015801,334.12458270323407 L686.5156620765797,334.6824939701044 M686.5156620765797,334.6824939701044 L684.7327373227151,335.0033271141513 M684.7327373227151,335.0033271141513 L682.8632875221272,335.0684496180003 M682.8632875221272,335.0684496180003 L681.0160335809453,334.874049036952 M681.0160335809453,334.874049036952 L679.2984058109919,334.431451934019 M679.2984058109919,334.431451934019 L677.8103110775027,333.7663947325635 M213.5446349366156,412.86964096937396 L208.76947130588792,412.3760229906345 M208.76947130588792,412.3760229906345 L204.34501543689572,411.23421731217707 M204.34501543689572,411.23421731217707 L200.52987242226138,409.5110919958642 M200.52987242226138,409.5110919958642 L197.5467919861768,407.30754379851396 M197.5467919861768,407.30754379851396 L195.56972397771577,404.7524839006659 M195.56972397771577,404.7524839006659 L194.71364721526473,401.99527922430093 M194.71364721526473,401.99527922430093 L195.02797821805962,399.19692995121403 M195.02797821805962,399.19692995121403 L196.49379027101796,396.52071086513894 M196.49379027101796,396.52071086513894 L199.02506017126674,394.1226014592161 M199.02506017126674,394.1226014592161 L202.47381638232727,392.1422358075226 M202.47381638232727,392.1422358075226 L206.6387891609265,390.69485235967886 M206.6387891609265,390.69485235967886 L211.2772212060773,389.864608636703 M211.2772212060773,389.864608636703 L216.11891338303042,389.6997689662368 M216.11891338303042,389.6997689662368 L220.8819035729723,390.20990082725393 M220.8819035729723,390.20990082725393 L225.28878672958103,391.3653722242356 M225.28878672958103,391.3653722242356 L229.0827854110927,393.0989979822975 M229.0827854110927,393.0989979822975 L232.04263323326478,395.3099406015027 M232.04263323326478,395.3099406015027 L233.99545289545983,397.8695116107186 M233.99545289545983,397.8695116107186 L234.82690064419472,400.6285939394546 M234.82690064419472,400.6285939394546 L234.8553305835341,407.9127823746239 M636.5142072993526,359.50753171290864 L563.7452758821448,211.4426606551732 M636.5142072993526,359.50753171290864 L632.7467856375408,352.4828541005221 M632.7467856375408,352.4828541005221 L627.9000318781328,346.7915822837978 M627.9000318781328,346.7915822837978 L622.0672137427325,342.5466082442585 M622.0672137427325,342.5466082442585 L615.3611202615396,339.832899877811 M615.3611202615396,339.832899877811 L607.9119347906385,338.7056021460271 M607.9119347906385,338.7056021460271 L599.8647865053148,339.18888843501213 M599.8647865053148,339.18888843501213 L591.3769374968394,341.27526331337486 M591.3769374968394,341.27526331337486 L582.6147281238779,344.9255675784705 M582.6147281238779,344.9255675784705 L573.7502952795736,350.06963638963674 M573.7502952795736,350.06963638963674 L564.9581441682119,356.60755053070704 M564.9581441682119,356.60755053070704 L556.411649490984,364.4115344352136 M556.411649490984,364.4115344352136 L548.2795486740316,373.32847572579726 M548.2795486740316,373.32847572579726 L540.7225228719484,383.1829341125693 M540.7225228719484,383.1829341125693 L533.8899221486565,393.78063859468136 M533.8899221486565,393.78063859468136 L527.9167173504554,404.91248049701284 M527.9167173504554,404.91248049701284 L522.9207672245537,416.35863707545445 M522.9207672245537,416.35863707545445 L519.0004251430253,427.893139488133 M519.0004251430253,427.893139488133 L62.649329461340756,499.6609890474637 M213.5446349366156,412.86964096937396 L234.82690064419472,400.6285939394546 M234.82690064419472,400.6285939394546 L235.4525376459328,400.2687425934015 M235.4525376459328,400.2687425934015 L239.4510716451676,402.74356166459324 M239.4510716451676,402.74356166459324 L244.86041134289076,404.7565655898772 M244.86041134289076,404.7565655898772 L251.58927181932404,406.2543386900028 M251.58927181932404,406.2543386900028 L259.589876074683,407.2138803274843 M259.589876074683,407.2138803274843 L268.77403201939757,407.605363439783 M268.77403201939757,407.605363439783 L279.0239782029083,407.4021561363508 M279.0239782029083,407.4021561363508 L290.1992282244921,406.5839195258984 M290.1992282244921,406.5839195258984 L302.1418879357899,405.1388877201649 M302.1418879357899,405.1388877201649 L316.10096480807533,402.7985202414287 M316.10096480807533,402.7985202414287 L330.5472424626924,399.7057173776318 M330.5472424626924,399.7057173776318 L345.26350584162157,395.89982516246357 M345.26350584162157,395.89982516246357 L360.0606519544605,391.4380589193225 M360.0606519544605,391.4380589193225 L374.7651468559137,386.3990288468578 M374.7651468559137,386.3990288468578 L389.2008787074932,380.88908652765593 M389.2008787074932,380.88908652765593 L403.18435685210034,375.04322814125544 M403.18435685210034,375.04322814125544 L416.5362473063181,369.014854143699 M416.5362473063181,369.014854143699 L429.10534593203926,362.9537736342211 M429.10534593203926,362.9537736342211 L440.78587953599066,356.9828877240489 M440.78587953599066,356.9828877240489 L451.5119736629596,351.187001179267 M451.5119736629596,351.187001179267 L460.31522785586895,346.1580952372312 M460.31522785586895,346.1580952372312 L468.2770360035256,341.32102744910253 M468.2770360035256,341.32102744910253 L475.3479122641145,336.6754273331042 M475.3479122641145,336.6754273331042 L481.4521758792283,332.2153450335026 M481.4521758792283,332.2153450335026 L486.4859803525469,327.9357600167241 M486.4859803525469,327.9357600167241 L490.3237498680837,323.8402198038889 M490.3237498680837,323.8402198038889 L492.83950837129294,319.94374323544326 M492.83950837129294,319.94374323544326 L493.9306640665378,316.27634042012767 M493.9306640665378,316.27634042012767 L493.54030127962426,312.8814662666478 M493.54030127962426,312.8814662666478 L491.66590636088574,309.8102199277967 M491.66590636088574,309.8102199277967 L488.35149411269356,307.1150414405402 M488.35149411269356,307.1150414405402 L483.66808201102833,304.84401504462136 M483.66808201102833,304.84401504462136 L476.95554382922694,302.87018198019376 M476.95554382922694,302.87018198019376 L468.7644036582759,301.52613397398324 M468.7644036582759,301.52613397398324 L459.2005628298488,300.85693033058135 M459.2005628298488,300.85693033058135 L448.3794538833379,300.8999450264198 M448.3794538833379,300.8999450264198 L436.42499571165786,301.6806688748418 M436.42499571165786,301.6806688748418 L423.4899941489307,303.20828611106634 M423.4899941489307,303.20828611106634 L409.75230257768345,305.471576814249 M409.75230257768345,305.471576814249 L402.3845480448888,306.92343443941223 M402.3845480448888,306.92343443941223 L394.913148864442,308.5508367949451 M394.913148864442,308.5508367949451 L395.5317752995724,308.19501775807976 M395.5317752995724,308.19501775807976 L416.543340700117,296.10967102976144 M416.543340700117,296.10967102976144 L563.7452758821448,211.4426606551732 M68.85296438385535,503.3993339446531 L66.76662562147436,502.1632442695974 M66.76662562147436,502.1632442695974 L64.69871480716256,500.9170896345727 M64.69871480716256,500.9170896345727 L62.649329461340756,499.6609890474637 M93.05535994222043,516.3470644837892 L84.75349379896971,512.1757245439184 M84.75349379896971,512.1757245439184 L76.6834602778543,507.8583683617652 M76.6834602778543,507.8583683617652 L68.85296438385535,503.3993339446531 M93.05535994222043,516.3470644837892 L93.11575480398517,523.6567491359576 M116.27011070521519,526.7271399851476 L116.14382517840431,529.6078317824486 M116.14382517840431,529.6078317824486 L114.82074168096995,532.3916430003399 M114.82074168096995,532.3916430003399 L112.37944705100682,534.912001710439 M112.37944705100682,534.912001710439 L108.96546418787403,537.0180128494013 M108.96546418787403,537.0180128494013 L104.7828038534517,538.5834491944798 M104.7828038534517,538.5834491944798 L100.08167165884339,539.5144367812085 M100.08167165884339,539.5144367812085 L95.14354431637173,539.7550969431434 M95.14354431637173,539.7550969431434 L90.26408855554439,539.2910170401368 M90.26408855554439,539.2910170401368 L85.73549839755862,538.1500397791004 M85.73549839755862,538.1500397791004 L81.82886774191502,536.4005890325335 M81.82886774191502,536.4005890325335 L78.77777979174272,534.1475819652875 M78.77777979174272,534.1475819652875 L76.7644243702822,531.5260141951977 M76.7644243702822,531.5260141951977 L75.90873448682623,528.6928115637538 M75.90873448682623,528.6928115637538 L76.26127869213059,525.8174136561626 M76.26127869213059,525.8174136561626 L77.80036549864656,523.071623400528 M77.80036549864656,523.071623400528 L80.4334808681599,520.6193420928896 M80.4334808681599,520.6193420928896 L84.00307081505787,518.6067622742665 M84.00307081505787,518.6067622742665 L88.29576567852985,517.1538341761192 M88.29576567852985,517.1538341761192 L93.05535994222043,516.3470644837892 M116.27011070521519,526.7271399851476 L116.32533895828226,534.0390939028764 M181.62803937326186,547.8914854376465 L158.98155102521343,541.7299956148241 M158.98155102521343,541.7299956148241 L137.1591282955942,534.6629076851586 M137.1591282955942,534.6629076851586 L116.27011070521519,526.7271399851476 M247.95236199437386,560.0110215607868 L225.39216720264324,556.8108180731554 M225.39216720264324,556.8108180731554 L203.25199603396285,552.7648854610371 M203.25199603396285,552.7648854610371 L181.62803937326186,547.8914854376465 M247.95236199437386,560.0110215607868 L247.9781198009897,567.3302321814786 M235.4525376459328,400.2687425934015 L235.48082777151808,407.55285117542786 M277.2066549442873,562.8448619442304 L279.40463595892487,565.425106589988 M279.40463595892487,565.425106589988 L280.46658270404515,568.2417627337767 M280.46658270404515,568.2417627337767 L280.3288191742965,571.127670587802 M280.3288191742965,571.127670587802 L278.9989550279429,573.9113887342509 M278.9989550279429,573.9113887342509 L276.5554553120585,576.4273805864575 M276.5554553120585,576.4273805864575 L273.14311050973924,578.5259334898723 M273.14311050973924,578.5259334898723 L268.96461635074616,580.0819874692698 M268.96461635074616,580.0819874692698 L264.2683741417066,581.0028303268191 M264.2683741417066,581.0028303268191 L259.3338902252538,581.2335174066282 M259.3338902252538,581.2335174066282 L254.45480372510696,580.7603122278327 M254.45480372510696,580.7603122278327 L249.9215782620991,579.6114213703071 M249.9215782620991,579.6114213703071 L246.0038265221521,577.8553749204256 M246.0038265221521,577.8553749204256 L242.93446589799248,575.5967836597029 M242.93446589799248,575.5967836597029 L240.89563330964324,572.9702028312429 M240.89563330964324,572.9702028312429 L240.00807616046092,570.1318717724738 M240.00807616046092,570.1318717724738 L240.32389124105862,567.2505413786472 M240.32389124105862,567.2505413786472 L241.82372660277127,564.4973093892476 M241.82372660277127,564.4973093892476 L244.41800806314768,562.035495515027 M244.41800806314768,562.035495515027 L247.95236199437386,560.0110215607868 M277.2066549442873,562.8448619442304 L277.2258442111619,570.164689021856 M394.913148864442,308.5508367949451 L394.90600293755466,315.8144779551145 M672.4452997937912,332.9208833935932 L674.8877014068755,347.08267658648543 M674.8877014068755,347.08267658648543 L675.6100536524953,361.3219631673231 M675.6100536524953,361.3219631673231 L674.6043328590118,375.5693985949216 M674.6043328590118,375.5693985949216 L671.8709359594891,389.7552442530155 M671.8709359594891,389.7552442530155 L667.4187846840747,403.8096965171374 M667.4187846840747,403.8096965171374 L661.2654042371637,417.663225136497 M661.2654042371637,417.663225136497 L653.4368183790112,431.2469696648234 M653.4368183790112,431.2469696648234 L643.9676057424098,444.4930753094917 M643.9676057424098,444.4930753094917 L632.9007491860381,457.335026456443 M632.9007491860381,457.335026456443 L620.2875065149378,469.7080683380714 M620.2875065149378,469.7080683380714 L606.1872401691112,481.54951144071913 M606.1872401691112,481.54951144071913 L590.667087748794,492.7990844014689 M590.667087748794,492.7990844014689 L573.8018119693486,503.39933394465356 M573.8018119693486,503.39933394465356 L555.6732907840116,513.2958612894513 M555.6732907840116,513.2958612894513 L536.3703054608171,522.4377453922563 M536.3703054608171,522.4377453922563 L515.9879214360463,530.7777416183534 M515.9879214360463,530.7777416183534 L494.62717278380205,538.2726613746205 M494.62717278380205,538.2726613746205 L472.3944402620946,544.8835503997465 M472.3944402620946,544.8835503997465 L449.4008875445299,550.5759767214042 M449.4008875445299,550.5759767214042 L425.7619564818009,555.3202283807396 M425.7619564818009,555.3202283807396 L401.59663347369485,559.0914894301022 M401.59663347369485,559.0914894301022 L377.0268438403937,561.870026878381 M377.0268438403937,561.870026878381 L352.17681794836454,563.6412529425546 M352.17681794836454,563.6412529425546 L327.1723283191919,564.3958781253572 M327.1723283191919,564.3958781253572 L302.1400061434694,564.1299489216974 M302.1400061434694,564.1299489216974 L277.2066549442873,562.8448619442304 M672.4452997937912,332.9208833935932 L672.3766524518741,340.1899851680311 M395.5317752995724,308.19501775807976 L395.52449267184124,315.45857907014965 M667.3450779717001,316.32813305450463 L667.277629276977,323.5935186314794 M667.3450779717001,316.32813305450463 L670.7260958225562,314.33495260720696 M670.7260958225562,314.33495260720696 L674.8537425837776,312.87657176463307 M674.8537425837776,312.87657176463307 L679.4830875745147,312.0393119997073 M679.4830875745147,312.0393119997073 L684.3396613575999,311.87270155384005 M684.3396613575999,311.87270155384005 L689.1355899401818,312.38658744785874 M689.1355899401818,312.38658744785874 L693.5865101295439,313.5505969181784 M693.5865101295439,313.5505969181784 L697.4285156232625,315.29582150376183 M697.4285156232625,315.29582150376183 L700.4334540218923,317.51895284209144 M700.4334540218923,317.51895284209144 L702.4227578175521,320.08824185513123 M702.4227578175521,320.08824185513123 L703.2778207736249,322.85136728883805 M703.2778207736249,322.85136728883805 L702.9473203868699,325.6442735100674 M702.9473203868699,325.6442735100674 L701.450260905717,328.3010507873776 M701.450260905717,328.3010507873776 L698.8751383331326,330.6636468376582 M698.8751383331326,330.6636468376582 L695.3745864830281,332.5914471638559 M695.3745864830281,332.5914471638559 L691.1566443780083,333.9695788576763 M691.1566443780083,333.9695788576763 L686.4720866625513,334.7159084576804 M686.4720866625513,334.7159084576804 L681.5996849020104,334.7859297354848 M681.5996849020104,334.7859297354848 L676.8294561834434,334.1754441723881 M676.8294561834434,334.1754441723881 L672.4452997937912,332.9208833935932 M416.543340700117,296.10967102976144 L415.6867962609573,293.3856670156147 M415.6867962609573,293.3856670156147 L413.7182318377975,290.8586291195737 M413.7182318377975,290.8586291195737 L410.75288475489236,288.67579075819657 M410.75288475489236,288.67579075819657 L406.9639652384925,286.964196556602 M406.9639652384925,286.964196556602 L402.5724294412023,285.82341146361983 M402.5724294412023,285.82341146361983 L397.8341849761636,285.31975479547566 M397.8341849761636,285.31975479547566 L393.02516312188095,285.4825033620081 M393.02516312188095,285.4825033620081 L388.425450961372,286.3021972867648 M388.425450961372,286.3021972867648 L384.30299028396655,287.7311877561144 M384.30299028396655,287.7311877561144 L380.8980645264733,289.68638481964734 M380.8980645264733,289.68638481964734 L378.40938918857825,292.0540124721059 M378.40938918857825,292.0540124721059 L376.9824502173799,294.69620960614867 M376.9824502173799,294.69620960614867 L376.70100431421616,297.4589750031551 M376.70100431421616,297.4589750031551 L377.5820284619918,300.18112336710794 M377.5820284619918,300.18112336710794 L379.57467746188064,302.70368209362687 M379.57467746188064,302.70368209362687 L382.5630318018635,304.8791993937604 M382.5630318018635,304.8791993937604 L386.37284058486495,306.5803991387424 M386.37284058486495,306.5803991387424 L390.7816456442116,307.70768059346057 M390.7816456442116,307.70768059346057 L395.5317752995724,308.19501775807976 M416.543340700117,296.10967102976144 L416.5314185942853,303.3705182699806 M646.2068773761619,278.7782028581398 L654.6476518253131,291.0127826786697 M654.6476518253131,291.0127826786697 L661.7045884533854,303.5466023390376 M661.7045884533854,303.5466023390376 L667.3450779717001,316.32813305450463 M609.8837380689844,241.81340038067086 L623.4622663646461,253.6287104814583 M623.4622663646461,253.6287104814583 L635.5905613556844,265.96972981607496 M635.5905613556844,265.96972981607496 L646.2068773761619,278.7782028581398 M609.8837380689844,241.81340038067086 L609.8292577989282,249.06200507083986 M563.7010440237077,218.68438253089744 L563.7452758821448,211.4426606551732 M592.1656653812528,228.6751376785509 L592.1151297974159,235.92076796456573 M592.1656653812528,228.6751376785509 L593.4900380135952,226.00945531915673 M593.4900380135952,226.00945531915673 L595.908263762117,223.61311410483916 M595.908263762117,223.61311410483916 L599.2755484816394,221.62901282781493 M599.2755484816394,221.62901282781493 L603.3905844236342,220.17542170380577 M603.3905844236342,220.17542170380577 L608.0077802658637,219.33886430286944 M608.0077802658637,219.33886430286944 L612.8516624591894,219.16915981527904 M612.8516624591894,219.16915981527904 L617.6333260398579,219.67641565046623 M617.6333260398579,219.67641565046623 L622.0675758195752,220.830434620367 M622.0675758195752,220.830434620367 L625.8898299584556,222.56249624704094 M625.8898299584556,222.56249624704094 L628.8717970110662,224.76942359134858 M628.8717970110662,224.76942359134858 L630.8350838543489,227.31967669654023 M630.8350838543489,227.31967669654023 L631.6619974228619,230.06107358293772 M631.6619974228619,230.06107358293772 L631.3025682579023,232.82988823288463 M631.3025682579023,232.82988823288463 L629.7776409308617,235.460625131902 M629.7776409308617,235.460625131902 L627.1779101517947,237.79583895350578 M627.1779101517947,237.79583895350578 L623.6584798489775,239.6956723897304 M623.6584798489775,239.6956723897304 L619.4297283027479,241.04623720118272 M619.4297283027479,241.04623720118272 L614.7446318208811,241.76656143437236 M614.7446318208811,241.76656143437236 L609.8837380689844,241.81340038067086 M570.107944925244,214.96173605611008 L577.7002809725784,219.40104275077414 M577.7002809725784,219.40104275077414 L585.0551982082645,223.97355308225505 M585.0551982082645,223.97355308225505 L592.1656653812528,228.6751376785509 M563.7452758821448,211.4426606551732 L565.8829277059644,212.60541709480304 M565.8829277059644,212.60541709480304 L568.0038819839745,213.7784594484042 M568.0038819839745,213.7784594484042 L570.107944925244,214.96173605611008 M90.56560286016185,538.5247715089539 L90.50458159157324,531.2118380632162 M90.50458159157324,531.2118380632162 L91.98746566193552,531.8935210078507 M91.98746566193552,531.8935210078507 L93.71088156172021,532.3472098260326 M93.71088156172021,532.3472098260326 L95.57464942282365,532.5464766975318 M95.57464942282365,532.5464766975318 L97.4703598642368,532.4797290304166 M97.4703598642368,532.4797290304166 L99.28773809260599,532.1508600177352 M99.28773809260599,532.1508600177352 L100.92112745179338,531.5789909423614 M100.92112745179338,531.5789909423614 L102.27551651390183,530.79742731283 M102.27551651390183,530.79742731283 L103.27223155484921,529.8516201754857 M103.27223155484921,529.8516201754857 L103.85337008326883,528.7965928736019 M103.85337008326883,528.7965928736019 L103.9852203396087,527.6936955005407 M103.9852203396087,527.6936955005407 L103.66021929758887,526.607024705682 M103.66021929758887,526.607024705682 L102.89732735212999,525.5997215077593 M102.89732735212999,525.5997215077593 L101.74095464268339,524.7302802856193 M101.74095464268339,524.7302802856193 L100.25833536333073,524.0491740515524 M100.25833536333073,524.0491740515524 L98.5356057780482,523.595941117387 M98.5356057780482,523.595941117387 L96.67281162382926,523.3968898913237 M96.67281162382926,523.3968898913237 L94.77814062509094,523.4635644018192 M94.77814062509094,523.4635644018192 L92.96160401110524,523.7921017882993 M92.96160401110524,523.7921017882993 L91.32870903394371,524.3634317248387 M91.32870903394371,524.3634317248387 L89.974329794406,525.1443866066977 M89.974329794406,525.1443866066977 L88.97713776663409,526.0896548276979 M88.97713776663409,526.0896548276979 L88.3951687836776,527.1443221356343 M88.3951687836776,527.1443221356343 L88.26228145272813,528.2471459112363 M88.26228145272813,528.2471459112363 L88.58630182157395,529.334032794022 M88.58630182157395,529.334032794022 L89.34849274770244,530.3417914262855 M89.34849274770244,530.3417914262855 L90.50458159157324,531.2118380632162 M209.2486823605457,411.75120490641564 L209.21454615529976,404.4661651102256 M209.21454615529976,404.4661651102256 L210.69089449604633,405.13743724514836 M210.69089449604633,405.13743724514836 L212.40432517166602,405.5841856236167 M212.40432517166602,405.5841856236167 L214.25521625750326,405.78040848991253 M214.25521625750326,405.78040848991253 L216.13590230864742,405.714680179593 M216.13590230864742,405.714680179593 L217.93700832813954,405.3908279572279 M217.93700832813954,405.3908279572279 L219.55377534281638,404.82770752746865 M219.55377534281638,404.82770752746865 L220.89221489315412,404.05808460730924 M220.89221489315412,404.05808460730924 L221.87453239426867,403.1267428810604 M221.87453239426867,403.1267428810604 L222.4436898500067,402.0878458216497 M222.4436898500067,402.0878458216497 L222.56667221180652,401.00180642345595 M222.56667221180652,401.00180642345595 L222.23641137571087,399.9317445048399 M222.23641137571087,399.9317445048399 L221.4722077202665,398.9398292741606 M221.4722077202665,398.9398292741606 L220.31851539622824,398.0836710439063 M220.31851539622824,398.0836710439063 L218.84240822678032,397.4129764732842 M218.84240822678032,397.4129764732842 L217.1296501843956,396.96667682361004 M217.1296501843956,396.96667682361004 L215.2797258710176,396.77066141963377 M215.2797258710176,396.77066141963377 L213.40006248599158,396.8363180272957 M213.40006248599158,396.8363180272957 L211.59980679908307,397.15983233327256 M211.59980679908307,397.15983233327256 L209.9835229787417,397.722426050819 M209.9835229787417,397.722426050819 L208.64508879459646,398.4914541207949 M208.64508879459646,398.4914541207949 L207.66229760219522,399.4222691352483 M207.66229760219522,399.4222691352483 L207.0922959106634,400.46082828085036 M207.0922959106634,400.46082828085036 L206.9682921764843,401.54679597806324 M206.9682921764843,401.54679597806324 L207.29758243435828,402.6170723119603 M207.29758243435828,402.6170723119603 L208.06110542321187,403.6094293155816 M208.06110542321187,403.6094293155816 L209.21454615529976,404.4661651102256 M391.1303471388828,307.16014104144534 L391.13665423533894,299.8984425094326 M391.13665423533894,299.8984425094326 L392.6109866725889,300.5611773862546 M392.6109866725889,300.5611773862546 L394.3184184686491,301.0022403784818 M394.3184184686491,301.0022403784818 L396.15965897576575,301.19597097976975 M396.15965897576575,301.19597097976975 L398.02762209537394,301.13107865173777 M398.02762209537394,301.13107865173777 L399.8136673872535,300.8113453780291 M399.8136673872535,300.8113453780291 L401.41391253702216,300.2553868629572 M401.41391253702216,300.2553868629572 L402.73533014423583,299.49555181672207 M402.73533014423583,299.49555181672207 L403.70111555337223,298.57605405549594 M403.70111555337223,298.57605405549594 L404.25519138046747,297.550367966485 M404.25519138046747,297.550367966485 L404.3654186068102,296.47813813010487 M404.3654186068102,296.47813813010487 L404.02547535864244,295.4216782913907 M404.02547535864244,295.4216782913907 L403.25520574098323,294.4423776100806 M403.25520574098323,294.4423776100806 L402.0994329737622,293.59710388626235 M402.0994329737622,293.59710388626235 L400.62534496849105,292.934935592962 M400.62534496849105,292.934935592962 L398.9185940791474,292.4943059521853 M398.9185940791474,292.4943059521853 L397.07829841405385,292.30078571491106 M397.07829841405385,292.30078571491106 L395.2113441715316,292.3656077035121 M395.2113441715316,292.3656077035121 L393.4261346980928,292.68500948537314 M393.4261346980928,292.68500948537314 L391.8263608285281,293.2404513022003 M391.8263608285281,293.2404513022003 L390.50494200265695,293.99970280767377 M390.50494200265695,293.99970280767377 L389.53868315521214,294.9186838710641 M389.53868315521214,294.9186838710641 L388.9837701251847,295.9440384707573 M388.9837701251847,295.9440384707573 L388.87253372804867,297.01619796935125 M388.87253372804867,297.01619796935125 L389.2115329985141,298.07286130082423 M389.2115329985141,298.07286130082423 L389.9811235337456,299.052602202005 M389.9811235337456,299.052602202005 L391.13665423533894,299.8984425094326 M606.3360614272071,240.87684638193676 L606.3897448032664,233.63009378041917 M606.3897448032664,233.63009378041917 L607.8667958972289,234.28745019390243 M607.8667958972289,234.28745019390243 L609.5730754524966,234.7249390644358 M609.5730754524966,234.7249390644358 L611.4093754430169,234.91709054133938 M611.4093754430169,234.91709054133938 L613.2688856319054,234.85272630022905 M613.2688856319054,234.85272630022905 L615.0434625305018,234.535586775868 M615.0434625305018,234.535586775868 L616.6298932955981,233.98413722537418 M616.6298932955981,233.98413722537418 L617.9359235988045,233.2304794968756 M617.9359235988045,233.2304794968756 L618.8856903455364,232.31844089294964 M618.8856903455364,232.31844089294964 L619.4239964642011,231.30109306172417 M619.4239964642011,231.30109306172417 L619.5196639867564,230.23756805271904 M619.5196639867564,230.23756805271904 L619.1672057225788,229.18968784660956 M619.1672057225788,229.18968784660956 L618.3871746237853,228.21833985591488 M618.3871746237853,228.21833985591488 L617.2249967192083,227.37991758846232 M617.2249967192083,227.37991758846232 L615.7481715089594,226.72313428068287 M615.7481715089594,226.72313428068287 L614.0425675011695,226.28607710564634 M614.0425675011695,226.28607710564634 L612.2072129439802,226.09412982670844 M612.2072129439802,226.09412982670844 L610.3487028953052,226.1584247972287 M610.3487028953052,226.1584247972287 L608.574974395792,226.4752232915066 M608.574974395792,226.4752232915066 L606.9890041273044,227.0261623116793 M606.9890041273044,227.0261623116793 L605.6829649667496,227.77924359686082 M605.6829649667496,227.77924359686082 L604.7327220376056,228.69077188498196 M604.7327220376056,228.69077188498196 L604.1935574567743,229.7078058282773 M604.1935574567743,229.7078058282773 L604.0968876587962,230.77126114157812 M604.0968876587962,230.77126114157812 L604.4484067714409,231.8193459723322 M604.4484067714409,231.8193459723322 L605.2277755824792,232.79112522504408 M605.2277755824792,232.79112522504408 L606.3897448032664,233.63009378041917 M254.6884358569227,579.9708468073217 L254.66416730600395,572.648888701936 M254.66416730600395,572.648888701936 L256.15754405498996,573.3340135493398 M256.15754405498996,573.3340135493398 L257.8898260745154,573.7899661908272 M257.8898260745154,573.7899661908272 L259.7602286123122,573.9902472117179 M259.7602286123122,573.9902472117179 L261.6600218162074,573.923159562811 M261.6600218162074,573.923159562811 L263.47871809698984,573.5926308293606 M263.47871809698984,573.5926308293606 L265.1104993563792,573.0178846432694 M265.1104993563792,573.0178846432694 L266.46049804555986,572.2323949933343 M266.46049804555986,572.2323949933343 L267.45029598177337,571.2818413696775 M267.45029598177337,571.2818413696775 L268.0223433687857,570.2215225597312 M268.0223433687857,570.2215225597312 L268.1435421180861,569.1130906621237 M268.1435421180861,569.1130906621237 L267.8068994689509,568.0209636515539 M267.8068994689509,568.0209636515539 L267.0320832296906,567.0085889527785 M267.0320832296906,567.0085889527785 L265.86414155203335,566.1347785469313 M265.86414155203335,566.1347785469313 L264.3710125805715,565.4502492276716 M264.3710125805715,565.4502492276716 L262.6394245146112,564.9947556714579 M262.6394245146112,564.9947556714579 L260.76997868460876,564.7947063509548 M260.76997868460876,564.7947063509548 L258.87122902858346,564.8617200640072 M258.87122902858346,564.8617200640072 L257.0534240786492,565.1918861863473 M257.0534240786492,565.1918861863473 L255.42213448322104,565.7660892738741 M255.42213448322104,565.7660892738741 L254.0721395854037,566.5509655846536 M254.0721395854037,566.5509655846536 L253.08185669954315,567.5009761180552 M253.08185669954315,567.5009761180552 L252.5089222892331,568.5609607070181 M252.5089222892331,568.5609607070181 L252.38668090618074,569.6693186750979 M252.38668090618074,569.6693186750979 L252.7223641586354,570.7616489784508 M252.7223641586354,570.7616489784508 L253.49648076850485,571.7744827746149 M253.49648076850485,571.7744827746149 L254.66416730600395,572.648888701936 M230.1198000367313,408.78445924552386 L230.1492918857155,416.0704565723666 M73.7026654389191,498.7817365911922 L230.1198000367313,408.78445924552386 M73.7673274345758,506.0875744908791 L73.7026654389191,498.7817365911922 M409.5537159280672,305.5440825744266 L409.54333295816707,312.8070488912154 M230.1198000367313,408.78445924552386 L235.49975357542814,411.0226019623466 M235.49975357542814,411.0226019623466 L242.28764558537415,412.7872630670428 M242.28764558537415,412.7872630670428 L250.3154592561803,414.0185423466558 M250.3154592561803,414.0185423466558 L259.54838919582,414.70198886254275 M259.54838919582,414.70198886254275 L269.8845215018985,414.80923105836916 M269.8845215018985,414.80923105836916 L281.1930537492847,414.3150134072663 M281.1930537492847,414.3150134072663 L293.3290653146993,413.1997298711439 M293.3290653146993,413.1997298711439 L306.12833620276876,411.45236692442614 M306.12833620276876,411.45236692442614 L320.91199725658447,408.7718707098933 M320.91199725658447,408.7718707098933 L336.0602922615042,405.3351732681667 M336.0602922615042,405.3351732681667 L351.37335069500404,401.1815227598843 M351.37335069500404,401.1815227598843 L366.6819256187749,396.36826606770325 M366.6819256187749,396.36826606770325 L381.82535191135423,390.97799475305527 M381.82535191135423,390.97799475305527 L396.6331019436497,385.1264225703521 M396.6331019436497,385.1264225703521 L410.921050206546,378.96309852505937 M410.921050206546,378.96309852505937 L424.5105290467488,372.65635730524144 M424.5105290467488,372.65635730524144 L437.2611192382457,366.3638065719549 M437.2611192382457,366.3638065719549 L449.0813662992979,360.20931328117246 M449.0813662992979,360.20931328117246 L459.9272296550876,354.26871220198063 M459.9272296550876,354.26871220198063 L468.8338406741559,349.1336428638794 M468.8338406741559,349.1336428638794 L476.9064321730111,344.20106855428475 M476.9064321730111,344.20106855428475 L484.0977498307383,339.4607228689576 M484.0977498307383,339.4607228689576 L490.33046881824964,334.89619349300096 M490.33046881824964,334.89619349300096 L495.49419128058264,330.4930011274196 M495.49419128058264,330.4930011274196 L499.454301376443,326.2470654311527 M499.454301376443,326.2470654311527 L502.07716018264466,322.1686355810055 M502.07716018264466,322.1686355810055 L503.2571440990466,318.28647604361663 M503.2571440990466,318.28647604361663 L502.9397920098776,314.6460603515339 M502.9397920098776,314.6460603515339 L501.12808005168904,311.30274517088037 M501.12808005168904,311.30274517088037 L497.8710365867897,308.3139766777703 M497.8710365867897,308.3139766777703 L493.2413199288643,305.73256556054946 M493.2413199288643,305.73256556054946 L486.5817746733294,303.39960774321077 M486.5817746733294,303.39960774321077 L478.42945160993315,301.6871487528098 M478.42945160993315,301.6871487528098 L468.8806730597063,300.6461671646489 M468.8806730597063,300.6461671646489 L458.0382491473798,300.32045977313675 M458.0382491473798,300.32045977313675 L446.01877403270896,300.74223128379276 M446.01877403270896,300.74223128379276 L432.9591760414575,301.9281053255067 M432.9591760414575,301.9281053255067 L421.43741359519544,303.4926997410528 M421.43741359519544,303.4926997410528 L409.5537159280672,305.5440825744266 M562.2913943894553,224.8816905805995 L562.3353329780075,217.63856251540187 M409.5537159280672,305.5440825744266 L562.3353329780075,217.63856251540187 M562.3353329780075,217.63856251540187 L562.8618906181442,217.93412894972195 M562.8618906181442,217.93412894972195 L563.387385941013,218.23033533652986 M563.387385941013,218.23033533652986 L563.9117686686292,218.52720725326742 M563.9117686686292,218.52720725326742 L579.4536618864498,227.94156551882617 M579.4536618864498,227.94156551882617 L593.9014162760806,237.9282505652056 M593.9014162760806,237.9282505652056 L607.1914968944078,248.44588104987298 M607.1914968944078,248.44588104987298 L619.265080694416,259.4506275586126 M619.265080694416,259.4506275586126 L630.0680997717795,270.89650740524786 M630.0680997717795,270.89650740524786 L639.5516346807628,282.7354688668392 M639.5516346807628,282.7354688668392 L648.259457280768,295.90156129094186 M648.259457280768,295.90156129094186 L655.3309409127748,309.40264753849635 M655.3309409127748,309.40264753849635 L660.7265134702697,323.17171494134834 M660.7265134702697,323.17171494134834 L664.414741803424,337.14008584001857 M664.414741803424,337.14008584001857 L666.3726488797528,351.23772871636646 M666.3726488797528,351.23772871636646 L666.5857924208673,365.3936024928731 M666.5857924208673,365.3936024928731 L665.0485939117443,379.53600007568826 M665.0485939117443,379.53600007568826 L661.7643400113016,393.59290522975687 M661.7643400113016,393.59290522975687 L656.7452678083182,407.4923664511297 M656.7452678083182,407.4923664511297 L650.0126598991914,421.1628878829258 M650.0126598991914,421.1628878829258 L641.5967593656821,434.53379173251335 M641.5967593656821,434.53379173251335 L631.5366957388491,447.5356073137632 M631.5366957388491,447.5356073137632 L619.8804257586138,460.1004688217591 M619.8804257586138,460.1004688217591 L606.6844900648271,472.162480739038 M606.6844900648271,472.162480739038 L592.0137900353891,483.6581127905264 M592.0137900353891,483.6581127905264 L575.9413409741942,494.52656338922253 M575.9413409741942,494.52656338922253 L558.5478736390996,504.7101076611058 M558.5478736390996,504.7101076611058 L539.921489251289,514.1544638937966 M539.921489251289,514.1544638937966 L520.1572154861929,522.809124253919 M520.1572154861929,522.809124253919 L499.3564797886596,530.6276383813577 M499.3564797886596,530.6276383813577 L477.6265920254401,537.5679365861278 M477.6265920254401,537.5679365861278 L455.0801752846771,543.5925712156941 M455.0801752846771,543.5925712156941 L431.8345162139324,548.6689487990799 M431.8345162139324,548.6689487990799 L408.0109400845921,552.7695761059252 M408.0109400845921,552.7695761059252 L383.7341023833483,555.8721985363272 M383.7341023833483,555.8721985363272 L359.1312694492008,557.9599447629681 M359.1312694492008,557.9599447629681 L334.331620408438,559.0214733329585 M334.331620408438,559.0214733329585 L309.4654755796413,559.0510070914293 M309.4654755796413,559.0510070914293 L284.6635332025136,558.0483648244278 M284.6635332025136,558.0483648244278 L260.0561165685751,556.019032457459 M260.0561165685751,556.019032457459 L235.77242926567232,552.9740291638052 M235.77242926567232,552.9740291638052 L211.93979553871958,548.9299089554559 M211.93979553871958,548.9299089554559 L188.68295042206387,543.9086075322426 M188.68295042206387,543.9086075322426 L167.76184265204887,538.4098622353052 M167.76184265204887,538.4098622353052 L147.53223493907385,532.1216655542823 M147.53223493907385,532.1216655542823 L128.08412513950793,525.0731392067104 M128.08412513950793,525.0731392067104 L109.50364360774978,517.2968689202773 M109.50364360774978,517.2968689202773 L91.87280111234793,508.8286486347034 M91.87280111234793,508.8286486347034 L75.26886608747947,499.7074259387046 M75.26886608747947,499.7074259387046 L74.74561745594474,499.3995153714196 M74.74561745594474,499.3995153714196 L74.2235658879664,499.09094225809906 M74.2235658879664,499.09094225809906 L73.7026654389191,498.7817365911922 M677.8103110775027,333.7663947325635 L677.8801350945033,326.4987304095106 M677.8801350945033,326.4987304095106 L679.3685623366117,327.1636387345344 M679.3685623366117,327.1636387345344 L681.0865725317757,327.606136766511 M681.0865725317757,327.606136766511 L682.9342365578275,327.8004938346044 M682.9342365578275,327.8004938346044 L684.8041002355064,327.7353859071027 M684.8041002355064,327.7353859071027 L686.5874185699438,327.41462457670616 M686.5874185699438,327.41462457670616 L688.1804787735742,326.8568381964935 M688.1804787735742,326.8568381964935 L689.4906428420345,326.09452611149663 M689.4906428420345,326.09452611149663 L690.4418077902095,325.1720191835622 M690.4418077902095,325.1720191835622 L690.978693896213,324.142970122303 M690.978693896213,324.142970122303 L691.0701979964249,323.0672391865262 M691.0701979964249,323.0672391865262 L690.7110510151518,322.0073437959021 M690.7110510151518,322.0073437959021 L689.9222712868237,321.0248323808889 M689.9222712868237,321.0248323808889 L688.7496930537262,320.17679641866334 M688.7496930537262,320.17679641866334 L687.2615210470201,319.5124574636363 M687.2615210470201,319.5124574636363 L685.5441957169653,319.07039835194104 M685.5441957169653,319.07039835194104 L683.6975129553898,318.8762354503091 M683.6975129553898,318.8762354503091 L681.8286602058929,318.94127268953605 M681.8286602058929,318.94127268953605 L680.0461508793929,319.2617146929082 M680.0461508793929,319.2617146929082 L678.4535543673278,319.81898182977216 M678.4535543673278,319.81898182977216 L677.143378769019,320.58070751609637 M677.143378769019,320.58070751609637 L676.1917297105947,321.5026952086252 M676.1917297105947,321.5026952086252 L675.6540214973313,322.53139737267145 M675.6540214973313,322.53139737267145 L675.5615036893729,323.60705762622194 M675.5615036893729,323.60705762622194 L675.9196775834145,324.6671747367859 M675.9196775834145,324.6671747367859 L676.7077897070144,325.6501250836647 M676.7077897070144,325.6501250836647 L677.8801350945033,326.4987304095106 M637.0026581842006,360.72279823343945 L636.8430159621926,360.31446360487814 M636.8430159621926,360.31446360487814 L636.6801991575071,359.9093653699083 M636.6801991575071,359.9093653699083 L636.5142072993526,359.50753171290864 M637.0026581842006,360.72279823343945 L570.107944925244,214.96173605611008 M518.4879464805485,429.69721045332983 L516.2057035538174,439.4279305627398 M516.2057035538174,439.4279305627398 L514.8069367779738,448.89028776623644 M514.8069367779738,448.89028776623644 L514.3112469274184,457.9479970833305 M514.3112469274184,457.9479970833305 L610.9598424800879,513.6855966383542 M610.9598424800879,513.6855966383542 L611.6563988167452,503.0594953564939 M611.6563988167452,503.0594953564939 L613.576903695586,491.9090189160325 M613.576903695586,491.9090189160325 L616.6845513908876,480.45264588837733 M616.6845513908876,480.45264588837733 L620.9189816303044,468.91514406574254 M620.9189816303044,468.91514406574254 L626.1974579602057,457.52314931551535 M626.1974579602057,457.52314931551535 L632.4164728375292,446.500523677472 M632.4164728375292,446.500523677472 L639.4538556505237,436.0638556967611 M639.4538556505237,436.0638556967611 L647.171214673672,426.4181174811704 M647.171214673672,426.4181174811704 L655.4167526729047,417.75243824761384 M655.4167526729047,417.75243824761384 L664.0283447861224,410.2364183194392 M664.0283447861224,410.2364183194392 L672.8368155379252,404.0167155163791 M672.8368155379252,404.0167155163791 L681.6693616235906,399.2141312842024 M681.6693616235906,399.2141312842024 L690.3530131816815,395.9213388180764 M690.3530131816815,395.9213388180764 L698.7180872013057,394.2010893911959 M698.7180872013057,394.2010893911959 L706.6015388179775,394.0851507773455 M706.6015388179775,394.0851507773455 L713.8501513712926,395.5737461381145 M713.8501513712926,395.5737461381145 L720.3235012449659,398.63581010981795 M720.3235012449659,398.63581010981795 L725.8966395789547,403.20963287782064 M725.8966395789547,403.20963287782064 L730.4624401332251,409.2043702380188 M730.4624401332251,409.2043702380188 L733.93357970828,416.5017983660746 M733.93357970828,416.5017983660746 L736.2441242425962,424.95886618800233 M736.2441242425962,424.95886618800233 L737.3506705386592,434.4104552590684 M737.3506705386592,434.4104552590684 L737.2330909743482,444.67271008431504 M737.2330909743482,444.67271008431504 L735.8948023991304,455.54654206550845 M735.8948023991304,455.54654206550845 L733.3626125034688,466.8215133787505 M733.3626125034688,466.8215133787505 L729.6861558786752,478.2797904511098 M729.6861558786752,478.2797904511098 L724.9368795914955,489.70028716294553 M724.9368795914955,489.70028716294553 L719.2066785057536,500.86280684171277 M719.2066785057536,500.86280684171277 L712.6061410120066,511.55216849327905 M712.6061410120066,511.55216849327905 L705.2624704579365,521.5622438531225 M705.2624704579365,521.5622438531225 L697.317107516409,530.699808388736 M697.317107516409,530.699808388736 L688.9230925840009,538.7881819200722 M688.9230925840009,538.7881819200722 L680.2422083042603,545.6705888252836 M680.2422083042603,545.6705888252836 L671.4419549221797,551.2131374170831 M671.4419549221797,551.2131374170831 L662.6924046614558,555.3074412596317 M662.6924046614558,555.3074412596317 L654.1629809766375,557.872752128831 M654.1629809766375,557.872752128831 L646.0192360628199,558.8576145188091 M646.0192360628199,558.8576145188091 L638.4196569240561,558.2409978480347 M638.4196569240561,558.2409978480347 L631.5125897745435,556.0328290475486 M631.5125897745435,556.0328290475486 L625.4333201270287,552.2739653700946 M625.4333201270287,552.2739653700946 L620.3013642773617,547.0355811861954 M620.3013642773617,547.0355811861954 L616.2180751157508,540.4179109155434 M616.2180751157508,540.4179109155434 L613.2645224433375,532.5484447190688 M613.2645224433375,532.5484447190688 L611.4998217012709,523.5795618190267 M611.4998217012709,523.5795618190267 L610.9598424800879,513.6855966383542 M514.3112469274184,457.9479970833305 L514.8562896350372,467.62158526098534 M514.8562896350372,467.62158526098534 L516.5734388498701,476.4186330573902 M516.5734388498701,476.4186330573902 L519.4292962087097,484.17545812097103 M519.4292962087097,484.17545812097103 L523.3691453198635,490.74828119871245 M523.3691453198635,490.74828119871245 L528.318094163503,496.0158344466222 M528.318094163503,496.0158344466222 L534.1825694895358,499.88158062550923 M534.1825694895358,499.88158062550923 L540.8521895926791,502.2753278154639 M540.8521895926791,502.2753278154639 L548.2018749905611,503.1544566560858 M548.2018749905611,503.1544566560858 L556.0942533896012,502.50452997854086 M556.0942533896012,502.50452997854086 L564.3822469249247,500.3394465147875 M564.3822469249247,500.3394465147875 L572.9118264529928,496.70103083496565 M572.9118264529928,496.70103083496565 L581.5248387639108,491.6581533638469 M581.5248387639108,491.6581533638469 L590.0619054673872,485.3053654769297 M590.0619054673872,485.3053654769297 L598.3653135936189,477.7610933686242 M598.3653135936189,477.7610933686242 L606.2818518622311,469.16542633693604 M606.2818518622311,469.16542633693604 L613.6655624616027,459.6775369921453 M613.6655624616027,459.6775369921453 L620.3803415506312,449.4728030924526 M620.3803415506312,449.4728030924526 L626.3023749947516,438.73961232099344 M626.3023749947516,438.73961232099344 L631.3223483483674,427.676010458914 M631.3223483483674,427.676010458914 L635.347409964477,416.4861133447397 M635.347409964477,416.4861133447397 L638.3028491541482,405.3765006632268 M638.3028491541482,405.3765006632268 L640.1334711530003,394.5524624262354 M640.1334711530003,394.5524624262354 L640.8046422179857,384.2143032035579 M640.8046422179857,384.2143032035579 L640.4283253934284,375.70393624161505 M640.4283253934284,375.70393624161505 L639.1552310126976,367.83587866710997 M639.1552310126976,367.83587866710997 L637.0026581842006,360.72279823343945 M519.0004251430253,427.893139488133 L518.826420072184,428.49492108265133 M518.826420072184,428.49492108265133 L518.6555938097937,429.0962875343229 M518.6555938097937,429.0962875343229 L518.4879464805485,429.69721045332983 M518.4879464805485,429.69721045332983 L68.85296438385535,503.3993339446531 M514.3112469274184,457.9479970833305 L181.62803937326186,547.8914854376465 M116.27011070521519,526.7271399851476 L108.36457094179127,523.3905414684683 M108.36457094179127,523.3905414684683 L100.62436198693348,519.9295934470018 M100.62436198693348,519.9295934470018 L93.05535994222043,516.3470644837892 M640.8046422179857,384.2143032035579 L646.2068773761619,278.7782028581398 M667.3450779717001,316.32813305450463 L669.3088386911382,321.82925895149174 M669.3088386911382,321.82925895149174 L671.0094375492163,327.36157001519 M671.0094375492163,327.36157001519 L672.4452997937912,332.9208833935932 M277.2066549442873,562.8448619442304 L267.40974217752967,562.0574712359728 M267.40974217752967,562.0574712359728 L257.6557304436978,561.1125963043119 M257.6557304436978,561.1125963043119 L247.95236199437386,560.0110215607868 M592.1656653812528,228.6751376785509 L598.2764513282522,232.96001802536225 M598.2764513282522,232.96001802536225 L604.1839843006147,237.3404843062247 M604.1839843006147,237.3404843062247 L609.8837380689844,241.81340038067086 M632.2672113067304,364.49873032639874 L562.3353329780075,217.63856251540187 M632.2672113067304,364.49873032639874 L628.8114248440073,357.9009145863901 M628.8114248440073,357.9009145863901 L624.3409464770818,352.54709903480705 M624.3409464770818,352.54709903480705 L618.9429918179294,348.54472729424793 M618.9429918179294,348.54472729424793 L612.7233478862736,345.97472334706015 M612.7233478862736,345.97472334706015 L605.8043513552988,344.88982646824286 M605.8043513552988,344.88982646824286 L598.3225472122813,345.3133714596952 M598.3225472122813,345.3133714596952 L590.4260221625901,347.2386820757698 M590.4260221625901,347.2386820757698 L582.2714721378763,350.62905583184613 M582.2714721378763,350.62905583184613 L574.0210847546341,355.41840493235486 M574.0210847546341,355.41840493235486 L565.839269388802,361.51246360706864 M565.839269388802,361.51246360706864 L557.8893246062778,368.79060593831275 M557.8893246062778,368.79060593831275 L550.3301044181056,377.1082483827545 M550.3301044181056,377.1082483827545 L543.3127595106421,386.29971536608844 M543.3127595106421,386.29971536608844 L536.9776344527966,396.18160828651423 M536.9776344527966,396.18160828651423 L531.4513712102465,406.5565497492079 M531.4513712102465,406.5565497492079 L526.8443233675772,417.2172377816128 M526.8443233675772,417.2172377816128 L523.2482870673025,427.9506441822094 M523.2482870673025,427.9506441822094 L73.7026654389191,498.7817365911922 M632.3828616986171,364.78558997250764 L632.3445030151153,364.68978072796375 M632.3445030151153,364.68978072796375 L632.3059508428566,364.5941666885173 M632.3059508428566,364.5941666885173 L632.2672113067304,364.49873032639874 M632.3828616986171,364.78558997250764 L563.9117686686292,218.52720725326742 M636.0816135312992,386.96738252892175 L635.7132524626354,378.90939768936306 M635.7132524626354,378.90939768936306 L634.4744170668715,371.4782361736249 M634.4744170668715,371.4782361736249 L632.3828616986171,364.78558997250764 M636.0816135312992,386.96738252892175 L639.5516346807628,282.7354688668392 M519.0753081655339,455.1709996586919 L519.6267161928673,464.5072844351447 M519.6267161928673,464.5072844351447 L521.3616300449467,472.9503406213997 M521.3616300449467,472.9503406213997 L524.2433343441593,480.32851244913945 M524.2433343441593,480.32851244913945 L528.2116823694773,486.4923570597312 M528.2116823694773,486.4923570597312 L533.1844386972831,491.3176029382766 M533.1844386972831,491.3176029382766 L539.0590657702825,494.70762889709874 M539.0590657702825,494.70762889709874 L545.7149218254087,496.59525573341506 M545.7149218254087,496.59525573341506 L553.0157981431621,496.94398389344286 M553.0157981431621,496.94398389344286 L560.8127541750165,495.74857949319335 M560.8127541750165,495.74857949319335 L568.9471679083381,493.03502838830775 M568.9471679083381,493.03502838830775 L577.2539584167366,488.8598700774835 M577.2539584167366,488.8598700774835 L585.5649065624922,483.30895541344705 M585.5649065624922,483.30895541344705 L593.7120052662784,476.4956123072455 M593.7120052662784,476.4956123072455 L601.5307842753652,468.55833274789796 M601.5307842753652,468.55833274789796 L608.8635472382095,459.65795654296085 M608.8635472382095,459.65795654296085 L615.562466793907,449.9744580141989 M615.562466793907,449.9744580141989 L621.4924709734322,439.7033894861656 M621.4924709734322,439.7033894861656 L626.5338936826223,429.0520221596911 M626.5338936826223,429.0520221596911 L630.5848231735292,418.2352577645865 M630.5848231735292,418.2352577645865 L633.5631233140391,407.4714476622919 M633.5631233140391,407.4714476622919 L635.4080744097307,396.9780543515778 M635.4080744097307,396.9780543515778 L636.0816135312992,386.96738252892175 M519.0753081655339,455.1709996586919 L188.68295042206387,543.9086075322426 M523.1270349434279,428.3767647099931 L520.9138395854328,437.6069197717025 M520.9138395854328,437.6069197717025 L519.5565928430049,446.58354435911946 M519.5565928430049,446.58354435911946 L519.0753081655339,455.1709996586919 M523.1270349434279,428.3767647099931 L75.26886608747947,499.7074259387046 M523.2482870673025,427.9506441822094 L523.2076739532048,428.092724054974 M523.2076739532048,428.092724054974 L523.1672606413872,428.2347571952434 M523.1672606413872,428.2347571952434 L523.1270349434279,428.3767647099931 M519.0753081655339,455.1709996586919 L615.7236720389776,510.8897450036093 M615.7236720389776,510.8897450036093 L616.426893698105,500.5912946427804 M616.426893698105,500.5912946427804 L618.3681219157384,489.77242729109906 M618.3681219157384,489.77242729109906 L621.5065096627269,478.6651844450629 M621.5065096627269,478.6651844450629 L625.7752426687811,467.50808307453775 M625.7752426687811,467.50808307453775 L631.0829483620649,456.54096481836905 M631.0829483620649,456.54096481836905 L637.3156780338331,445.99966729329753 M637.3156780338331,445.99966729329753 L644.3394082468536,436.11079776226995 M644.3394082468536,436.11079776226995 L652.0029856705313,427.0868164019722 M652.0029856705313,427.0868164019722 L660.1414948467063,419.12127094191874 M660.1414948467063,419.12127094191874 L668.5798867297741,412.38462212004634 M668.5798867297741,412.38462212004634 L677.1368602144947,407.0205410486968 M677.1368602144947,407.0205410486968 L685.6288411077218,403.1428511735045 M685.6288411077218,403.1428511735045 L693.8740008810832,400.83309902757065 M693.8740008810832,400.83309902757065 L701.696199064104,400.13897810641316 M701.696199064104,400.13897810641316 L708.9287760640528,401.07340915271175 M708.9287760640528,401.07340915271175 L715.4180957855781,403.61440281473756 M715.4180957855781,403.61440281473756 L721.0267725208525,407.70575327347206 M721.0267725208525,407.70575327347206 L725.6365310314384,413.25836610178055 M725.6365310314384,413.25836610178055 L729.1506108123847,420.1523422720839 M729.1506108123847,420.1523422720839 L731.4956996247105,428.2396695415148 M731.4956996247105,428.2396695415148 L732.6233706934745,437.34744630122043 M732.6233706934745,437.34744630122043 L732.5109760655125,447.28160173117124 M732.5109760655125,447.28160173117124 L731.1620167829997,457.83108980899766 M731.1620167829997,457.83108980899766 L728.6059764932602,468.7722388999976 M728.6059764932602,468.7722388999976 L724.8976261342935,479.8734878031264 M724.8976261342935,479.8734878031264 L720.1158401442036,490.90016868967473 M720.1158401442036,490.90016868967473 L714.3619212114893,501.6193173592168 M714.3619212114893,501.6193173592168 L707.7574948683707,511.80450209841194 M707.7574948683707,511.80450209841194 L700.4420110950194,521.2404528663635 M700.4420110950194,521.2404528663635 L692.5698718308237,529.7275173234179 M692.5698718308237,529.7275173234179 L684.3072704891033,537.0857671074552 M684.3072704891033,537.0857671074552 L675.8287871280437,543.1587860472247 M675.8287871280437,543.1587860472247 L667.3137920546055,547.8169358831337 M667.3137920546055,547.8169358831337 L658.9427384152351,550.9601518508492 M658.9427384152351,550.9601518508492 L650.8933993841321,552.5201464382739 M650.8933993841321,552.5201464382739 L643.3371428782327,552.4619537159286 M643.3371428782327,552.4619537159286 L636.4352810881487,550.7848358220506 M636.4352810881487,550.7848358220506 L630.3356317281275,547.522464364308 M630.3356317281275,547.522464364308 L625.1692867866926,542.7423654877643 M625.1692867866926,542.7423654877643 L621.0477387879231,536.5446743556819 M621.0477387879231,536.5446743556819 L618.0603857480015,529.0601177360621 M618.0603857480015,529.0601177360621 L616.2724925926319,520.4473685656493 M616.2724925926319,520.4473685656493 L615.7236720389776,510.8897450036093" stroke="black"  stroke-width="4"  fill="red"/></svg>