<svg viewBox="0 0 800 800" xmlns="http://www.w3.org/2000/svg"><path d="M639.2592123376929,259.8542381203958 L639.2592145349419,259.8538894510457 M156.63207863564503,537.6964882921056 L156.63207546955925,537.6961365271936 M639.2592123376929,259.8542381203958 L655.4744275871858,269.7141349466441 M655.4744275871858,269.7141349466441 L670.4757611257558,280.20505392657367 M670.4757611257558,280.20505392657367 L684.1893285708422,291.27828694063265 M684.1893285708422,291.27828694063265 L696.546930684977,302.8822191760425 M696.546930684977,302.8822191760425 L707.486447573519,314.962504938346 M707.486447573519,314.962504938346 L716.9520983950293,327.46234523840826 M716.9520983950293,327.46234523840826 L724.8949090852997,340.3226192058315 M724.8949090852997,340.3226192058315 L731.2728200654296,353.48228007272735 M731.2728200654296,353.48228007272735 L736.0511017470646,366.87848158049445 M736.0511017470646,366.87848158049445 L739.2025302068628,380.4469494006459 M739.2025302068628,380.4469494006459 L740.707585230362,394.12223794860364 M740.707585230362,394.12223794860364 L740.5546318723088,407.8380485015655 M740.5546318723088,407.8380485015655 L738.7400997164901,421.5275394505474 M738.7400997164901,421.5275394505474 L735.268547907416,435.12363207806374 M735.268547907416,435.12363207806374 L730.1527191274902,448.55938559201775 M730.1527191274902,448.55938559201775 L723.4136009448526,461.76829423427296 M723.4136009448526,461.76829423427296 L715.08033258312,474.6846398350381 M715.08033258312,474.6846398350381 L705.1902268857949,487.24386291136074 M705.1902268857949,487.24386291136074 L693.7885794080291,499.38288436167124 M693.7885794080291,499.38288436167124 L680.9285280206814,511.0404390035466 M680.9285280206814,511.0404390035466 L666.6709014255937,522.1574693116668 M666.6709014255937,522.1574693116668 L651.0838291287747,532.677369599149 M651.0838291287747,532.677369599149 L634.2425912458555,542.5463989309371 M634.2425912458555,542.5463989309371 L616.2291637586962,551.713938600343 M616.2291637586962,551.713938600343 L597.131828555472,560.1327855455852 M597.131828555472,560.1327855455852 L577.0448278287466,567.7594927385085 M577.0448278287466,567.7594927385085 L556.0677278816862,574.5545408920159 M556.0677278816862,574.5545408920159 L534.3050538027326,580.4826547325408 M534.3050538027326,580.4826547325408 L511.865641082312,585.5129853736539 M511.865641082312,585.5129853736539 L488.8620674553055,589.6192876259929 M488.8620674553055,589.6192876259929 L465.4100816888524,592.7801271636592 M465.4100816888524,592.7801271636592 L441.6279221215482,594.9789612722284 M441.6279221215482,594.9789612722284 L417.63564460780646,596.2042835275195 M417.63564460780646,596.2042835275195 L393.55452591817397,596.449671309957 M393.55452591817397,596.449671309957 L369.50631098118515,595.7138313228065 M369.50631098118515,595.7138313228065 L345.6125636285534,594.0006292156065 M345.6125636285534,594.0006292156065 L321.9939947470283,591.3190417361204 M321.9939947470283,591.3190417361204 L298.76976426011424,587.6830965118706 M298.76976426011424,587.6830965118706 L276.05688203303487,583.1117895572431 M276.05688203303487,583.1117895572431 L253.96939946300463,577.6290048777792 M253.96939946300463,577.6290048777792 L232.61803317566455,571.2632765828012 M232.61803317566455,571.2632765828012 L212.1093096275249,564.0477235556857 M212.1093096275249,564.0477235556857 L192.54518437148664,556.0197554870881 M192.54518437148664,556.0197554870881 L174.02240724094645,547.2208917393953 M174.02240724094645,547.2208917393953 L156.63207863564503,537.6964882921056 M639.2592145349419,259.8538894510457 L655.4744299642714,269.7137861655791 M655.4744299642714,269.7137861655791 L670.4757636696387,280.2047050267945 M670.4757636696387,280.2047050267945 L684.1893312676536,291.2779379157181 M684.1893312676536,291.2779379157181 L696.5469335200735,302.88187002018066 M696.5469335200735,302.88187002018066 L707.4864505315415,314.96215564636293 M707.4864505315415,314.96215564636293 L716.952101459967,327.46199580579304 M716.952101459967,327.46199580579304 L724.8949122405573,340.3222696287586 M724.8949122405573,340.3222696287586 L731.272823293899,353.48193034807497 M731.272823293899,353.48193034807497 L736.0511050312,366.87813170586065 M736.0511050312,366.87813170586065 L739.2025335287608,380.44659937435983 M739.2025335287608,380.44659937435983 L740.7075885718428,394.12188776973375 M740.7075885718428,394.12188776973375 L740.5546352150023,407.83769816992435 M740.5546352150023,407.83769816992435 L738.7401030419243,421.52718896669256 M738.7401030419243,421.52718896669256 L735.2685511971076,435.12328144329496 M735.2685511971076,435.12328144329496 L730.1527223630375,448.5590348083707 M730.1527223630375,448.5590348083707 L723.4136041080291,461.76794330450923 M723.4136041080291,461.76794330450923 L715.080335655969,474.6842887626317 M715.080335655969,474.6842887626317 L705.1902298507259,487.2435117004809 M705.1902298507259,487.2435117004809 L693.7885822479124,499.3825330171623 M693.7885822479124,499.3825330171623 L680.9285307189418,511.04008753090403 M680.9285307189418,511.04008753090403 L666.6709039663039,522.1571177170101 M666.6709039663039,522.1571177170101 L651.0838314967451,532.6770178891925 M651.0838314967451,532.6770178891925 L634.2425934267217,542.5460471129561 M634.2425934267217,542.5460471129561 L616.2291657390034,551.7135866821386 M616.2291657390034,551.7135866821386 L597.1318303227537,560.1324335354473 M597.1318303227537,560.1324335354473 L577.0448293715996,567.7591406451729 M577.0448293715996,567.7591406451729 L556.0677291898392,574.554188724624 M556.0677291898392,574.554188724624 L534.305054867109,580.4823025005944 M534.305054867109,580.4823025005944 L511.86564189508573,585.5126330869682 M511.86564189508573,585.5126330869682 L488.86206800994944,589.6189352946492 M488.86206800994944,589.6189352946492 L465.41008198017886,592.7797747979564 M465.41008198017886,592.7797747979564 L441.62792214574176,594.9786088826318 M441.62792214574176,594.9786088826318 L417.6356443624477,596.203931124611 M417.6356443624477,596.203931124611 L393.5545254022549,596.4493189043828 M393.5545254022549,596.4493189043828 L369.5063101951155,595.7134789252261 M369.5063101951155,595.7134789252261 L345.61256257415806,594.0002768366403 M345.61256257415806,594.0002768366403 L321.993993427536,591.3186893862983 M321.993993427536,591.3186893862983 L298.7697626801371,587.682744201581 M298.7697626801371,587.682744201581 L276.0568801985403,583.1114372966824 M276.0568801985403,583.1114372966824 L253.96939738127656,577.6286526769015 M253.96939738127656,577.6286526769015 L232.6180308552601,571.2629244512711 M232.6180308552601,571.2629244512711 L212.10930707822027,564.0473715028306 M212.10930707822027,564.0473715028306 L192.54518160421816,556.0194035218519 M192.54518160421816,556.0194035218519 L174.0224042677437,547.2205398702959 M174.0224042677437,547.2205398702959 L156.63207546955925,537.6961365271936 M156.63207863564503,537.6964882921056 L140.45913339240542,527.4954933905401 M140.45913339240542,527.4954933905401 L125.58197883286431,516.6701192571306 M125.58197883286431,516.6701192571306 L112.07208832636769,505.2755887182114 M112.07208832636769,505.2755887182114 L99.99369461216509,493.3697689042057 M99.99369461216509,493.3697689042057 L89.40347496347039,481.0128768308163 M89.40347496347039,481.0128768308163 L80.35041515215897,468.26709494634883 M80.35041515215897,468.26709494634883 L72.87545074213261,455.19632694716955 M72.87545074213261,455.19632694716955 L67.01155485202639,441.8657245021634 M67.01155485202639,441.8657245021634 L62.783435482481536,428.3414500860416 M62.783435482481536,428.3414500860416 L60.20761609705551,414.6902730241052 M60.20761609705551,414.6902730241052 L59.29241564722656,400.9792480061714 M59.29241564722656,400.9792480061714 L60.037979621279476,387.2753623183898 M60.037979621279476,387.2753623183898 L62.43636938577782,373.6452388040108 M62.43636938577782,373.6452388040108 L66.47166366720057,360.1548010986152 M66.47166366720057,360.1548010986152 L72.1201159438267,346.86891477807393 M72.1201159438267,346.86891477807393 L79.35042997025323,333.85120282738137 M79.35042997025323,333.85120282738137 L88.12384993585721,321.16363040180806 M88.12384993585721,321.16363040180806 L98.39450810165698,308.86631246659084 M98.39450810165698,308.86631246659084 L110.1097239336462,297.01724507913246 M110.1097239336462,297.01724507913246 L123.21024309799645,285.6720442220795 M123.21024309799645,285.6720442220795 L137.63055606794063,274.8836896347176 M137.63055606794063,274.8836896347176 L153.2993630817461,264.7023898063825 M153.2993630817461,264.7023898063825 L170.13979152554725,255.17529607980845 M170.13979152554725,255.17529607980845 L188.06987850166038,246.34637183770027 M188.06987850166038,246.34637183770027 L207.002960741427,238.2562283093444 M207.002960741427,238.2562283093444 L226.84799226987516,230.94191485790944 M226.84799226987516,230.94191485790944 L247.5101132587648,224.43686837003116 M247.5101132587648,224.43686837003116 L268.89094019865473,218.77072501941453 M268.89094019865473,218.77072501941453 L290.8890468465469,213.96922050855179 M290.8890468465469,213.96922050855179 L313.40043339037226,210.05413759361997 M313.40043339037226,210.05413759361997 L336.3189889517425,207.0432203031944 M336.3189889517425,207.0432203031944 L359.5368028512272,204.95005919602679 M359.5368028512272,204.95005919602679 L382.944839140025,203.7841226500936 M382.944839140025,203.7841226500936 L406.4331956629775,203.55067671883592 M406.4331956629775,203.55067671883592 L429.89164481539,204.25076892034897 M429.89164481539,204.25076892034897 L453.2101157195936,205.88123670382717 M453.2101157195936,205.88123670382717 L476.2790969930107,208.43471455941017 M476.2790969930107,208.43471455941017 L498.9901218278552,211.8996658996233 M498.9901218278552,211.8996658996233 L521.2361888656856,216.26043348724323 M521.2361888656856,216.26043348724323 L542.912314388225,221.49722411838363 M542.912314388225,221.49722411838363 L563.9157960689244,227.58629509343103 M563.9157960689244,227.58629509343103 L584.1468733732578,234.49991328783295 M584.1468733732578,234.49991328783295 L603.5089999787226,242.20655013311412 M603.5089999787226,242.20655013311412 L621.9093557926841,250.6709419326047 M621.9093557926841,250.6709419326047 L639.2592123376929,259.8542381203958 M156.63207546955925,537.6961365271936 L140.45913004743147,527.4951417373583 M140.45913004743147,527.4951417373583 L125.58197532385913,516.6697677226782 M125.58197532385913,516.6697677226782 L112.07208466896361,505.27523730890914 M112.07208466896361,505.27523730890914 L99.99369082268112,493.3694176258646 M99.99369082268112,493.3694176258646 L89.40347105881966,481.01252568860923 M89.40347105881966,481.01252568860923 L80.35041114975627,468.2667439447857 M80.35041114975627,468.2667439447857 L72.875446659798,455.195976090074 M72.875446659798,455.195976090074 L67.01155070789122,441.8653737926553 M67.01155070789122,441.8653737926553 L62.78343129489224,428.3410995265211 M62.78343129489224,428.3410995265211 L60.207611884479036,414.68992261624106 M60.207611884479036,414.68992261624106 L59.29241142815721,400.97889775089277 M59.29241142815721,400.97889775089277 L60.037975414147354,387.2750122158819 M60.037975414147354,387.2750122158819 L62.436365208859286,373.6448888537138 M62.436365208859286,373.6448888537138 L66.47165953853107,360.15445129922693 M66.47165953853107,360.15445129922693 L72.12011188111705,346.86856512755685 M72.12011188111705,346.86856512755685 L79.35042599080907,333.8508533229718 M79.35042599080907,333.8508533229718 L88.1238460565018,321.16328104003037 M88.1238460565018,321.16328104003037 L98.39450433865761,308.8659632432744 M98.39450433865761,308.8659632432744 L110.10972030264577,297.0168959894316 M110.10972030264577,297.0168959894316 L123.21023961394735,285.67169526049787 M123.21023961394735,285.67169526049787 L137.6305527450437,274.88334079513504 M137.6305527450437,274.88334079513504 L153.29935993339453,264.7020410820846 M153.29935993339453,264.7020410820846 L170.13978856427332,255.17494746351983 M170.13978856427332,255.17494746351983 L188.0698757390876,246.34602332161992 M188.0698757390876,246.34602332161992 L207.00295818822644,238.25587988518362 M207.00295818822644,238.25587988518362 L226.84798993572548,230.94156651693257 M226.84798993572548,230.94156651693257 L247.5101111523176,224.436520103098 M247.5101111523176,224.436520103098 L268.8909383275029,218.77037681702495 M268.8909383275029,218.77037681702495 L290.8890452171978,213.96887236089194 M290.8890452171978,213.96887236089194 L313.40043200822515,210.0537894906101 M313.40043200822515,210.0537894906101 L336.3189878210701,207.04287223453747 M336.3189878210701,207.04287223453747 L359.5368019751601,204.9497111512592 M359.5368019751601,204.9497111512592 L382.94483852054225,203.78377461863562 M382.94483852054225,203.78377461863562 L406.433195300899,203.55032869004302 M406.433195300899,203.55032869004302 L429.891644710374,204.2504208835638 M429.891644710374,204.2504208835638 L453.2101158701382,205.8808886484312 M453.2101158701382,205.8808886484312 L476.2790973964586,208.43436647487547 M476.2790973964586,208.43436647487547 L498.9901224804034,211.89931777556308 M498.9901224804034,211.89931777556308 L521.2361897623973,216.26008531346304 M521.2361897623973,216.26008531346304 L542.9123155230482,221.49687588493063 M542.9123155230482,221.49687588493063 L563.9157974347116,227.5859467906421 M563.9157974347116,227.5859467906421 L584.1468749617928,234.49956490638243 M584.1468749617928,234.49956490638243 L603.5090017807486,242.20620166405865 M603.5090017807486,242.20620166405865 L621.9093577979377,250.67059336742682 M621.9093577979377,250.67059336742682 L639.2592145349419,259.8538894510457 M349.92984032912835,471.99625107910254 L349.92983933092785,471.99590003636615 M528.4356314286913,368.9358845358627 L528.4356324139308,368.9355346382171 M349.92984032912835,471.99625107910254 L340.1798150438818,465.6265928592513 M340.1798150438818,465.6265928592513 L331.78406432740593,458.6478237476138 M331.78406432740593,458.6478237476138 L324.85517393387966,451.1558032862809 M324.85517393387966,451.1558032862809 L319.4853114141737,443.25317145058744 M319.4853114141737,443.25317145058744 L315.745092494899,435.0478663110807 M315.745092494899,435.0478663110807 L313.682703037868,426.6516402841372 M313.682703037868,426.6516402841372 L313.3234035485958,418.17846880651274 M313.3234035485958,418.17846880651274 L314.66931938413836,409.7430188642113 M314.66931938413836,409.7430188642113 L317.69956814082065,401.45907673519656 M317.69956814082065,401.45907673519656 L322.37067538422724,393.4380304469537 M322.37067538422724,393.4380304469537 L328.61729465059346,385.78740058882374 M328.61729465059346,385.78740058882374 L336.3532164152081,378.6094336149722 M336.3532164152081,378.6094336149722 L345.47263347262907,371.99979449711844 M345.47263347262907,371.99979449711844 L355.8516017295611,366.0463324497162 M355.8516017295611,366.0463324497162 L367.3497825440807,360.8279883598938 M367.3497825440807,360.8279883598938 L379.81233195295806,356.4138148392209 M379.81233195295806,356.4138148392209 L393.0719363460228,352.86210353952373 M393.0719363460228,352.86210353952373 L406.9510371545573,350.21969036004583 M406.9510371545573,350.21969036004583 L421.2641212261236,348.5213811321885 M421.2641212261236,348.5213811321885 L435.8201208056321,347.7895249207539 M435.8201208056321,347.7895249207539 L450.42486098583925,348.0337453916668 M450.42486098583925,348.0337453916668 L464.8835351048288,349.25083129633106 M464.8835351048288,349.25083129633106 L479.00322661974053,351.42477018841254 M479.00322661974053,351.42477018841254 L492.5953232405473,354.52694723324663 M492.5953232405473,354.52694723324663 L505.47800866942777,358.51647595100735 M505.47800866942777,358.51647595100735 L517.4785577094876,363.34071303523916 M517.4785577094876,363.34071303523916 L528.4356314286913,368.9358845358627 M349.92983933092785,471.99590003636615 L340.17981393743815,465.6262418868535 M340.17981393743815,465.6262418868535 L331.78406312793754,458.6474728523464 M331.78406312793754,458.6474728523464 L324.8551726578414,451.15545247389286 M324.8551726578414,451.15545247389286 L319.48531007902153,443.25282072570684 M319.48531007902153,443.25282072570684 L315.7450911188437,435.04751567715215 M315.7450911188437,435.04751567715215 L313.6827016396199,426.6512897433753 M313.6827016396199,426.6512897433753 L313.32340214710695,418.17811835987186 M313.32340214710695,418.17811835987186 L314.6693179983438,409.7426685113729 M314.6693179983438,409.7426685113729 L317.69956678938365,401.45872647457355 M317.69956678938365,401.45872647457355 L322.3706740852913,393.4376802757117 M322.3706740852913,393.4376802757117 L328.6172934215436,385.7870505029195 M328.6172934215436,385.7870505029195 L336.35321527244645,378.6090836092084 M336.35321527244645,378.6090836092084 L345.47263243136416,371.9994445652143 M345.47263243136416,371.9994445652143 L355.8516008036156,366.04598258439165 M355.8516008036156,366.04598258439165 L367.3497817457184,360.82763855296906 M367.3497817457184,360.82763855296906 L379.812331292732,356.41346508172603 M379.812331292732,356.41346508172603 L393.07193583264495,352.86175382182097 M393.07193583264495,352.86175382182097 L406.9510367947928,350.2193406719592 M406.9510367947928,350.2193406719592 L421.2641210247086,348.5210314631417 M421.2641210247086,348.5210314631417 L435.82012076521613,347.78917525991324 M435.82012076521613,347.78917525991324 L450.42486110695404,348.0333957280876 M450.42486110695404,348.0333957280876 L464.88353538588126,349.25048161910587 M464.88353538588126,349.25048161910587 L479.0032270570322,351.4244204868182 M479.0032270570322,351.4244204868182 L492.59532382831884,354.52659749688934 M492.59532382831884,354.52659749688934 L505.47800939992885,358.5161261699634 M505.47800939992885,358.5161261699634 L517.4785585730709,363.3403632001891 M517.4785585730709,363.3403632001891 L528.4356324139308,368.9355346382171 M528.4356314286913,368.9358845358627 L538.2013793884687,375.22788623245043 M538.2013793884687,375.22788623245043 L546.6434474077062,382.13318567467593 M546.6434474077062,382.13318567467593 L553.6467526663187,389.55988396771926 M553.6467526663187,389.55988396771926 L559.1151156946496,397.40886259337674 M559.1151156946496,397.40886259337674 L562.9726107472385,405.5750757547954 M562.9726107472385,405.5750757547954 L565.1647295023865,413.948878429713 M565.1647295023865,413.948878429713 L565.6592180473233,422.4175039283214 M565.6592180473233,422.4175039283214 L564.446663111435,430.8665303339351 M564.446663111435,430.8665303339351 L561.5407577997361,439.1814394987788 M561.5407577997361,439.1814394987788 L556.9782733209205,447.2491740535008 M556.9782733209205,447.2491740535008 L550.8187003239128,454.959696554611 M550.8187003239128,454.959696554611 L543.1435556464479,462.2075318700614 M543.1435556464479,462.2075318700614 L534.0553697305514,468.8932484631719 M534.0553697305514,468.8932484631719 L523.6764029095268,474.92489587171946 M523.6764029095268,474.92489587171946 L512.1469935198307,480.2193182361885 M512.1469935198307,480.2193182361885 L499.623668738732,484.70336138719074 M499.623668738732,484.70336138719074 L486.2770185749942,488.3149669656941 M486.2770185749942,488.3149669656941 L472.28929417822303,491.0040700195989 M472.28929417822303,491.0040700195989 L457.85186469091445,492.7333474792575 M457.85186469091445,492.7333474792575 L443.1625015131285,493.4787806866863 M443.1625015131285,493.4787806866863 L428.4225694248599,493.2300140464529 M428.4225694248599,493.2300140464529 L413.8341636083876,491.99050389145964 M413.8341636083876,491.99050389145964 L399.59719452425287,489.7774716400203 M399.59719452425287,489.7774716400203 L385.90659722784056,486.62163969254686 M385.90659722784056,486.62163969254686 L372.94949807134157,482.56678730237667 M372.94949807134157,482.56678730237667 L360.9026339284583,477.66907945689604 M360.9026339284583,477.66907945689604 L349.92984032912835,471.99625107910254 M528.4356324139308,368.9355346382171 L538.2013804823009,375.22753626446615 M538.2013804823009,375.22753626446615 L546.6434485955924,382.1328356295612 M546.6434485955924,382.1328356295612 L553.6467539324284,389.55953383972513 M553.6467539324284,389.55953383972513 L559.115117022062,397.4085123778752 M559.115117022062,397.4085123778752 L562.9726121181604,405.5747254483418 M562.9726121181604,405.5747254483418 L565.164730898384,413.94852803009275 M565.164730898384,413.94852803009275 L565.6592194495656,422.4171534345801 M565.6592194495656,422.4171534345801 L564.4466645009468,430.8661797463913 M564.4466645009468,430.8661797463913 L561.5407591576533,439.1810888190197 M561.5407591576533,439.1810888190197 L556.9782746287507,447.24882328436064 M556.9782746287507,447.24882328436064 L550.8187015637913,454.9593457001331 M550.8187015637913,454.9593457001331 L543.1435568013889,462.20718093544303 M543.1435568013889,462.20718093544303 L534.0553707846896,468.89289745469404 M534.0553707846896,468.89289745469404 L523.6764038483457,474.92454479666196 M523.6764038483457,474.92454479666196 L512.1469943303724,480.21896710273137 M512.1469943303724,480.21896710273137 L499.62366940978694,484.7030102043036 M499.62366940978694,484.7030102043036 L486.27701909726653,488.31461574301494 M486.27701909726653,488.31461574301494 L472.28929454446813,491.0037187673037 M472.28929454446813,491.0037187673037 L457.85186489604683,492.7329962079224 M457.85186489604683,492.7329962079224 L443.16250155429805,493.47842940714526 M443.16250155429805,493.47842940714526 L428.42256930149443,493.22966276965013 M428.42256930149443,493.22966276965013 L413.8341633222015,491.990152628303 M413.8341633222015,491.990152628303 L399.59719407922125,489.7771204012328 M399.59719407922125,489.7771204012328 L385.90659663014026,486.6212884885222 M385.90659663014026,486.6212884885222 L372.94949732925807,482.56643614303863 M372.94949732925807,482.56643614303863 L360.9026330522633,477.6687283515641 M360.9026330522633,477.6687283515641 L349.92983933092785,471.99590003636615" stroke="black"  stroke-width="4"  fill="red"/></svg>