<svg viewBox="0 0 800 800" xmlns="http://www.w3.org/2000/svg"><path d="M37.618254965991014,524.0098684608646 L223.23849452792405,417.1980127019361 M223.20809925471235,409.37187316123305 L223.23849452792405,417.1980127019361 M37.54611946616433,516.1601755669395 L223.20809925471235,409.37187316123305 M37.618254965991014,524.0098684608646 L37.54611946616433,516.1601755669395 M37.618254965991014,524.0098684608646 L56.854470861452796,535.0825152597822 M56.854470861452796,535.0825152597822 L77.42939071371399,545.3385501650504 M77.42939071371399,545.3385501650504 L99.23875653581649,554.7234717389697 M99.23875653581649,554.7234717389697 L122.17142709999655,563.1872227342802 M122.17142709999655,563.1872227342802 L146.1099185731432,570.6845295344101 M146.1099185731432,570.6845295344101 L170.93102249627935,577.175180871091 M170.93102249627935,577.175180871091 L196.50649235833404,582.6243009238434 M196.50649235833404,582.6243009238434 L222.70376514254207,587.0025351957573 M222.70376514254207,587.0025351957573 L249.38672236326119,590.2862741406406 M249.38672236326119,590.2862741406406 L276.41646740192334,592.4577632728025 M276.41646740192334,592.4577632728025 L303.6520466639522,593.5052873768776 M303.6520466639522,593.5052873768776 L330.95132900317117,593.4231575063309 M330.95132900317117,593.4231575063309 L358.171862545743,592.2118395177987 M358.171862545743,592.2118395177987 L385.17160939775783,589.8778770066731 M385.17160939775783,589.8778770066731 L411.8098089933283,586.4338793469343 M411.8098089933283,586.4338793469343 L437.9478239741276,581.8984454716256 M437.9478239741276,581.8984454716256 L463.44985464778483,576.2960429746299 M463.44985464778483,576.2960429746299 L488.18379340372303,569.6568357087413 M488.18379340372303,569.6568357087413 L512.0218838661315,562.0164875414847 M512.0218838661315,562.0164875414847 L534.8415451608521,553.4159756599795 M534.8415451608521,553.4159756599795 L556.5258886096516,543.9012627953387 M556.5258886096516,543.9012627953387 L576.9645273723421,533.5230881663806 M576.9645273723421,533.5230881663806 L596.0539975532279,522.3365901195544 M596.0539975532279,522.3365901195544 L613.6983820381474,510.4009955864145 M613.6983820381474,510.4009955864145 L629.809771039344,497.7792716438146 M629.809771039344,497.7792716438146 L644.30863706409,484.5376957884467 M644.30863706409,484.5376957884467 L657.1243099025904,470.74555780198847 M657.1243099025904,470.74555780198847 L668.195148066577,456.4746534302755 M668.195148066577,456.4746534302755 L677.4689076368064,441.79896326934954 M677.4689076368064,441.79896326934954 L684.9028633047668,426.79417174560183 M684.9028633047668,426.79417174560183 L690.4639477927718,411.5372980376053 M690.4639477927718,411.5372980376053 L694.1288529552429,396.1062316017461 M694.1288529552429,396.1062316017461 L695.8840531849825,380.57936401964605 M695.8840531849825,380.57936401964605 L695.7257638653825,365.0351605148125 M695.7257638653825,365.0351605148125 L693.6598065641432,349.5517353017631 M693.6598065641432,349.5517353017631 L689.7016043223965,334.2065123516179 M689.7016043223965,334.2065123516179 L683.8758493148216,319.0758263767824 M683.8758493148216,319.0758263767824 L676.2164329090119,304.23451989906437 M676.2164329090119,304.23451989906437 L666.7660693212296,289.75563549403984 M666.7660693212296,289.75563549403984 L655.5760697747239,275.71008017181083 M655.5760697747239,275.71008017181083 L642.705951667297,262.1663000512919 M642.705951667297,262.1663000512919 L628.2231380869237,249.18997694118622 M628.2231380869237,249.18997694118622 L612.2025360982788,236.84374124281868 M612.2025360982788,236.84374124281868 L594.7261304763765,225.1869184101836 M594.7261304763765,225.1869184101836 L575.8824980519304,214.27531134377088 M394.52694432246676,318.6331297139432 L575.8824980519304,214.27531134377088 M223.23849452792405,417.1980127019361 L228.02015480351082,426.04059959348973 M228.02015480351082,426.04059959348973 L234.51659580873434,434.5158036418266 M234.51659580873434,434.5158036418266 L242.6456381109724,442.5126785611007 M242.6456381109724,442.5126785611007 L252.30345729615192,449.92624050869347 M252.30345729615192,449.92624050869347 L263.3658092461148,456.658921293539 M263.3658092461148,456.658921293539 L275.6896260474223,462.62190087766857 M275.6896260474223,462.62190087766857 L289.11485712297696,467.73634417382164 M289.11485712297696,467.73634417382164 L303.46657067359706,471.9345069436449 M303.46657067359706,471.9345069436449 L318.55725755333344,475.16069482577757 M318.55725755333344,475.16069482577757 L334.1893552041227,477.3720674006929 M334.1893552041227,477.3720674006929 L350.15793756461466,478.5392092831046 M350.15793756461466,478.5392092831046 L366.25347244945027,478.64660750722396 M366.25347244945027,478.64660750722396 L382.26469922896564,477.69283486054064 M382.26469922896564,477.69283486054064 L397.98151262813815,475.69056933623784 M397.98151262813815,475.69056933623784 L413.19782299430193,472.6664420472615 M413.19782299430193,472.6664420472615 L427.7143567404486,468.6606245294941 M427.7143567404486,468.6606245294941 L441.34137310658923,463.7262718254674 M441.34137310658923,463.7262718254674 L453.9011978375885,457.9287651031365 M453.9011978375885,457.9287651031365 L465.23059494787447,451.34478016735727 M465.23059494787447,451.34478016735727 L475.1829091337372,444.06121639538145 M475.1829091337372,444.06121639538145 L483.6299669908824,436.1739825314502 M483.6299669908824,436.1739825314502 L490.4636896908605,427.78667296769714 M490.4636896908605,427.78667296769714 L495.59743595309624,419.00914586559185 M495.59743595309624,419.00914586559185 L498.96703016781214,409.9560448335633 M498.96703016781214,409.9560448335633 L500.53144510363165,400.7452526960407 M500.53144510363165,400.7452526960407 L500.27325081992467,391.49633338758133 M500.27325081992467,391.49633338758133 L498.19864365536307,382.3289725616369 M498.19864365536307,382.3289725616369 L494.33722048631023,373.36143280363234 M494.33722048631023,373.36143280363234 L488.7415210291987,364.7090343299106 M488.7415210291987,364.7090343299106 L481.4861224553134,356.48271906634614 M481.4861224553134,356.48271906634614 L472.66663335986254,348.78765993222504 M472.66663335986254,348.78765993222504 L462.39834920295436,341.7219633511555 M462.39834920295436,341.7219633511555 L450.8147003593644,335.3754878564312 M450.8147003593644,335.3754878564312 L438.0655006757724,329.82876124016644 M438.0655006757724,329.82876124016644 L424.3150155220187,325.1520229133072 M424.3150155220187,325.1520229133072 L409.73989888773013,321.4043778023905 M409.73989888773013,321.4043778023905 L394.52694432246676,318.6331297139432 M49.49143886550604,523.0649812660919 L217.51022409665757,426.34943701672074 M217.51022409665757,426.34943701672074 L223.99535726933226,435.35912848584087 M223.99535726933226,435.35912848584087 L232.18973673657092,443.89759759621415 M232.18973673657092,443.89759759621415 L241.99257666866532,451.8565609152938 M241.99257666866532,451.8565609152938 L253.2823393616809,459.13480680242463 M253.2823393616809,459.13480680242463 L265.91822490683035,465.63953792427674 M265.91822490683035,465.63953792427674 L279.74189138834913,471.28763318380953 M279.74189138834913,471.28763318380953 L294.5794620441374,476.0067722069663 M294.5794620441374,476.0067722069663 L310.2437587988786,479.73641180700906 M310.2437587988786,479.73641180700906 L326.5367124633001,482.4286495887742 M326.5367124633001,482.4286495887742 L343.25194911305533,484.0488668334914 M343.25194911305533,484.0488668334914 L360.1775199763659,484.5762145680294 M360.1775199763659,484.5762145680294 L377.0986841098102,484.0039071041004 M377.0986841098102,484.0039071041004 L393.80076303012004,482.3393003017682 M393.80076303012004,482.3393003017682 L410.0719886893344,479.60382355459365 M410.0719886893344,479.60382355459365 L425.7062627601501,475.8326457175078 M425.7062627601501,475.8326457175078 L440.50592449601703,471.07421073372177 M440.50592449601703,471.07421073372177 L454.28428696576077,465.38955451018893 M454.28428696576077,465.38955451018893 L466.868060129552,458.8514549949704 M466.868060129552,458.8514549949704 L478.09959717823335,451.54346198324396 M478.09959717823335,451.54346198324396 L487.8388373138365,443.5587335355584 M487.8388373138365,443.5587335355584 L495.96508574022823,434.99880618733977 M495.96508574022823,434.99880618733977 L502.37842289382013,425.9722232569306 M502.37842289382013,425.9722232569306 L507.0008831959026,416.59309820733677 M507.0008831959026,416.59309820733677 L509.77733814541455,406.9796515907246 M509.77733814541455,406.9796515907246 L510.67600911631564,397.25265322045925 M510.67600911631564,397.25265322045925 L509.6887774280042,387.5339057635231 M509.6887774280042,387.5339057635231 L506.8310715375211,377.94470975216365 M506.8310715375211,377.94470975216365 L502.14154865162527,368.60435160303746 M502.14154865162527,368.60435160303746 L495.6814615660694,359.62865285278207 M495.6814615660694,359.62865285278207 L487.533755557325,351.12856174254944 M487.533755557325,351.12856174254944 L477.8019596003803,343.2088308781897 M477.8019596003803,343.2088308781897 L466.60876192951736,335.96679100061226 M466.60876192951736,335.96679100061226 L454.09445082267956,329.4912132920146 M454.09445082267956,329.4912132920146 L440.4151537717396,323.8612812511731 M440.4151537717396,323.8612812511731 L425.7408838640799,319.1457004680471 M425.7408838640799,319.1457004680471 L410.25347914201865,315.4019094146032 M410.25347914201865,315.4019094146032 L574.3679524329397,220.93377847499508 M49.49143886550604,523.0649812660919 L68.80928431575188,533.7589791687999 M68.80928431575188,533.7589791687999 L89.43130811844753,543.6244987994304 M89.43130811844753,543.6244987994304 L111.25061366333193,552.6079933073528 M111.25061366333193,552.6079933073528 L134.15348649510634,560.6605284505 M134.15348649510634,560.6605284505 L158.01992641065442,567.7381435215699 M158.01992641065442,567.7381435215699 L182.72434131315825,573.8021088149706 M182.72434131315825,573.8021088149706 L208.13633873583478,578.819132838201 M208.13633873583478,578.819132838201 L234.12132182225793,582.7616530021769 M234.12132182225793,582.7616530021769 L260.541359843969,585.6079803215335 M260.541359843969,585.6079803215335 L287.2559722035412,587.3424233556715 M287.2559722035412,587.3424233556715 L314.12297011794925,587.9554306059763 M314.12297011794925,587.9554306059763 L340.9992135792844,587.4436078648739 M340.9992135792844,587.4436078648739 L367.7415670712665,585.8097777245416 M367.7415670712665,585.8097777245416 L394.2076338218931,583.06295918364 M394.2076338218931,583.06295918364 L420.2566960285722,579.2182751056515 M420.2566960285722,579.2182751056515 L445.7504405692302,574.2969097765789 M445.7504405692302,574.2969097765789 L470.55383887794767,568.3258849473682 M470.55383887794767,568.3258849473682 L494.535859618736,561.3379787735067 M494.535859618736,561.3379787735067 L517.5703040640217,553.3714500203175 M517.5703040640217,553.3714500203175 L539.5364304377315,544.4698085747756 M539.5364304377315,544.4698085747756 L560.3196340644139,534.6815224434679 M560.3196340644139,534.6815224434679 L579.8121778918879,524.059771788441 M579.8121778918879,524.059771788441 L597.9135792992296,512.6620092067379 M597.9135792992296,512.6620092067379 L614.5313341213933,500.54972182667586 M614.5313341213933,500.54972182667586 L629.5811753487992,487.7879371115239 M629.5811753487992,487.7879371115239 L642.9876630012376,474.44493717942356 M642.9876630012376,474.44493717942356 L654.684424658065,460.59179035789094 M654.684424658065,460.59179035789094 L664.6144669212354,446.3019282669305 M664.6144669212354,446.3019282669305 L672.7303730197935,431.6507720606853 M672.7303730197935,431.6507720606853 L678.9945752719959,416.71525424361437 M678.9945752719959,416.71525424361437 L683.3793000277726,401.57342855994943 M683.3793000277726,401.57342855994943 L685.8667606769553,386.3040001668489 M685.8667606769553,386.3040001668489 L686.4490546039526,370.9859598809563 M686.4490546039526,370.9859598809563 L685.1281574180745,355.6981101586646 M685.1281574180745,355.6981101586646 L681.9158146730962,340.51872150080226 M681.9158146730962,340.51872150080226 L676.8333167514627,325.52507366517824 M676.8333167514627,325.52507366517824 L669.9113700681881,310.793119235857 M669.9113700681881,310.793119235857 L661.1897807537702,296.3971055696369 M661.1897807537702,296.3971055696369 L650.7171961407731,282.40923421844275 M650.7171961407731,282.40923421844275 L638.550836978845,268.8992740325481 M638.550836978845,268.8992740325481 L624.7560125604575,255.93432847238898 M624.7560125604575,255.93432847238898 L609.4058010003014,243.57849072060205 M609.4058010003014,243.57849072060205 L592.5806707920297,231.8925494832178 M592.5806707920297,231.8925494832178 L574.3679524329397,220.93377847499508 M394.5346219978251,310.82898063338877 L394.52694432246676,318.6331297139432 M223.20809925471235,409.37187316123305 L227.5041753886503,412.03085046381364 M227.5041753886503,412.03085046381364 L233.3160392317988,414.1936476596336 M233.3160392317988,414.1936476596336 L240.54561309735448,415.802874258866 M240.54561309735448,415.802874258866 L249.1415647649177,416.83381808205047 M249.1415647649177,416.83381808205047 L259.009139524068,417.2544325512304 M259.009139524068,417.2544325512304 L270.02181296427307,417.0361040221535 M270.02181296427307,417.0361040221535 L282.02864469752944,416.156980129559 M282.02864469752944,416.156980129559 L294.8599912288502,414.60441945242553 M294.8599912288502,414.60441945242553 L309.85780218014094,412.08989866256417 M309.85780218014094,412.08989866256417 L325.37906789105386,408.7669516593186 M325.37906789105386,408.7669516593186 L341.19040972160053,404.67785232514905 M341.19040972160053,404.67785232514905 L357.0886529972428,399.88407353621375 M357.0886529972428,399.88407353621375 L372.8873506248823,394.470075096622 M372.8873506248823,394.470075096622 L388.39728578996227,388.5501225086414 M388.39728578996227,388.5501225086414 L403.42131378071775,382.2692573963271 M403.42131378071775,382.2692573963271 L417.76675586881737,375.7922951740948 M417.76675586881737,375.7922951740948 L431.2711563919611,369.2801926566151 M431.2711563919611,369.2801926566151 L443.8208712767663,362.86499637166 M443.8208712767663,362.86499637166 L455.3451241649655,356.6378216459192 M455.3451241649655,356.6378216459192 L464.80345320415466,351.2347007017097 M464.80345320415466,351.2347007017097 L473.35772183678023,346.0376931267343 M473.35772183678023,346.0376931267343 L480.9547618406813,341.0464008706277 M480.9547618406813,341.0464008706277 L487.5132608398584,336.25443133219557 M487.5132608398584,336.25443133219557 L492.92164482880855,331.6563903858738 M492.92164482880855,331.6563903858738 L497.0449935427142,327.25608953378355 M497.0449935427142,327.25608953378355 L499.74795669532386,323.0696652104312 M499.74795669532386,323.0696652104312 L500.9203083476168,319.1293606609564 M500.9203083476168,319.1293606609564 L500.50089757037745,315.4818643957555 M500.50089757037745,315.4818643957555 L498.48702366621444,312.18207799896413 M498.48702366621444,312.18207799896413 L494.92597670244845,309.28634371784466 M494.92597670244845,309.28634371784466 L489.8940587647214,306.84632387534305 M489.8940587647214,306.84632387534305 L482.6820217815414,304.7256123540485 M482.6820217815414,304.7256123540485 L473.8813558862662,303.28154996431937 M473.8813558862662,303.28154996431937 L463.6058428258168,302.5625490000376 M463.6058428258168,302.5625490000376 L451.9795047987435,302.60876454009195 M451.9795047987435,302.60876454009195 L439.1354818504971,303.44758424077315 M439.1354818504971,303.44758424077315 L425.2379505260873,305.08887576201386 M425.2379505260873,305.08887576201386 L410.47799877728846,307.52058427717657 M410.47799877728846,307.52058427717657 L402.5619889559113,309.0804787021167 M402.5619889559113,309.0804787021167 L394.5346219978251,310.82898063338877 M654.1138931194464,365.57750620384 L575.9300213270675,206.49471262312238 M654.1138931194464,365.57750620384 L650.0661270404564,358.0301026191868 M650.0661270404564,358.0301026191868 L644.8587127339,351.9153272969656 M644.8587127339,351.9153272969656 L638.5918582342536,347.3544728278173 M638.5918582342536,347.3544728278173 L631.3867455199377,344.43882980720167 M631.3867455199377,344.43882980720167 L623.3832452558557,343.227646688017 M623.3832452558557,343.227646688017 L614.7372860864565,343.7468956658588 M614.7372860864565,343.7468956658588 L605.6178324164966,345.9885235532538 M605.6178324164966,345.9885235532538 L596.2036024574785,349.9104572014086 M596.2036024574785,349.9104572014086 L586.6795422917779,355.4373106069856 M586.6795422917779,355.4373106069856 L577.2331425455894,362.46172928457173 M577.2331425455894,362.46172928457173 L568.0506792181063,370.8464295292621 M568.0506792181063,370.8464295292621 L559.3134459608244,380.4269054420677 M559.3134459608244,380.4269054420677 L551.1940806639188,391.0146617288465 M551.1940806639188,391.0146617288465 L543.8530469486424,402.4009711384559 M543.8530469486424,402.4009711384559 L537.4353592206934,414.3611646325038 M537.4353592206934,414.3611646325038 L532.0676464273699,426.6590618396731 M532.0676464273699,426.6590618396731 L527.8555806911401,439.0518789425018 M527.8555806911401,439.0518789425018 L37.54611946616433,516.1601755669395 M394.5346219978251,310.82898063338877 L575.9300213270675,206.49471262312238 M575.8824980519304,214.27531134377088 L575.9300213270675,206.49471262312238 M575.9300213270675,206.49471262312238 L578.2267418213133,207.74399303210032 M578.2267418213133,207.74399303210032 L580.5055222585125,209.00432475877045 M580.5055222585125,209.00432475877045 L582.7661544272079,210.27565229911022 M582.7661544272079,210.27565229911022 L599.4412179401032,220.35369066330537 M599.4412179401032,220.35369066330537 L614.9785271407072,231.029567435323 M614.9785271407072,231.029567435323 L629.3135032584106,242.26147991050686 M629.3135032584106,242.26147991050686 L642.3860814427335,254.0052588889729 M642.3860814427335,254.0052588889729 L654.1409730747743,266.214522229438 M654.1409730747743,266.214522229438 L664.5278219741426,278.84088146382805 M664.5278219741426,278.84088146382805 L674.2181599654778,292.9866123801735 M674.2181599654778,292.9866123801735 L682.186810329173,307.49918320062716 M682.186810329173,307.49918320062716 L688.3910635176142,322.30960719034937 M688.3910635176142,322.30960719034937 L692.7965138102522,337.34707520840396 M692.7965138102522,337.34707520840396 L695.3771952893861,352.5393821058011 M695.3771952893861,352.5393821058011 L696.1158177298959,367.81316604825713 M696.1158177298959,367.81316604825713 L695.00401009358,383.0942755442272 M695.00401009358,383.0942755442272 L692.0423350495263,398.3081614768082 M692.0423350495263,398.3081614768082 L687.2405159691688,413.38022348317844 M687.2405159691688,413.38022348317844 L680.617377549637,428.23613623430845 M680.617377549637,428.23613623430845 L672.2008747064976,442.8022976445383 M672.2008747064976,442.8022976445383 L662.0280745207812,457.0061896038079 M662.0280745207812,457.0061896038079 L650.1449933555738,470.7767361417279 M650.1449933555738,470.7767361417279 L636.6065149169827,484.04472231044167 M636.6065149169827,484.04472231044167 L621.4760868700525,496.7431452132494 M621.4760868700525,496.7431452132494 L604.8255972511267,508.8076248635856 M604.8255972511267,508.8076248635856 L586.7348924829938,520.1767011976632 M586.7348924829938,520.1767011976632 L567.2915830035389,530.7922763638883 M567.2915830035389,530.7922763638883 L546.5904809855457,540.599868492209 M546.5904809855457,540.599868492209 L524.7332825587076,549.5490176404069 M524.7332825587076,549.5490176404069 L501.827901118014,557.5934884100805 M501.827901118014,557.5934884100805 L477.9880293804888,564.6916468185972 M477.9880293804888,564.6916468185972 L453.33247762453743,570.8066344297773 M453.33247762453743,570.8066344297773 L427.9845902705702,575.906650603324 M427.9845902705702,575.906650603324 L402.07151696656285,579.9651069974274 M402.07151696656285,579.9651069974274 L375.7235629293403,582.9608281059166 M375.7235629293403,582.9608281059166 L349.0735089702501,584.8781636742998 M349.0735089702501,584.8781636742998 L322.25575361093036,585.707069245118 M322.25575361093036,585.707069245118 L295.4056451908107,585.4432305134723 M295.4056451908107,585.4432305134723 L268.6587586829513,584.0880100208773 M268.6587586829513,584.0880100208773 L242.15007363716154,581.6485095038794 M242.15007363716154,581.6485095038794 L216.0131805996151,578.1374849504363 M216.0131805996151,578.1374849504363 L190.37970128451587,573.5732518992961 M190.37970128451587,573.5732518992961 L165.37836903492123,567.97963852749 M165.37836903492123,567.97963852749 L143.05407013006896,561.9524964707671 M143.05407013006896,561.9524964707671 L121.46455278348924,555.1059866373133 M121.46455278348924,555.1059866373133 L100.70063606613212,547.4701631212032 M100.70063606613212,547.4701631212032 L80.84936696187094,539.0784206413169 M80.84936696187094,539.0784206413169 L61.993550967335466,529.9673797524777 M61.993550967335466,529.9673797524777 L44.21138427056019,520.1767011976629 M44.21138427056019,520.1767011976629 L41.96979518663835,518.848630621439 M41.96979518663835,518.848630621439 L39.7480053261101,517.5097461233328 M39.7480053261101,517.5097461233328 L37.54611946616433,516.1601755669395 M217.47853767643676,418.5212681843999 L217.51022409665757,426.34943701672074 M49.421965189312004,515.2154954682292 L217.47853767643676,418.5212681843999 M49.49143886550604,523.0649812660919 L49.421965189312004,515.2154954682292 M410.2646347378434,307.598485394419 L410.25347914201865,315.4019094146032 M217.47853767643676,418.5212681843999 L223.2588286540086,420.9259573809727 M223.2588286540086,420.9259573809727 L230.55182675512725,422.82193187007914 M230.55182675512725,422.82193187007914 L239.17701256709034,424.14483409583755 M239.17701256709034,424.14483409583755 L249.09699073098705,424.87913778471113 M249.09699073098705,424.87913778471113 L260.202263644977,424.9943601732489 M260.202263644977,424.9943601732489 L272.3522955084453,424.4633663999608 M272.3522955084453,424.4633663999608 L285.3913817478899,423.2650914864485 M285.3913817478899,423.2650914864485 L299.1430822972828,421.38770235979405 M299.1430822972828,421.38770235979405 L315.02683705282107,418.5077429005097 M315.02683705282107,418.5077429005097 L331.3023591949217,414.81531115882814 M331.3023591949217,414.81531115882814 L347.75490527464666,410.35257586114983 M347.75490527464666,410.35257586114983 L364.20263421410306,405.1811512325851 M364.20263421410306,405.1811512325851 L380.4729253493166,399.3897747044021 M380.4729253493166,399.3897747044021 L396.38256161181647,393.1027706161694 M396.38256161181647,393.1027706161694 L411.7337161967012,386.48081633448123 M411.7337161967012,386.48081633448123 L426.33442628925593,379.70477280388513 M426.33442628925593,379.70477280388513 L440.0338236748472,372.9439757137417 M440.0338236748472,372.9439757137417 L452.7336484871296,366.3315093077859 M452.7336484871296,366.3315093077859 L464.3865829685367,359.94885143306306 M464.3865829685367,359.94885143306306 L473.95595990533695,354.43166717659426 M473.95595990533695,354.43166717659426 L482.62925558917993,349.13204617190087 M482.62925558917993,349.13204617190087 L490.35569937253683,344.038958062797 M490.35569937253683,344.038958062797 L497.0522124688151,339.1347692479815 M497.0522124688151,339.1347692479815 L502.6001820088901,334.40392298319256 M502.6001820088901,334.40392298319256 L506.8549750089868,329.84203529774106 M506.8549750089868,329.84203529774106 L509.6730080986563,325.46011803843777 M509.6730080986563,325.46011803843777 L510.940797929293,321.28907611659645 M510.940797929293,321.28907611659645 L510.59983078068433,317.37776687791967 M510.59983078068433,317.37776687791967 L508.6533042520532,313.7856662333867 M508.6533042520532,313.7856662333867 L505.1538950437206,310.57449509026947 M505.1538950437206,310.57449509026947 L500.1796681783708,307.8009939284193 M500.1796681783708,307.8009939284193 L493.0245674737977,305.29443417365155 M493.0245674737977,305.29443417365155 L484.2656071759708,303.4545463046432 M484.2656071759708,303.4545463046432 L474.006277220107,302.3361023555301 M474.006277220107,302.3361023555301 L462.35703812080243,301.98615816308603 M462.35703812080243,301.98615816308603 L449.4431601364007,302.4393148753338 M449.4431601364007,302.4393148753338 L435.4117608136046,303.7134331320347 M435.4117608136046,303.7134331320347 L423.0326316938416,305.3944534082675 M423.0326316938416,305.3944534082675 L410.2646347378434,307.598485394419 M574.3679524329397,220.93377847499508 L574.415160615157,213.15166892636864 M410.2646347378434,307.598485394419 L574.415160615157,213.15166892636864 M574.415160615157,213.15166892636864 L574.9809008868082,213.46922928842113 M574.9809008868082,213.46922928842113 L575.545499791183,213.78747722362144 M575.545499791183,213.78747722362144 L576.1089033089704,214.10644021270124 M576.1089033089704,214.10644021270124 L592.8073124114239,224.22134729333357 M592.8073124114239,224.22134729333357 L608.3301647453468,234.95116959648703 M608.3301647453468,234.95116959648703 L622.6091975542298,246.25144647781542 M622.6091975542298,246.25144647781542 L635.5812106030728,258.0750870534068 M635.5812106030728,258.0750870534068 L647.1881126430756,270.37268693637947 M647.1881126430756,270.37268693637947 L657.3773439952782,283.09261874025765 M657.3773439952782,283.09261874025765 L666.7331401089557,297.2384370454751 M666.7331401089557,297.2384370454751 L674.3308326804863,311.7441770045345 M674.3308326804863,311.7441770045345 L680.1279049318715,326.53783934860786 M680.1279049318715,326.53783934860786 L684.0905846844034,341.54563592086555 M684.0905846844034,341.54563592086555 L686.1941851201367,356.692323961395 M686.1941851201367,356.692323961395 L686.4231892702228,371.90157602675873 M686.4231892702228,371.90157602675873 L684.7716035066825,387.0963490970447 M684.7716035066825,387.0963490970447 L681.2429590579458,402.19926800707054 M681.2429590579458,402.19926800707054 L675.8504036089048,417.13302713958376 M675.8504036089048,417.13302713958376 L668.6168034536736,431.8208104303766 M668.6168034536736,431.8208104303766 L659.5746521465884,446.1866807539468 M659.5746521465884,446.1866807539468 L648.7659909569107,460.1559979154766 M648.7659909569107,460.1559979154766 L636.2423452201457,473.6558460250757 M636.2423452201457,473.6558460250757 L622.0644629238071,486.61542609492506 M622.0644629238071,486.61542609492506 L606.3020749394374,498.9664803839179 M606.3020749394374,498.9664803839179 L589.033629844573,510.64368288835544 M589.033629844573,510.64368288835544 L570.3458657992928,521.5850132643661 M570.3458657992928,521.5850132643661 L550.3334398838591,531.7321505450385 M550.3334398838591,531.7321505450385 L529.0984510496772,541.0308284673912 M529.0984510496772,541.0308284673912 L506.74987424237065,549.4311401696739 M506.74987424237065,549.4311401696739 L483.4030045569848,556.8878854382227 M483.4030045569848,556.8878854382227 L459.17884568166966,563.3608300356001 M459.17884568166966,563.3608300356001 L434.20341189253645,568.814955119197 M434.20341189253645,568.814955119197 L408.6070566148518,573.220721610237 M408.6070566148518,573.220721610237 L382.5237112998539,576.5542188815924 M382.5237112998539,576.5542188815924 L356.0901125319348,578.7973201631389 M356.0901125319348,578.7973201631389 L329.44505201864433,579.9378400526541 M329.44505201864433,579.9378400526541 L302.7285475791462,579.9695715009638 M302.7285475791462,579.9695715009638 L276.08102307589684,578.8923198094772 M276.08102307589684,578.8923198094772 L249.6424995222235,576.7119791268093 M249.6424995222235,576.7119791268093 L223.55179490748725,573.4403885938458 M223.55179490748725,573.4403885938458 L197.9457080309364,569.0953340530588 M197.9457080309364,569.0953340530588 L172.95825581082812,563.7003835012556 M172.95825581082812,563.7003835012556 L150.4803497073644,557.7924611373849 M150.4803497073644,557.7924611373849 L128.74540012052262,551.0363420967514 M128.74540012052262,551.0363420967514 L107.850101899697,543.4633151256083 M107.850101899697,543.4633151256083 L87.88699460063731,535.1083907470762 M87.88699460063731,535.1083907470762 L68.94419164330043,526.0100264283668 M68.94419164330043,526.0100264283668 L51.104711222864864,516.2100679575589 M51.104711222864864,516.2100679575589 L50.54252619243067,515.8792449009703 M50.54252619243067,515.8792449009703 L49.981627302410914,515.5477099964365 M49.981627302410914,515.5477099964365 L49.421965189312004,515.2154954682292 M654.638691005221,366.88320411618133 L654.46716935752,366.4444841621286 M654.46716935752,366.4444841621286 L654.2922368975364,366.00924143079567 M654.2922368975364,366.00924143079567 L654.1138931194464,365.57750620384 M654.638691005221,366.88320411618133 L582.7661544272079,210.27565229911022 M527.3049670533818,440.9901958904121 L524.8528960265368,451.44500618740284 M524.8528960265368,451.44500618740284 L523.3500430899861,461.61148394162916 M523.3500430899861,461.61148394162916 L522.8174675667534,471.3432028247905 M522.8174675667534,471.3432028247905 L626.6579563088557,531.228393561485 M626.6579563088557,531.228393561485 L627.4063453570492,519.8115742665773 M627.4063453570492,519.8115742665773 L629.4697603928295,507.8313595861289 M629.4697603928295,507.8313595861289 L632.8086568731463,495.5224856950928 M632.8086568731463,495.5224856950928 L637.3581829484194,483.1264459877968 M637.3581829484194,483.1264459877968 L643.0294455133456,470.88674094245647 M643.0294455133456,470.88674094245647 L649.7112347381435,459.04389080138134 M649.7112347381435,459.04389080138134 L657.2722889530328,447.8306010711083 M657.2722889530328,447.8306010711083 L665.5639183158751,437.4670964091138 M665.5639183158751,437.4670964091138 L674.4230299344738,428.1565796680359 M674.4230299344738,428.1565796680359 L683.6754347808209,420.08127160717834 M683.6754347808209,420.08127160717834 L693.1393685576883,413.3987432661594 M693.1393685576883,413.3987432661594 L702.629169181566,408.2387852652946 M702.629169181566,408.2387852652946 L711.9589956182771,404.70096687224304 M711.9589956182771,404.70096687224304 L720.9465382679607,402.8527088585171 M720.9465382679607,402.8527088585171 L729.4166196402637,402.72814292708813 M729.4166196402637,402.72814292708813 L737.2046217931576,404.32750884562586 M737.2046217931576,404.32750884562586 L744.1596717950436,407.61742958956467 M744.1596717950436,407.61742958956467 L750.1475229905984,412.5316033438053 M750.1475229905984,412.5316033438053 L755.0530775756729,418.9724259321095 M755.0530775756729,418.9724259321095 L758.7825143864677,426.8128761636365 M758.7825143864677,426.8128761636365 L761.264993022932,435.89925813258617 M761.264993022932,435.89925813258617 L762.4538805338357,446.05416646743265 M762.4538805338357,446.05416646743265 L762.327551544218,457.0800644699429 M762.327551544218,457.0800644699429 L760.8896771609027,468.7630488006494 M760.8896771609027,468.7630488006494 L758.169059909822,480.87702236669264 M758.169059909822,480.87702236669264 L754.219027831501,493.18794198774185 M754.219027831501,493.18794198774185 L749.1163445694017,505.4582699056299 M749.1163445694017,505.4582699056299 L742.9597431420204,517.4514239955396 M742.9597431420204,517.4514239955396 L735.8680411323647,528.9362110417707 M735.8680411323647,528.9362110417707 L727.9779074461484,539.6911641972457 M727.9779074461484,539.6911641972457 L719.4413077535851,549.508680549809 M719.4413077535851,549.508680549809 L710.4226706165895,558.1989326514541 M710.4226706165895,558.1989326514541 L701.0958173791759,565.5934787664021 M701.0958173791759,565.5934787664021 L691.6407124495694,571.5484639512171 M691.6407124495694,571.5484639512171 L682.2400836028518,575.9474364312384 M682.2400836028518,575.9474364312384 L673.0759615682248,578.7036392804347 M673.0759615682248,578.7036392804347 L664.3262177441566,579.7617880443586 M664.3262177441566,579.7617880443586 L656.1611325973842,579.0992871968957 M656.1611325973842,579.0992871968957 L648.7400912001602,576.7268023598804 M648.7400912001602,576.7268023598804 L642.2084460398438,572.6882310888778 M642.2084460398438,572.6882310888778 L636.6946069552201,567.0600440390352 M636.6946069552201,567.0600440390352 L632.3074687894521,559.9499343544709 M632.3074687894521,559.9499343544709 L629.1341339750645,551.4948790967248 M629.1341339750645,551.4948790967248 L627.2381168990596,541.8585964535537 M627.2381168990596,541.8585964535537 L626.6579563088557,531.228393561485 M522.8174675667534,471.3432028247905 L523.403068431627,481.73662984267304 M523.403068431627,481.73662984267304 L525.2479955378279,491.18829064997874 M525.2479955378279,491.18829064997874 L528.3163652562271,499.52232283206325 M528.3163652562271,499.52232283206325 L532.5493895948933,506.5842481182521 M532.5493895948933,506.5842481182521 L537.8666036086565,512.2437747840061 M537.8666036086565,512.2437747840061 L544.16747099932,516.3971819832838 M544.16747099932,516.3971819832838 L551.3333962491818,518.969054618458 M551.3333962491818,518.969054618458 L559.2299923606157,519.9136019029316 M559.2299923606157,519.9136019029316 L567.7096647822115,519.215312357627 M567.7096647822115,519.215312357627 L576.6143911724712,516.8891189581474 M576.6143911724712,516.8891189581474 L585.7786806470816,512.9799585582559 M585.7786806470816,512.9799585582559 L595.0326113720249,507.56182642428047 M595.0326113720249,507.56182642428047 L604.2049451637747,500.7363097648803 M604.2049451637747,500.7363097648803 L613.126233187905,492.630647199893 M613.126233187905,492.630647199893 L621.6318632827599,483.3953524650776 M621.6318632827599,483.3953524650776 L629.5650165064004,473.2014426512807 M629.5650165064004,473.2014426512807 L636.7794611490025,462.2373458677975 M636.7794611490025,462.2373458677975 L643.1421697188275,450.70546825387856 M643.1421697188275,450.70546825387856 L648.5356933756481,438.8185927329581 M648.5356933756481,438.8185927329581 L652.8602711208686,426.79602397585217 M652.8602711208686,426.79602397585217 L656.0356328335567,414.8597138413187 M656.0356328335567,414.8597138413187 L658.0024765520383,403.23022854704067 M658.0024765520383,403.23022854704067 L658.7235913392643,392.1227778879002 M658.7235913392643,392.1227778879002 L658.3192717238528,382.97913064037044 M658.3192717238528,382.97913064037044 L656.9514428179701,374.5255888241072 M656.9514428179701,374.5255888241072 L654.638691005221,366.88320411618133 M527.8555806911401,439.0518789425018 L527.668627414722,439.69844079405743 M527.668627414722,439.69844079405743 L527.4850894908117,440.3445566108221 M527.4850894908117,440.3445566108221 L527.3049670533818,440.9901958904121 M527.3049670533818,440.9901958904121 L44.21138427056019,520.1767011976629 M658.7235913392643,392.1227778879002 L664.5278219741426,278.84088146382805 M522.8174675667534,471.3432028247905 L165.37836903492123,567.97963852749 M649.5508662380125,370.94011391138065 L574.415160615157,213.15166892636864 M649.5508662380125,370.94011391138065 L645.8379250077188,363.85133618879615 M645.8379250077188,363.85133618879615 L641.0347858014221,358.0991281993021 M641.0347858014221,358.0991281993021 L635.2351541895107,353.79892874693917 M635.2351541895107,353.79892874693917 L628.5526891006825,351.0376835946526 M628.5526891006825,351.0376835946526 L621.1188306232483,349.8720564948798 M621.1188306232483,349.8720564948798 L613.0802844401304,350.3271186576064 M613.0802844401304,350.3271186576064 L604.5961568039731,352.3956970390128 M604.5961568039731,352.3956970390128 L595.8348038303881,356.03835801961134 M595.8348038303881,356.03835801961134 L586.9704819715084,361.18409602552333 M586.9704819715084,361.18409602552333 L578.1798347662664,367.7316307060502 M578.1798347662664,367.7316307060502 L569.638312285061,375.551360030509 M569.638312285061,375.551360030509 L561.5165893116404,384.4879415884086 M561.5165893116404,384.4879415884086 L553.9770640790588,394.36337142107664 M553.9770640790588,394.36337142107664 L547.1705245894032,404.9806037221392 M547.1705245894032,404.9806037221392 L541.2330365923718,416.12757369098574 M541.2330365923718,416.12757369098574 L536.2831653924294,427.581553433596 M536.2831653924294,427.581553433596 L532.419537940633,439.1136627222216 M532.419537940633,439.1136627222216 L49.421965189312004,515.2154954682292 M649.6751225000727,371.24831958867986 L649.6339094392978,371.14538090941033 M649.6339094392978,371.14538090941033 L649.5924884917246,371.04265196099726 M649.5924884917246,371.04265196099726 L649.5508662380125,370.94011391138065 M649.6751225000727,371.24831958867986 L576.1089033089704,214.10644021270124 M653.6491088352612,395.0807215709593 L653.2533369858631,386.4231194689171 M653.2533369858631,386.4231194689171 L651.9223163721488,378.43898437307666 M651.9223163721488,378.43898437307666 L649.6751225000727,371.24831958867986 M653.6491088352612,395.0807215709593 L657.3773439952782,283.09261874025765 M527.9360359694741,468.35956122957583 L528.5284758153632,478.39058515370493 M528.5284758153632,478.39058515370493 L530.3924894753152,487.46191284185505 M530.3924894753152,487.46191284185505 L533.4886294774467,495.3891151383249 M533.4886294774467,495.3891151383249 L537.7522734144476,502.0116287220366 M537.7522734144476,502.0116287220366 L543.0950664940772,507.19593468596474 M543.0950664940772,507.19593468596474 L549.406841051685,510.8382219887394 M549.406841051685,510.8382219887394 L556.5579780320951,512.8663124345958 M556.5579780320951,512.8663124345958 L564.4021330427903,513.2409904355367 M564.4021330427903,513.2409904355367 L572.7792824511046,511.95663263957954 M572.7792824511046,511.95663263957954 L581.5190007353527,509.0411585828 M581.5190007353527,509.0411585828 L590.4439228341978,504.55531502664223 M590.4439228341978,504.55531502664223 L599.3733119518621,498.5913412266803 M599.3733119518621,498.5913412266803 L608.126659130821,491.27099814181827 M608.126659130821,491.27099814181827 L616.5272554253385,482.74308333858477 M616.5272554253385,482.74308333858477 L624.4056698558595,473.18040516593004 M624.4056698558595,473.18040516593004 L631.6030748127538,462.7763303399064 M631.6030748127538,462.7763303399064 L637.9743472427709,451.74096278225386 M637.9743472427709,451.74096278225386 L643.3909163619004,440.2969973254561 M643.3909163619004,440.2969973254561 L647.7432868830667,428.67532714005 M647.7432868830667,428.67532714005 L650.943210694093,417.1105517249708 M650.943210694093,417.1105517249708 L652.9254497777171,405.8363155737186 M652.9254497777171,405.8363155737186 L653.6491088352612,395.0807215709593 M527.9360359694741,468.35956122957583 L172.95825581082812,563.7003835012556 M532.2892631059893,439.5714920741648 L529.9113776712164,449.48848887367825 M529.9113776712164,449.48848887367825 L528.4531343902725,459.1330892849049 M528.4531343902725,459.1330892849049 L527.9360359694741,468.35956122957583 M532.2892631059893,439.5714920741648 L51.104711222864864,516.2100679575589 M532.419537940633,439.1136627222216 L532.3759026907555,439.26631515699245 M532.3759026907555,439.26631515699245 L532.3324821110066,439.4189173817719 M532.3324821110066,439.4189173817719 L532.2892631059893,439.5714920741648 M527.9360359694741,468.35956122957583 L631.7762757924493,528.2244947614852 M631.7762757924493,528.2244947614852 L632.5318261484607,517.159707812026 M632.5318261484607,517.159707812026 L634.6175066048223,505.5357781831433 M634.6175066048223,505.5357781831433 L637.9894305903282,493.6020142301941 M637.9894305903282,493.6020142301941 L642.575811997357,481.6146816400466 M642.575811997357,481.6146816400466 L648.2784789646124,469.83146934088404 M648.2784789646124,469.83146934088404 L654.9750035401931,458.5057642882657 M654.9750035401931,458.5057642882657 L662.5213892268353,447.8810362274303 M662.5213892268353,447.8810362274303 L670.75523495048,438.18555509297045 M670.75523495048,438.18555509297045 L679.4993534309763,429.62727104404576 M679.4993534309763,429.62727104404576 L688.565669732051,422.3893292804129 M688.565669732051,422.3893292804129 L697.7593916244956,416.62609188502154 M697.7593916244956,416.62609188502154 L706.8832846443453,412.45985222548256 M706.8832846443453,412.45985222548256 L715.7419898922243,409.9782249412436 M715.7419898922243,409.9782249412436 L724.1462597910024,409.2324525346509 M724.1462597910024,409.2324525346509 L731.9170331400086,410.23641721710266 M731.9170331400086,410.23641721710266 L738.8892413509362,412.966493347506 M738.8892413509362,412.966493347506 L744.9152754599367,417.36229267413654 M744.9152754599367,417.36229267413654 L749.868059036201,423.32809100353904 M749.868059036201,423.32809100353904 L753.6436313540972,430.73506728505777 M753.6436313540972,430.73506728505777 L756.1632248052285,439.42419526951335 M756.1632248052285,439.42419526951335 L757.3748090424456,449.2097072541794 M757.3748090424456,449.2097072541794 L757.2540508148396,459.8830910647485 M757.2540508148396,459.8830910647485 L755.8047116869576,471.2175961521347 M755.8047116869576,471.2175961521347 L753.0584692670519,482.97290684767916 M753.0584692670519,482.97290684767916 L749.0741701523048,494.9002308316103 M749.0741701523048,494.9002308316103 L743.93655804908,506.7474379836107 M743.93655804908,506.7474379836107 L737.7544738631813,518.264228583407 M737.7544738631813,518.264228583407 L730.6585936239602,529.2073214985055 M730.6585936239602,529.2073214985055 L722.7987441759075,539.3454278402218 M722.7987441759075,539.3454278402218 L714.3408169399704,548.4640385780881 M714.3408169399704,548.4640385780881 L705.4633722476902,556.3698363756827 M705.4633722476902,556.3698363756827 L696.3539811492502,562.8947656955509 M696.3539811492502,562.8947656955509 L687.2053613994624,567.8995415314413 M687.2053613994624,567.8995415314413 L678.2113941697485,571.2766530191262 M678.2113941697485,571.2766530191262 L669.5630812350291,572.9527311811203 M669.5630812350291,572.9527311811203 L661.4445424797952,572.8902081750175 M661.4445424797952,572.8902081750175 L654.0290937874012,571.0882912326908 M654.0290937874012,571.0882912326908 L647.4755524029857,567.5831575606175 M647.4755524029857,567.5831575606175 L641.9247652377802,562.4473581137919 M641.9247652377802,562.4473581137919 L637.4965212874268,555.7884793939525 M637.4965212874268,555.7884793939525 L634.2868709253416,547.7469759147249 M634.2868709253416,547.7469759147249 L632.3659356234822,538.4933279113102 M632.3659356234822,538.4933279113102 L631.7762757924493,528.2244947614852" stroke="black"  stroke-width="4"  fill="red"/></svg>