<svg viewBox="0 0 800 800" xmlns="http://www.w3.org/2000/svg"><path d="M534.9168341020347,494.1567087473882 L524.433393299639,488.10546363723574 M534.9168341020347,494.1567087473882 L537.2983195707329,490.7462152678632 M537.2983195707329,490.7462152678632 L538.7402349714646,486.26962461824525 M538.7402349714646,486.26962461824525 L539.2275630043623,481.3131245282125 M539.2275630043623,481.3131245282125 L538.9973356811231,476.14117465894896 M538.9973356811231,476.14117465894896 L538.134164668432,470.31645164513776 M538.134164668432,470.31645164513776 L536.6412873918291,463.86184766524457 M536.6412873918291,463.86184766524457 L534.5245126352377,456.80281390618 M534.5245126352377,456.80281390618 L531.4905281528161,448.386031662213 M531.4905281528161,448.386031662213 L527.7285749784603,439.31405654662524 M527.8047791705665,439.0518789425018 L527.7793170662299,439.13927685691857 M527.7793170662299,439.13927685691857 L527.7539134978601,439.2266706552677 M527.7539134978601,439.2266706552677 L527.7285749784603,439.31405654662524 M654.0630915988727,365.57750620384 L650.0153255198827,358.0301026191868 M650.0153255198827,358.0301026191868 L644.8079112133264,351.9153272969656 M644.8079112133264,351.9153272969656 L638.5410567136798,347.3544728278173 M638.5410567136798,347.3544728278173 L631.335943999364,344.43882980720167 M631.335943999364,344.43882980720167 L623.3324437352821,343.227646688017 M623.3324437352821,343.227646688017 L614.6864845658829,343.7468956658588 M614.6864845658829,343.7468956658588 L605.5670308959229,345.9885235532538 M605.5670308959229,345.9885235532538 L596.1528009369049,349.9104572014086 M596.1528009369049,349.9104572014086 L586.6287407712043,355.4373106069856 M586.6287407712043,355.4373106069856 L577.1823410250158,362.46172928457173 M577.1823410250158,362.46172928457173 L567.9998776975326,370.8464295292621 M567.9998776975326,370.8464295292621 L559.2626444402508,380.4269054420677 M559.2626444402508,380.4269054420677 L551.1432791433451,391.0146617288465 M551.1432791433451,391.0146617288465 L543.8022454280688,402.4009711384559 M543.8022454280688,402.4009711384559 L537.3845577001198,414.3611646325038 M537.3845577001198,414.3611646325038 L532.0168449067962,426.6590618396731 M532.0168449067962,426.6590618396731 L527.8047791705665,439.0518789425018 M654.5878894846473,366.88320411618133 L654.4163678369464,366.4444841621286 M654.4163678369464,366.4444841621286 L654.2414353769627,366.00924143079567 M654.2414353769627,366.00924143079567 L654.0630915988727,365.57750620384 M658.6727898186907,392.1227778879002 L658.2684702032791,382.97913064037044 M658.2684702032791,382.97913064037044 L656.9006412973965,374.5255888241072 M656.9006412973965,374.5255888241072 L654.5878894846473,366.88320411618133 M658.6727898186907,392.1227778879002 L762.5046820544094,451.47127398616755 M762.5046820544094,451.47127398616755 L761.7205384463209,462.85331648235007 M761.7205384463209,462.85331648235007 L759.6361390958434,474.78065630553374 M759.6361390958434,474.78065630553374 L756.2926541394143,487.0226834330675 M756.2926541394143,487.0226834330675 L751.7552913349593,499.3430393901307 M751.7552913349593,499.3430393901307 L746.1120012524545,511.5041208547925 M746.1120012524545,511.5041208547925 L739.4718265229067,523.2714843523901 M739.4718265229067,523.2714843523901 L731.9628047600295,534.4182653621826 M731.9628047600295,534.4182653621826 L723.729595734548,544.7294243988855 M723.729595734548,544.7294243988855 L714.9307616240967,554.0057837203052 M714.9307616240967,554.0057837203052 L705.7358268165688,562.067771421445 M705.7358268165688,562.067771421445 L696.3220988844262,568.7588654403024 M696.3220988844262,568.7588654403024 L686.8713518850036,573.9485956146777 M686.8713518850036,573.9485956146777 L677.5664017607644,577.5350930299559 M677.5664017607644,577.5350930299559 L668.5876293677247,579.4471605594141 M668.5876293677247,579.4471605594141 L660.1095357564425,579.645735803341 M660.1095357564425,579.645735803341 L652.2973560150076,578.1248214179069 M652.2973560150076,578.1248214179069 L645.3038342951347,574.9117507689784 M645.3038342951347,574.9117507689784 L639.2662078291219,570.0668216122954 M639.2662078291219,570.0668216122954 L634.3034175229213,563.6823288153578 M634.3034175229213,563.6823288153578 L630.5137320678698,555.8808846529633 M630.5137320678698,555.8808846529633 L627.9726498059176,546.8131981905401 M627.9726498059176,546.8131981905401 L626.731347638138,536.6552022647369 M626.731347638138,536.6552022647369 L626.8155116977182,525.6046802578572 M626.8155116977182,525.6046802578572 L628.224737785456,513.877443245244 M628.224737785456,513.877443245244 L630.9324430771999,501.70300919321545 M630.9324430771999,501.70300919321545 L634.8862964868101,489.3201295960057 M634.8862964868101,489.3201295960057 L640.0092481478523,476.97188218708357 M640.0092481478523,476.97188218708357 L646.2009816362709,464.9009308558333 M646.2009816362709,464.9009308558333 L653.3399705952752,453.3444408656961 M653.3399705952752,453.3444408656961 L661.285872540036,442.52948454615654 M661.285872540036,442.52948454615654 L669.882402912363,432.66827923851537 M669.882402912363,432.66827923851537 L678.9604935774246,423.9540609258214 M678.9604935774246,423.9540609258214 L688.3417138666946,416.5571150362257 M688.3417138666946,416.5571150362257 L697.8418887103071,410.6214871942661 M697.8418887103071,410.6214871942661 L707.2747979015955,406.2621222564703 M707.2747979015955,406.2621222564703 L716.4559080809242,403.5627242397384 M716.4559080809242,403.5627242397384 L725.2060358592421,402.5741594947296 M725.2060358592421,402.5741594947296 L733.3548656017877,403.31362997374913 M733.3548656017877,403.31362997374913 L740.7442760442455,405.7645372089472 M740.7442760442455,405.7645372089472 L747.2313640657005,409.8768756038271 M747.2313640657005,409.8768756038271 L752.6911718228744,415.56846693972204 M752.6911718228744,415.56846693972204 L757.0189904639578,422.72672053570346 M757.0189904639578,422.72672053570346 L760.1323136598953,431.2108959886825 M760.1323136598953,431.2108959886825 L761.9722760329685,440.85506303224525 M761.9722760329685,440.85506303224525 L762.5046820544094,451.47127398616755 M524.433393299639,488.10546363723574 L527.1458226662676,496.9674050038173 M527.1458226662676,496.9674050038173 L531.0827855078373,504.5647680652088 M531.0827855078373,504.5647680652088 L536.1668354625676,510.75263817302255 M536.1668354625676,510.75263817302255 L542.2986052689741,515.4136443127122 M542.2986052689741,515.4136443127122 L549.3587852724647,518.4601384524166 M549.3587852724647,518.4601384524166 L557.2105440177334,519.8357230429807 M557.2105440177334,519.8357230429807 L565.7022443718042,519.5161506087578 M565.7022443718042,519.5161506087578 L574.6703987350313,517.5096463989198 M574.6703987350313,517.5096463989198 L583.9428294991067,513.8565590821642 M583.9428294991067,513.8565590821642 L593.3419534460636,508.6284806939399 M593.3419534460636,508.6284806939399 L602.6881395302655,501.9267568170888 M602.6881395302655,501.9267568170888 L611.8030789626721,493.88047726577264 M611.8030789626721,493.88047726577264 L620.5131049405145,484.6439799508842 M620.5131049405145,484.6439799508842 L628.6524007636974,474.39391153578373 M628.6524007636974,474.39391153578373 L636.0660683486794,463.3259212422945 M636.0660683486794,463.3259212422945 L642.6129835743332,451.65098786752793 M642.6129835743332,451.65098786752793 L648.1683850762518,439.591520986983 M648.1683850762518,439.591520986983 L652.6262088481485,427.37724373538987 M652.6262088481485,427.37724373538987 L655.9010498931459,415.2409343032679 M655.9010498931459,415.2409343032679 L657.9297783783372,403.414120068508 M657.9297783783372,403.414120068508 L658.6727898186907,392.1227778879002 M411.6370091334495,384.66207854697956 L398.47423248609414,390.80356854123806 M398.47423248609414,390.80356854123806 L385.01359867882826,396.7373042584694 M385.01359867882826,396.7373042584694 L371.26553247474135,402.4583514571069 M427.41528658823637,380.41826332178675 L422.2591631789729,381.95674919754276 M422.2591631789729,381.95674919754276 L416.9967656033912,383.37217072697376 M416.9967656033912,383.37217072697376 L411.6370091334495,384.66207854697956 M534.9168341020347,494.1567087473882 L427.41528658823637,380.41826332178675 M524.433393299639,488.10546363723574 L502.42627715054897,489.14202448277626 M502.42627715054897,489.14202448277626 L480.3423227989187,489.3759869572967 M480.3423227989187,489.3759869572967 L458.2734576661428,488.7794453698402 M458.2734576661428,488.7794453698402 L435.2132204016924,486.83877026275314 M435.2132204016924,486.83877026275314 L414.7622251751114,484.1454352346757 M414.7622251751114,484.1454352346757 L394.8080854707604,480.5821799417777 M394.8080854707604,480.5821799417777 L375.4986652412492,476.1793220520981 M375.4986652412492,476.1793220520981 L363.9400389051094,473.0520003855182 M363.9400389051094,473.0520003855182 L352.65627983471364,469.6094918211842 M352.65627983471364,469.6094918211842 L346.5997440682524,467.54900537094466 M346.5997440682524,467.54900537094466 L342.54041695429356,462.45510282192265 M342.54041695429356,462.45510282192265 L340.1921182796015,457.07014206523223 M340.1921182796015,457.07014206523223 L339.37337229514605,450.84302324541454 M339.37337229514605,450.84302324541454 L340.33785655595574,443.86411380713423 M340.33785655595574,443.86411380713423 L343.3024329067396,436.008530718917 M343.3024329067396,436.008530718917 L348.55358122027764,427.16011597617603 M348.55358122027764,427.16011597617603 L356.4172553524852,417.22758013316593 M356.4172553524852,417.22758013316593 L363.4344549988263,409.81843956509897 M363.4344549988263,409.81843956509897 L371.26553247474135,402.4583514571069 M427.433098163237,371.14682929253087 L427.41528658823637,380.41826332178675 M527.6753753452936,439.07223640677717 L525.6598396924646,431.5267819639919 M525.6598396924646,431.5267819639919 L523.2195955512366,424.8849097216131 M523.2195955512366,424.8849097216131 L520.448041554791,419.0898417732442 M520.448041554791,419.0898417732442 L517.0732013168124,413.5236053166877 M517.0732013168124,413.5236053166877 L513.0461332043199,408.23823158515546 M513.0461332043199,408.23823158515546 L507.3826022884261,402.40131165251097 M507.3826022884261,402.40131165251097 L503.9725090473892,399.5070624449402 M503.9725090473892,399.5070624449402 L500.28506825126595,396.76243081024614 M500.28506825126595,396.76243081024614 L493.388765668193,392.43745730906454 M493.388765668193,392.43745730906454 L488.1187606485816,389.6630445903769 M488.1187606485816,389.6630445903769 L482.5154380699948,387.08723420918193 M482.5154380699948,387.08723420918193 L475.65176245111724,384.3338275207806 M475.65176245111724,384.3338275207806 L468.43032553146253,381.7990270680339 M468.43032553146253,381.7990270680339 L458.72315170162244,378.82007192179026 M458.72315170162244,378.82007192179026 L448.6018386969589,376.0884047009542 M448.6018386969589,376.0884047009542 L438.1487068802686,373.5468633986894 M438.1487068802686,373.5468633986894 L427.433098163237,371.14682929253087 M527.7285749784603,439.31405654662524 L527.6753753452936,439.07223640677717 M527.8047791705665,439.0518789425018 L527.6753753452936,439.07223640677717 M654.0630915988727,365.57750620384 L575.8792198064939,206.49471262312238 M394.48382047725147,310.82898063338877 L575.8792198064939,206.49471262312238 M427.433098163237,371.14682929253087 L440.26646925412956,364.6923276208077 M440.26646925412956,364.6923276208077 L451.9523113039596,358.4800244461938 M451.9523113039596,358.4800244461938 L461.14855352475064,353.32962943134197 M461.14855352475064,353.32962943134197 L470.0618519222422,348.05162357890845 M470.0618519222422,348.05162357890845 L478.0425280920653,342.98012947921393 M478.0425280920653,342.98012947921393 L485.0199448215415,338.1109420507177 M485.0199448215415,338.1109420507177 L490.8949518662867,333.4367422445334 M490.8949518662867,333.4367422445334 L495.53889122345225,328.9578430686176 M495.53889122345225,328.9578430686176 L498.8141718679156,324.68454922388537 M498.8141718679156,324.68454922388537 L500.59729208047764,320.6428785865713 M500.59729208047764,320.6428785865713 L500.805799043965,316.87432364068223 M500.805799043965,316.87432364068223 L499.41415971351165,313.4313977370166 M499.41415971351165,313.4313977370166 L496.45208168732023,310.3707293331949 M496.45208168732023,310.3707293331949 L491.98714946081515,307.74614732696887 M491.98714946081515,307.74614732696887 L486.103048469426,305.60589677729433 M486.103048469426,305.60589677729433 L478.0085502934763,303.8489090269233 M478.0085502934763,303.8489090269233 L468.3873283677974,302.7957558043491 M468.3873283677974,302.7957558043491 L457.35608924608385,302.4909376666391 M457.35608924608385,302.4909376666391 L445.0478462476165,302.96803527150473 M445.0478462476165,302.96803527150473 L431.6051491702554,304.2457575876127 M431.6051491702554,304.2457575876127 L417.2114380205822,306.3220809544224 M417.2114380205822,306.3220809544224 L405.9699647581855,308.37821792395044 M405.9699647581855,308.37821792395044 L394.48382047725147,310.82898063338877 M575.8792198064939,206.49471262312238 L578.1759403007397,207.74399303210032 M578.1759403007397,207.74399303210032 L580.4547207379389,209.00432475877045 M580.4547207379389,209.00432475877045 L582.7153529066343,210.27565229911022 M654.5878894846473,366.88320411618133 L582.7153529066343,210.27565229911022 M582.7153529066343,210.27565229911022 L599.3904164195296,220.35369066330537 M599.3904164195296,220.35369066330537 L614.9277256201335,231.029567435323 M614.9277256201335,231.029567435323 L629.262701737837,242.26147991050686 M629.262701737837,242.26147991050686 L642.3352799221598,254.0052588889729 M642.3352799221598,254.0052588889729 L654.0901715542007,266.214522229438 M654.0901715542007,266.214522229438 L664.4770204535689,278.84088146382805 M658.6727898186907,392.1227778879002 L664.4770204535689,278.84088146382805 M458.2734576661428,488.7794453698402 L165.32756751434758,567.97963852749 M664.4770204535689,278.84088146382805 L674.167358444904,292.9866123801735 M674.167358444904,292.9866123801735 L682.1360088085994,307.49918320062716 M682.1360088085994,307.49918320062716 L688.3402619970404,322.30960719034937 M688.3402619970404,322.30960719034937 L692.7457122896785,337.34707520840396 M692.7457122896785,337.34707520840396 L695.3263937688125,352.5393821058011 M695.3263937688125,352.5393821058011 L696.0650162093223,367.81316604825713 M696.0650162093223,367.81316604825713 L694.9532085730063,383.0942755442272 M694.9532085730063,383.0942755442272 L691.9915335289527,398.3081614768082 M691.9915335289527,398.3081614768082 L687.1897144485952,413.38022348317844 M687.1897144485952,413.38022348317844 L680.5665760290633,428.23613623430845 M680.5665760290633,428.23613623430845 L672.1500731859239,442.8022976445383 M672.1500731859239,442.8022976445383 L661.9772730002076,457.0061896038079 M661.9772730002076,457.0061896038079 L650.0941918350002,470.7767361417279 M650.0941918350002,470.7767361417279 L636.5557133964091,484.04472231044167 M636.5557133964091,484.04472231044167 L621.4252853494788,496.7431452132494 M621.4252853494788,496.7431452132494 L604.774795730553,508.8076248635856 M604.774795730553,508.8076248635856 L586.6840909624202,520.1767011976632 M586.6840909624202,520.1767011976632 L567.2407814829653,530.7922763638883 M567.2407814829653,530.7922763638883 L546.5396794649721,540.599868492209 M546.5396794649721,540.599868492209 L524.682481038134,549.5490176404069 M524.682481038134,549.5490176404069 L501.7770995974403,557.5934884100805 M501.7770995974403,557.5934884100805 L477.93722785991514,564.6916468185972 M477.93722785991514,564.6916468185972 L453.2816761039638,570.8066344297773 M453.2816761039638,570.8066344297773 L427.93378874999655,575.906650603324 M427.93378874999655,575.906650603324 L402.0207154459892,579.9651069974274 M402.0207154459892,579.9651069974274 L375.67276140876663,582.9608281059166 M375.67276140876663,582.9608281059166 L349.02270744967643,584.8781636742998 M349.02270744967643,584.8781636742998 L322.2049520903567,585.707069245118 M322.2049520903567,585.707069245118 L295.354843670237,585.4432305134723 M295.354843670237,585.4432305134723 L268.60795716237766,584.0880100208773 M268.60795716237766,584.0880100208773 L242.09927211658788,581.6485095038794 M242.09927211658788,581.6485095038794 L215.96237907904145,578.1374849504363 M215.96237907904145,578.1374849504363 L190.32889976394222,573.5732518992961 M190.32889976394222,573.5732518992961 L165.32756751434758,567.97963852749 M177.5452845499324,501.97260706713257 L209.434682378514,496.47829093196833 M209.434682378514,496.47829093196833 L240.75519068127676,490.00026878743375 M240.75519068127676,490.00026878743375 L271.41134442306884,482.55947944426555 M271.41134442306884,482.55947944426555 L301.3099913160675,474.17996897879516 M301.3099913160675,474.17996897879516 L330.36071139971074,464.8886990149652 M330.36071139971074,464.8886990149652 L358.47605854402264,454.71550277607344 M358.47605854402264,454.71550277607344 L385.57185271554863,443.6929437414842 M385.57185271554863,443.6929437414842 L411.56748582946307,431.8561814795351 M177.5452845499324,501.97260706713257 L185.88009149914276,496.94668751219496 M185.88009149914276,496.94668751219496 L194.86151129676796,491.4120527448847 M194.86151129676796,491.4120527448847 L226.31031162687208,478.52192652885736 M226.31031162687208,478.52192652885736 L255.18269997607973,465.42003795872665 M255.18269997607973,465.42003795872665 L285.6969957213083,450.2968777695461 M285.6969957213083,450.2968777695461 L314.72704903344163,434.8164344229389 M314.72704903344163,434.8164344229389 L340.3821956547898,420.4133359262407 M340.3821956547898,420.4133359262407 L356.0973778970143,411.3399295480774 M356.0973778970143,411.3399295480774 L371.26553247474135,402.4583514571069 M411.6370091334495,384.66207854697956 L411.56748582946307,431.8561814795351 M223.1572977341387,409.37187316123305 L223.1876930073504,417.1980127019361 M223.1572977341387,409.37187316123305 L227.45337386807665,412.03085046381364 M227.45337386807665,412.03085046381364 L233.26523771122515,414.1936476596336 M233.26523771122515,414.1936476596336 L240.49481157678082,415.802874258866 M240.49481157678082,415.802874258866 L249.09076324434403,416.83381808205047 M249.09076324434403,416.83381808205047 L257.2637905489712,417.22868333984104 M257.2637905489712,417.22868333984104 L266.4157060918472,417.1744339022477 M411.56748582946307,431.8561814795351 L396.85958942422377,434.6744095686571 M396.85958942422377,434.6744095686571 L381.7014292901445,436.54575599116674 M381.7014292901445,436.54575599116674 L366.2769937458278,437.44719052176407 M366.2769937458278,437.44719052176407 L350.77362259948734,437.3676176270471 M350.77362259948734,437.3676176270471 L335.3796594772996,436.30801480158624 M335.3796594772996,436.30801480158624 L320.2820683361716,434.2814309649667 M320.2820683361716,434.2814309649667 L305.6640546078085,431.312803653558 M305.6640546078085,431.312803653558 L291.70278963548805,427.438629937913 M291.70278963548805,427.438629937913 L278.5671707530531,422.7064949791452 M278.5671707530531,422.7064949791452 L266.4157060918472,417.1744339022477 M394.48382047725147,310.82898063338877 L394.4761428018931,318.6331297139432 M223.1876930073504,417.1980127019361 L227.96935328293716,426.04059959348973 M227.96935328293716,426.04059959348973 L234.46579428816068,434.5158036418266 M234.46579428816068,434.5158036418266 L242.59483659039876,442.5126785611007 M242.59483659039876,442.5126785611007 L252.25265577557826,449.92624050869347 M252.25265577557826,449.92624050869347 L263.31500772554114,456.658921293539 M263.31500772554114,456.658921293539 L275.6388245268486,462.62190087766857 M275.6388245268486,462.62190087766857 L289.0640556024033,467.73634417382164 M289.0640556024033,467.73634417382164 L303.4157691530234,471.9345069436449 M303.4157691530234,471.9345069436449 L318.5064560327598,475.16069482577757 M318.5064560327598,475.16069482577757 L334.13855368354905,477.3720674006929 M334.13855368354905,477.3720674006929 L350.107136044041,478.5392092831046 M350.107136044041,478.5392092831046 L366.2026709288766,478.64660750722396 M366.2026709288766,478.64660750722396 L382.213897708392,477.69283486054064 M382.213897708392,477.69283486054064 L397.9307111075645,475.69056933623784 M397.9307111075645,475.69056933623784 L413.1470214737283,472.6664420472615 M413.1470214737283,472.6664420472615 L427.6635552198749,468.6606245294941 M427.6635552198749,468.6606245294941 L441.2905715860156,463.7262718254674 M441.2905715860156,463.7262718254674 L453.8503963170148,457.9287651031365 M453.8503963170148,457.9287651031365 L465.1797934273008,451.34478016735727 M465.1797934273008,451.34478016735727 L475.13210761316356,444.06121639538145 M475.13210761316356,444.06121639538145 L483.57916547030874,436.1739825314502 M483.57916547030874,436.1739825314502 L490.41288817028686,427.78667296769714 M490.41288817028686,427.78667296769714 L495.5466344325226,419.00914586559185 M495.5466344325226,419.00914586559185 L498.9162286472385,409.9560448335633 M498.9162286472385,409.9560448335633 L500.480643583058,400.7452526960407 M500.480643583058,400.7452526960407 L500.222449299351,391.49633338758133 M500.222449299351,391.49633338758133 L498.1478421347894,382.3289725616369 M498.1478421347894,382.3289725616369 L494.2864189657366,373.36143280363234 M494.2864189657366,373.36143280363234 L488.690719508625,364.7090343299106 M488.690719508625,364.7090343299106 L481.43532093473976,356.48271906634614 M481.43532093473976,356.48271906634614 L472.6158318392889,348.78765993222504 M472.6158318392889,348.78765993222504 L462.3475476823807,341.7219633511555 M462.3475476823807,341.7219633511555 L450.76389883879074,335.3754878564312 M450.76389883879074,335.3754878564312 L438.01469915519874,329.82876124016644 M438.01469915519874,329.82876124016644 L424.26421400144505,325.1520229133072 M424.26421400144505,325.1520229133072 L409.6890973671565,321.4043778023905 M409.6890973671565,321.4043778023905 L394.4761428018931,318.6331297139432 M352.65627983471364,469.6094918211842 L185.88009149914276,496.94668751219496 M177.5452845499324,501.97260706713257 L171.7737934123028,499.2589256678606 M171.7737934123028,499.2589256678606 L44.16058274998653,520.1767011976629 M165.32756751434758,567.97963852749 L143.0032686094953,561.9524964707671 M143.0032686094953,561.9524964707671 L121.41375126291564,555.1059866373133 M121.41375126291564,555.1059866373133 L100.6498345455584,547.4701631212032 M100.6498345455584,547.4701631212032 L80.79856544129728,539.0784206413169 M80.79856544129728,539.0784206413169 L61.94274944676181,529.9673797524777 M61.94274944676181,529.9673797524777 L44.16058274998653,520.1767011976629 M346.5997440682524,467.54900537094466 L194.86151129676796,491.4120527448847 M394.4761428018931,318.6331297139432 L575.8316965313568,214.27531134377088 M575.8316965313568,214.27531134377088 L575.8792198064939,206.49471262312238 M37.56745344541736,524.0098684608646 L37.49531794559067,516.1601755669395 M37.56745344541736,524.0098684608646 L56.80366934087908,535.0825152597822 M56.80366934087908,535.0825152597822 L77.37858919314033,545.3385501650504 M77.37858919314033,545.3385501650504 L99.18795501524289,554.7234717389697 M99.18795501524289,554.7234717389697 L122.12062557942289,563.1872227342802 M122.12062557942289,563.1872227342802 L146.05911705256955,570.6845295344101 M146.05911705256955,570.6845295344101 L170.8802209757057,577.175180871091 M170.8802209757057,577.175180871091 L196.4556908377604,582.6243009238434 M196.4556908377604,582.6243009238434 L222.6529636219684,587.0025351957573 M222.6529636219684,587.0025351957573 L249.33592084268753,590.2862741406406 M249.33592084268753,590.2862741406406 L276.3656658813497,592.4577632728025 M276.3656658813497,592.4577632728025 L303.60124514337855,593.5052873768776 M303.60124514337855,593.5052873768776 L330.9005274825975,593.4231575063309 M330.9005274825975,593.4231575063309 L358.12106102516935,592.2118395177987 M358.12106102516935,592.2118395177987 L385.1208078771842,589.8778770066731 M385.1208078771842,589.8778770066731 L411.75900747275466,586.4338793469343 M411.75900747275466,586.4338793469343 L437.8970224535539,581.8984454716256 M437.8970224535539,581.8984454716256 L463.3990531272112,576.2960429746299 M463.3990531272112,576.2960429746299 L488.1329918831494,569.6568357087413 M488.1329918831494,569.6568357087413 L511.9710823455578,562.0164875414847 M511.9710823455578,562.0164875414847 L534.7907436402784,553.4159756599795 M534.7907436402784,553.4159756599795 L556.475087089078,543.9012627953387 M556.475087089078,543.9012627953387 L576.9137258517685,533.5230881663806 M576.9137258517685,533.5230881663806 L596.0031960326542,522.3365901195544 M596.0031960326542,522.3365901195544 L613.6475805175737,510.4009955864145 M613.6475805175737,510.4009955864145 L629.7589695187703,497.7792716438146 M629.7589695187703,497.7792716438146 L644.2578355435164,484.5376957884467 M644.2578355435164,484.5376957884467 L657.0735083820168,470.74555780198847 M657.0735083820168,470.74555780198847 L668.1443465460034,456.4746534302755 M668.1443465460034,456.4746534302755 L677.4181061162328,441.79896326934954 M677.4181061162328,441.79896326934954 L684.8520617841932,426.79417174560183 M684.8520617841932,426.79417174560183 L690.4131462721982,411.5372980376053 M690.4131462721982,411.5372980376053 L694.0780514346693,396.1062316017461 M694.0780514346693,396.1062316017461 L695.8332516644089,380.57936401964605 M695.8332516644089,380.57936401964605 L695.6749623448088,365.0351605148125 M695.6749623448088,365.0351605148125 L693.6090050435696,349.5517353017631 M693.6090050435696,349.5517353017631 L689.6508028018229,334.2065123516179 M689.6508028018229,334.2065123516179 L683.8250477942479,319.0758263767824 M683.8250477942479,319.0758263767824 L676.1656313884382,304.23451989906437 M676.1656313884382,304.23451989906437 L666.715267800656,289.75563549403984 M666.715267800656,289.75563549403984 L655.5252682541502,275.71008017181083 M655.5252682541502,275.71008017181083 L642.6551501467234,262.1663000512919 M642.6551501467234,262.1663000512919 L628.1723365663499,249.18997694118622 M628.1723365663499,249.18997694118622 L612.1517345777052,236.84374124281868 M612.1517345777052,236.84374124281868 L594.6753289558028,225.1869184101836 M594.6753289558028,225.1869184101836 L575.8316965313568,214.27531134377088 M44.16058274998653,520.1767011976629 L41.918993666064694,518.848630621439 M41.918993666064694,518.848630621439 L39.69720380553645,517.5097461233328 M39.69720380553645,517.5097461233328 L37.49531794559067,516.1601755669395 M165.35207918327444,496.05283846909714 L178.4531188682888,483.20099905515656 M178.4531188682888,483.20099905515656 L193.30955678056526,470.29876130897344 M193.30955678056526,470.29876130897344 L214.99089668298967,453.2326019813582 M214.99089668298967,453.2326019813582 L239.98883613423664,435.1263552097905 M239.98883613423664,435.1263552097905 L266.4157060918472,417.1744339022477 M171.7737934123028,499.2589256678606 L165.35207918327444,496.05283846909714 M37.56745344541736,524.0098684608646 L223.1876930073504,417.1980127019361 M37.49531794559067,516.1601755669395 L223.1572977341387,409.37187316123305 M165.35207918327444,496.05283846909714 L37.49531794559067,516.1601755669395" stroke="black"  stroke-width="4"  fill="red"/></svg>