<svg viewBox="0 0 800 800" xmlns="http://www.w3.org/2000/svg"><path d="M525.5726228789146,479.18146134915884 L515.815255185591,473.5493197026213 M525.5726228789146,479.18146134915884 L527.7891689359194,476.00717539451284 M527.7891689359194,476.00717539451284 L529.1312186515423,471.84062914274836 M529.1312186515423,471.84062914274836 L529.5847948097785,467.22741152059245 M529.5847948097785,467.22741152059245 L529.3705128113164,462.41366596538245 M529.3705128113164,462.41366596538245 L528.5671241995241,456.9923577108893 M528.5671241995241,456.9923577108893 L527.1776421789366,450.98479344513663 M527.1776421789366,450.98479344513663 L525.2074732226444,444.41466163010926 M525.2074732226444,444.41466163010926 L522.3836196111412,436.5808176949908 M522.3836196111412,436.5808176949908 L518.882215724846,428.1371589215048 M518.9531420873034,427.893139488133 L518.929443464023,427.9744843063724 M518.929443464023,427.9744843063724 L518.9057993225643,428.055825293619 M518.9057993225643,428.055825293619 L518.882215724846,428.1371589215048 M636.4669242436307,359.50753171290864 L632.6995025818189,352.4828541005221 M632.6995025818189,352.4828541005221 L627.852748822411,346.7915822837978 M627.852748822411,346.7915822837978 L622.0199306870106,342.5466082442585 M622.0199306870106,342.5466082442585 L615.3138372058177,339.832899877811 M615.3138372058177,339.832899877811 L607.8646517349166,338.7056021460271 M607.8646517349166,338.7056021460271 L599.8175034495929,339.18888843501213 M599.8175034495929,339.18888843501213 L591.3296544411176,341.27526331337486 M591.3296544411176,341.27526331337486 L582.567445068156,344.9255675784705 M582.567445068156,344.9255675784705 L573.7030122238517,350.06963638963674 M573.7030122238517,350.06963638963674 L564.91086111249,356.60755053070704 M564.91086111249,356.60755053070704 L556.3643664352621,364.4115344352136 M556.3643664352621,364.4115344352136 L548.2322656183097,373.32847572579726 M548.2322656183097,373.32847572579726 L540.6752398162265,383.1829341125693 M540.6752398162265,383.1829341125693 L533.8426390929346,393.78063859468136 M533.8426390929346,393.78063859468136 L527.8694342947335,404.91248049701284 M527.8694342947335,404.91248049701284 L522.8734841688319,416.35863707545445 M522.8734841688319,416.35863707545445 L518.9531420873034,427.893139488133 M636.9553751284787,360.72279823343945 L636.7957329064707,360.31446360487814 M636.7957329064707,360.31446360487814 L636.6329161017852,359.9093653699083 M636.6329161017852,359.9093653699083 L636.4669242436307,359.50753171290864 M640.7573591622638,384.2143032035579 L640.3810423377065,375.70393624161505 M640.3810423377065,375.70393624161505 L639.1079479569757,367.83587866710997 M639.1079479569757,367.83587866710997 L636.9553751284787,360.72279823343945 M640.7573591622638,384.2143032035579 L737.3979535943812,439.45237907882085 M737.3979535943812,439.45237907882085 L736.6681190245384,450.04611216985955 M736.6681190245384,450.04611216985955 L734.728083184618,461.1473758152293 M734.728083184618,461.1473758152293 L731.6161648066823,472.54153182245255 M731.6161648066823,472.54153182245255 L727.3930554215502,484.00859167919543 M727.3930554215502,484.00859167919543 L722.1406142266228,495.32740824293734 M722.1406142266228,495.32740824293734 L715.9603316643074,506.2797753704183 M715.9603316643074,506.2797753704183 L708.971377585336,516.6545409611817 M708.971377585336,516.6545409611817 L701.308392762714,526.2515589595523 M701.308392762714,526.2515589595523 L693.1189575089174,534.8854464837509 M693.1189575089174,534.8854464837509 L684.5608551144551,542.3890686076145 M684.5608551144551,542.3890686076145 L675.7991129984665,548.6167438378377 M675.7991129984665,548.6167438378377 L667.0029157204829,553.4470382511893 M667.0029157204829,553.4470382511893 L658.342417565193,556.7851382769007 M658.342417565193,556.7851382769007 L649.9855063826041,558.5647778333264 M649.9855063826041,558.5647778333264 L642.0945974469813,558.7495999452939 M642.0945974469813,558.7495999452939 L634.8234818218431,557.3340226392862 M634.8234818218431,557.3340226392862 L628.3143247446698,554.3434861983255 M628.3143247446698,554.3434861983255 L622.6948585279705,549.8341122131109 M622.6948585279705,549.8341122131109 L618.0757863440178,543.8918032966664 M618.0757863440178,543.8918032966664 L614.5485708883322,536.6306797146055 M614.5485708883322,536.6306797146055 L612.1834815597232,528.1910125662572 M612.1834815597232,528.1910125662572 L611.0281507959172,518.7365497478387 M611.0281507959172,518.7365497478387 L611.1064857330211,508.45137635327467 M611.1064857330211,508.45137635327467 L612.4181101662836,497.53635658870763 M612.4181101662836,497.53635658870763 L614.9382823725942,486.2051122250619 M614.9382823725942,486.2051122250619 L618.6182956669176,474.6798590558432 M618.6182956669176,474.6798590558432 L623.3864365830647,463.1868394825895 M623.3864365830647,463.1868394825895 L629.1493365168114,451.9519107252006 M629.1493365168114,451.9519107252006 L635.7938859109057,441.1958122072206 M635.7938859109057,441.1958122072206 L643.1894622671348,431.1298894452146 M643.1894622671348,431.1298894452146 L651.1906051467174,421.9516618098738 M651.1906051467174,421.9516618098738 L659.6399559125548,413.840981944403 M659.6399559125548,413.840981944403 L668.371441834005,406.95634147064663 M668.371441834005,406.95634147064663 L677.2136436308427,401.4318095506025 M677.2136436308427,401.4318095506025 L685.9932385302673,397.37437006968946 M685.9932385302673,397.37437006968946 L694.5384737770912,394.8619297844482 M694.5384737770912,394.8619297844482 L702.6825760528534,393.94183209061634 M702.6825760528534,393.94183209061634 L710.2670256211801,394.6300875496927 M710.2670256211801,394.6300875496927 L717.1446525456786,396.91124728787605 M717.1446525456786,396.91124728787605 L723.1824510392635,400.73876904857923 M723.1824510392635,400.73876904857923 L728.2641177196753,406.03616619816484 M728.2641177196753,406.03616619816484 L732.292195770292,412.6986459788571 M732.292195770292,412.6986459788571 L735.1898931716997,420.5952155336227 M735.1898931716997,420.5952155336227 L736.9024215060853,429.5714367680068 M736.9024215060853,429.5714367680068 L737.3979535943812,439.45237907882085 M515.815255185591,473.5493197026213 L518.3398242818668,481.79749146419107 M518.3398242818668,481.79749146419107 L522.0041168327788,488.86866840761684 M522.0041168327788,488.86866840761684 L526.7360503376824,494.6279725348138 M526.7360503376824,494.6279725348138 L532.4431396168294,498.96616183573474 M532.4431396168294,498.96616183573474 L539.0143382884872,501.80165869759105 M539.0143382884872,501.80165869759105 L546.322291713411,503.08197161168096 M546.322291713411,503.08197161168096 L554.2258650017974,502.7845324593894 M554.2258650017974,502.7845324593894 L562.5728935491891,500.9169968169773 M562.5728935491891,500.9169968169773 L571.2031246041773,497.5169188428397 M571.2031246041773,497.5169188428397 L579.9512741930625,492.65093217634717 M579.9512741930625,492.65093217634717 L588.6501523450659,486.41336330195463 M588.6501523450659,486.41336330195463 L597.1337997677745,478.924361396443 M597.1337997677745,478.924361396443 L605.2405776555063,470.3275750742304 M605.2405776555063,470.3275750742304 L612.81615361463,460.7874166192887 M612.81615361463,460.7874166192887 L619.7163576551025,450.48598477498166 M619.7163576551025,450.48598477498166 L625.8098397777964,439.61964614820005 M625.8098397777964,439.61964614820005 L630.9804794713857,428.39540643941655 M630.9804794713857,428.39540643941655 L635.1295586214768,417.0270783781989 M635.1295586214768,417.0270783781989 L638.177587299802,405.7313181596548 M638.177587299802,405.7313181596548 L640.0658079854577,394.7236177963531 M640.0658079854577,394.7236177963531 L640.7573591622638,384.2143032035579 M410.8310409822395,377.27032478169644 L398.5799056885688,382.9864610377577 M398.5799056885688,382.9864610377577 L386.051542537736,388.5092318798272 M386.051542537736,388.5092318798272 L373.2556542836836,393.83404480720185 M425.5165299925315,373.3204321505226 L420.71751477179987,374.75236396219515 M420.71751477179987,374.75236396219515 L415.81958583212673,376.06975474676915 M415.81958583212673,376.06975474676915 L410.8310409822395,377.27032478169644 M525.5726228789146,479.18146134915884 L425.5165299925315,373.3204321505226 M515.815255185591,473.5493197026213 L495.33233090682995,474.5140893328489 M495.33233090682995,474.5140893328489 L474.7778901661351,474.7318477895776 M474.7778901661351,474.7318477895776 L454.23749357939147,474.1766221033849 M454.23749357939147,474.1766221033849 L432.77438634907253,472.3703563028663 M432.77438634907253,472.3703563028663 L413.7398075422222,469.86355908946916 M413.7398075422222,469.86355908946916 L395.167672518118,466.547091458914 M395.167672518118,466.547091458914 L377.19560431307036,462.44917130647366 M377.19560431307036,462.44917130647366 L366.4375174103738,459.53844495514596 M366.4375174103738,459.53844495514596 L355.93526072881144,456.3343612499233 M355.93526072881144,456.3343612499233 L350.29819485177404,454.4165821255824 M350.29819485177404,454.4165821255824 L346.52001286124647,449.6754784076689 M346.52001286124647,449.6754784076689 L344.334355112554,444.6634748958889 M344.334355112554,444.6634748958889 L343.5723146939218,438.86764038503924 M343.5723146939218,438.86764038503924 L344.46999969491816,432.37208355677484 M344.46999969491816,432.37208355677484 L347.2292523157674,425.0605706592469 M347.2292523157674,425.0605706592469 L352.11671110655453,416.8249886804545 M352.11671110655453,416.8249886804545 L359.4357546700848,407.5803707945772 M359.4357546700848,407.5803707945772 L365.9669497631274,400.68438023414717 M365.9669497631274,400.68438023414717 L373.2556542836836,393.83404480720185 M425.53310795483935,364.6911287974511 L425.5165299925315,373.3204321505226 M518.8327006475214,427.91208701385307 L516.9567590712442,420.8892235476282 M516.9567590712442,420.8892235476282 L514.6855239113147,414.70736104060114 M514.6855239113147,414.70736104060114 L512.10592510068,409.31365397000775 M512.10592510068,409.31365397000775 L508.9648230780832,404.1329297404026 M508.9648230780832,404.1329297404026 L505.2166658613544,399.2136159514215 M505.2166658613544,399.2136159514215 L499.9453856938495,393.7809555250579 M499.9453856938495,393.7809555250579 L496.77147225755584,391.0871592565728 M496.77147225755584,391.0871592565728 L493.3394200932595,388.5326181905979 M493.3394200932595,388.5326181905979 L486.92074884821545,384.50718822820755 M486.92074884821545,384.50718822820755 L482.0157393488289,381.92492868770614 M482.0157393488289,381.92492868770614 L476.80049754662605,379.52751647626354 M476.80049754662605,379.52751647626354 L470.4121935533625,376.96480810843 M470.4121935533625,376.96480810843 L463.6909064657195,374.60556551691366 M463.6909064657195,374.60556551691366 L454.65604223496894,371.8329299622611 M454.65604223496894,371.8329299622611 L445.23572171356636,369.29045540720807 M445.23572171356636,369.29045540720807 L435.50656383451235,366.9249388309807 M435.50656383451235,366.9249388309807 L425.53310795483935,364.6911287974511 M518.882215724846,428.1371589215048 L518.8327006475214,427.91208701385307 M518.9531420873034,427.893139488133 L518.8327006475214,427.91208701385307 M636.4669242436307,359.50753171290864 L563.6979928264229,211.4426606551732 M416.49605764439514,296.10967102976144 L563.6979928264229,211.4426606551732 M395.4844922438505,308.19501775807976 L416.49605764439514,296.10967102976144 M394.8658658087201,308.5508367949451 L395.4844922438505,308.19501775807976 M425.53310795483935,364.6911287974511 L437.47765200664423,358.68365975410205 M437.47765200664423,358.68365975410205 L448.35414378406097,352.9016147710031 M448.35414378406097,352.9016147710031 L456.9134630415911,348.1079312015509 M456.9134630415911,348.1079312015509 L465.2094348951032,343.19547499939097 M465.2094348951032,343.19547499939097 L472.63737704674037,338.47522774298136 M472.63737704674037,338.47522774298136 L479.13154454978815,333.94327559071786 M479.13154454978815,333.94327559071786 L484.5996542112024,329.5928064040574 M484.5996542112024,329.5928064040574 L488.9219587586755,325.42411151232426 M488.9219587586755,325.42411151232426 L491.9703965902271,321.44678192267855 M491.9703965902271,321.44678192267855 L493.63001959791256,317.6850335380671 M493.63001959791256,317.6850335380671 L493.8240855680184,314.17748511263704 M493.8240855680184,314.17748511263704 L492.52882985000826,310.97301297260685 M492.52882985000826,310.97301297260685 L489.7719025221734,308.12432354264405 M489.7719025221734,308.12432354264405 L485.61620724225884,305.6815175823933 M485.61620724225884,305.6815175823933 L480.13963347227013,303.6894987440518 M480.13963347227013,303.6894987440518 L472.60575251806773,302.0541982891555 M472.60575251806773,302.0541982891555 L463.6508872445918,301.0739854540989 M463.6508872445918,301.0739854540989 L453.38366122096267,300.79027872981885 M453.38366122096267,300.79027872981885 L441.9278753908587,301.23433300970885 M441.9278753908587,301.23433300970885 L429.4162066891285,302.42356149711367 M429.4162066891285,302.42356149711367 L416.01939024249447,304.35608068829094 M416.01939024249447,304.35608068829094 L405.5564906942085,306.26981157280517 M405.5564906942085,306.26981157280517 L394.8658658087201,308.5508367949451 M563.6979928264229,211.4426606551732 L565.8356446502426,212.60541709480304 M565.8356446502426,212.60541709480304 L567.9565989282526,213.7784594484042 M567.9565989282526,213.7784594484042 L570.0606618695222,214.96173605611008 M636.9553751284787,360.72279823343945 L570.0606618695222,214.96173605611008 M570.0606618695222,214.96173605611008 L577.6529979168565,219.40104275077414 M577.6529979168565,219.40104275077414 L585.0079151525426,223.97355308225505 M585.0079151525426,223.97355308225505 L592.1183823255309,228.6751376785509 M592.1183823255309,228.6751376785509 L598.2291682725303,232.96001802536225 M598.2291682725303,232.96001802536225 L604.1367012448928,237.3404843062247 M604.1367012448928,237.3404843062247 L609.8364550132625,241.81340038067086 M609.8364550132625,241.81340038067086 L623.4149833089242,253.6287104814583 M623.4149833089242,253.6287104814583 L635.5432782999625,265.96972981607496 M635.5432782999625,265.96972981607496 L646.15959432044,278.7782028581398 M640.7573591622638,384.2143032035579 L646.15959432044,278.7782028581398 M454.23749357939147,474.1766221033849 L181.58075631753997,547.8914854376465 M247.90507893865197,560.0110215607868 L225.34488414692134,556.8108180731554 M225.34488414692134,556.8108180731554 L203.20471297824096,552.7648854610371 M203.20471297824096,552.7648854610371 L181.58075631753997,547.8914854376465 M277.15937188856543,562.8448619442304 L267.3624591218078,562.0574712359728 M267.3624591218078,562.0574712359728 L257.6084473879759,561.1125963043119 M257.6084473879759,561.1125963043119 L247.90507893865197,560.0110215607868 M672.3980167380693,332.9208833935932 L674.8404183511536,347.08267658648543 M674.8404183511536,347.08267658648543 L675.5627705967734,361.3219631673231 M675.5627705967734,361.3219631673231 L674.5570498032899,375.5693985949216 M674.5570498032899,375.5693985949216 L671.8236529037672,389.7552442530155 M671.8236529037672,389.7552442530155 L667.3715016283528,403.8096965171374 M667.3715016283528,403.8096965171374 L661.2181211814418,417.663225136497 M661.2181211814418,417.663225136497 L653.3895353232894,431.2469696648234 M653.3895353232894,431.2469696648234 L643.9203226866879,444.4930753094917 M643.9203226866879,444.4930753094917 L632.8534661303162,457.335026456443 M632.8534661303162,457.335026456443 L620.2402234592159,469.7080683380714 M620.2402234592159,469.7080683380714 L606.1399571133893,481.54951144071913 M606.1399571133893,481.54951144071913 L590.6198046930721,492.7990844014689 M590.6198046930721,492.7990844014689 L573.7545289136267,503.39933394465356 M573.7545289136267,503.39933394465356 L555.6260077282897,513.2958612894513 M555.6260077282897,513.2958612894513 L536.3230224050952,522.4377453922563 M536.3230224050952,522.4377453922563 L515.9406383803245,530.7777416183534 M515.9406383803245,530.7777416183534 L494.57988972808016,538.2726613746205 M494.57988972808016,538.2726613746205 L472.3471572063727,544.8835503997465 M472.3471572063727,544.8835503997465 L449.353604488808,550.5759767214042 M449.353604488808,550.5759767214042 L425.714673426079,555.3202283807396 M425.714673426079,555.3202283807396 L401.54935041797296,559.0914894301022 M401.54935041797296,559.0914894301022 L376.97956078467183,561.870026878381 M376.97956078467183,561.870026878381 L352.12953489264265,563.6412529425546 M352.12953489264265,563.6412529425546 L327.12504526347,564.3958781253572 M327.12504526347,564.3958781253572 L302.0927230877475,564.1299489216974 M302.0927230877475,564.1299489216974 L277.15937188856543,562.8448619442304 M667.2977949159782,316.32813305450463 L669.2615556354164,321.82925895149174 M669.2615556354164,321.82925895149174 L670.9621544934944,327.36157001519 M670.9621544934944,327.36157001519 L672.3980167380693,332.9208833935932 M646.15959432044,278.7782028581398 L654.6003687695912,291.0127826786697 M654.6003687695912,291.0127826786697 L661.6573053976635,303.5466023390376 M661.6573053976635,303.5466023390376 L667.2977949159782,316.32813305450463 M192.95228592659157,486.45603800742026 L222.6330544831357,481.3422529663576 M222.6330544831357,481.3422529663576 L251.78433425971485,475.3128924557064 M251.78433425971485,475.3128924557064 L280.31727203844105,468.3874450841465 M280.31727203844105,468.3874450841465 L308.1451671700815,460.5882915197021 M308.1451671700815,460.5882915197021 L335.1838620942846,451.9405260499622 M335.1838620942846,451.9405260499622 L361.3519671166155,442.471915677639 M361.3519671166155,442.471915677639 L386.5711324324314,432.21276856658056 M386.5711324324314,432.21276856658056 L410.76633279596393,421.19580916696253 M192.95228592659157,486.45603800742026 L200.70983209766618,481.77820884627465 M200.70983209766618,481.77820884627465 L209.06920732812443,476.6268976030655 M209.06920732812443,476.6268976030655 L238.3398937486183,464.62952923195 M238.3398937486183,464.62952923195 L265.2126080241895,452.435064965361 M265.2126080241895,452.435064965361 L293.61351275586577,438.3593204238223 M293.61351275586577,438.3593204238223 L320.6329722694381,423.9510378155026 M320.6329722694381,423.9510378155026 L344.51126791006516,410.5454841805432 M344.51126791006516,410.5454841805432 L359.13803162202595,402.10049327236237 M359.13803162202595,402.10049327236237 L373.2556542836836,393.83404480720185 M410.8310409822395,377.27032478169644 L410.76633279596393,421.19580916696253 M235.40525459021092,400.2687425934015 L235.4335447157962,407.55285117542786 M235.40525459021092,400.2687425934015 L239.4037885894457,402.74356166459324 M239.4037885894457,402.74356166459324 L244.81312828716887,404.7565655898772 M244.81312828716887,404.7565655898772 L251.54198876360215,406.2543386900028 M251.54198876360215,406.2543386900028 L259.5425930189611,407.2138803274843 M259.5425930189611,407.2138803274843 L267.1495642493032,407.58139759421044 M267.1495642493032,407.58139759421044 L275.66762685234426,407.53090542091246 M410.76633279596393,421.19580916696253 L397.07709126484053,423.8188494671407 M397.07709126484053,423.8188494671407 L382.968770841198,425.56058822163806 M382.968770841198,425.56058822163806 L368.61261698821187,426.39959025658897 M368.61261698821187,426.39959025658897 L354.182994537696,426.3255285046497 M354.182994537696,426.3255285046497 L339.855202615952,425.33931276004967 M339.855202615952,425.33931276004967 L325.80325623459004,423.4530881866516 M325.80325623459004,423.4530881866516 L312.19767219188793,420.69006517084586 M312.19767219188793,420.69006517084586 L299.20335111290433,417.08421303089585 M299.20335111290433,417.08421303089585 L286.97749266326355,412.67982122505146 M286.97749266326355,412.67982122505146 L275.66762685234426,407.53090542091246 M394.8658658087201,308.5508367949451 L394.85871988183277,315.8144779551145 M235.4335447157962,407.55285117542786 L239.88403176226245,415.7830089344465 M239.88403176226245,415.7830089344465 L245.93053546088242,423.671228435497 M245.93053546088242,423.671228435497 L253.4965680481405,431.1142474266512 M253.4965680481405,431.1142474266512 L262.4854958898367,438.014353146079 M262.4854958898367,438.014353146079 L272.7816798969114,444.28073488255023 M272.7816798969114,444.28073488255023 L284.2519609031277,449.8307241891945 M284.2519609031277,449.8307241891945 L296.7473732816745,454.5909460216881 M296.7473732816745,454.5909460216881 L310.1051008429014,458.49834804300014 M310.1051008429014,458.49834804300014 L324.1506211454293,461.50109323010696 M324.1506211454293,461.50109323010696 L338.70005462549733,463.5593082500696 M338.70005462549733,463.5593082500696 L353.56266820527077,464.64561499912526 M353.56266820527077,464.64561499912526 L368.5434416986609,464.745574924697 M368.5434416986609,464.745574924697 L383.44574618567776,463.8578596616511 M383.44574618567776,463.8578596616511 L398.07402808221235,461.99426913745776 M398.07402808221235,461.99426913745776 L412.23647130833893,459.1795900195853 M412.23647130833893,459.1795900195853 L425.74760377558397,455.4512116016635 M425.74760377558397,455.4512116016635 L438.43082598798804,450.8586074586869 M438.43082598798804,450.8586074586869 L450.12076923983057,445.4626305212897 M450.12076923983057,445.4626305212897 L460.66550311417774,439.3346461012299 M460.66550311417774,439.3346461012299 L469.9285295137497,432.55553500779035 M469.9285295137497,432.55553500779035 L477.7905522019596,425.2145634370803 M477.7905522019596,425.2145634370803 L484.1509777869127,417.4081509324603 M484.1509777869127,417.4081509324603 L488.92916568047235,409.2385469839378 M488.92916568047235,409.2385469839378 L492.0653850143733,400.8124550929891 M492.0653850143733,400.8124550929891 L493.5214500641449,392.2395936320802 M493.5214500641449,392.2395936320802 L493.2811380702175,383.6312456517211 M493.2811380702175,383.6312456517211 L491.35021621875774,375.0988074911824 M491.35021621875774,375.0988074911824 L487.75623153470667,366.75235098204183 M487.75623153470667,366.75235098204183 L482.5480848838581,358.69920937247025 M482.5480848838581,358.69920937247025 L475.795188293758,351.04264085639164 M475.795188293758,351.04264085639164 L467.5865285995187,343.8805341770343 M467.5865285995187,343.8805341770343 L458.02941600766957,337.30420100069796 M458.02941600766957,337.30420100069796 L447.2480396325182,331.3972763443828 M447.2480396325182,331.3972763443828 L435.3818373566414,326.2347107221426 M435.3818373566414,326.2347107221426 L422.58369768706854,321.88187883032754 M422.58369768706854,321.88187883032754 L409.01803972662793,318.3937920446471 M409.01803972662793,318.3937920446471 L394.85871988183277,315.8144779551145 M355.93526072881144,456.3343612499233 L200.70983209766618,481.77820884627465 M192.95228592659157,486.45603800742026 L187.5805227593173,483.9303035930877 M187.5805227593173,483.9303035930877 L68.80568132813346,503.3993339446531 M93.00807688649854,516.3470644837892 L84.70621074324782,512.1757245439184 M84.70621074324782,512.1757245439184 L76.6361772221324,507.8583683617652 M76.6361772221324,507.8583683617652 L68.80568132813346,503.3993339446531 M116.2228276494933,526.7271399851476 L108.31728788606938,523.3905414684683 M108.31728788606938,523.3905414684683 L100.57707893121159,519.9295934470018 M100.57707893121159,519.9295934470018 L93.00807688649854,516.3470644837892 M181.58075631753997,547.8914854376465 L158.93426796949154,541.7299956148241 M158.93426796949154,541.7299956148241 L137.1118452398723,534.6629076851586 M137.1118452398723,534.6629076851586 L116.2228276494933,526.7271399851476 M350.29819485177404,454.4165821255824 L209.06920732812443,476.6268976030655 M416.4841355385634,303.3705182699806 L563.6537609679858,218.68438253089744 M563.6537609679858,218.68438253089744 L563.6979928264229,211.4426606551732 M416.49605764439514,296.10967102976144 L416.4841355385634,303.3705182699806 M416.49605764439514,296.10967102976144 L415.6395132052354,293.3856670156147 M415.6395132052354,293.3856670156147 L413.6709487820756,290.8586291195737 M413.6709487820756,290.8586291195737 L410.7056016991705,288.67579075819657 M410.7056016991705,288.67579075819657 L406.9166821827706,286.964196556602 M406.9166821827706,286.964196556602 L402.5251463854804,285.82341146361983 M402.5251463854804,285.82341146361983 L397.7869019204417,285.31975479547566 M397.7869019204417,285.31975479547566 L392.97788006615906,285.4825033620081 M392.97788006615906,285.4825033620081 L388.3781679056501,286.3021972867648 M388.3781679056501,286.3021972867648 L384.25570722824466,287.7311877561144 M384.25570722824466,287.7311877561144 L380.85078147075143,289.68638481964734 M380.85078147075143,289.68638481964734 L378.36210613285635,292.0540124721059 M378.36210613285635,292.0540124721059 L376.935167161658,294.69620960614867 M376.935167161658,294.69620960614867 L376.6537212584943,297.4589750031551 M376.6537212584943,297.4589750031551 L377.5347454062699,300.18112336710794 M377.5347454062699,300.18112336710794 L379.52739440615875,302.70368209362687 M379.52739440615875,302.70368209362687 L382.5157487461416,304.8791993937604 M382.5157487461416,304.8791993937604 L386.32555752914305,306.5803991387424 M386.32555752914305,306.5803991387424 L390.7343625884897,307.70768059346057 M390.7343625884897,307.70768059346057 L395.4844922438505,308.19501775807976 M391.08937117961705,299.8984425094326 L392.56370361686703,300.5611773862546 M392.56370361686703,300.5611773862546 L394.2711354129272,301.0022403784818 M394.2711354129272,301.0022403784818 L396.11237592004386,301.19597097976975 M396.11237592004386,301.19597097976975 L397.98033903965205,301.13107865173777 M397.98033903965205,301.13107865173777 L399.7663843315316,300.8113453780291 M399.7663843315316,300.8113453780291 L401.36662948130027,300.2553868629572 M401.36662948130027,300.2553868629572 L402.68804708851394,299.49555181672207 M402.68804708851394,299.49555181672207 L403.65383249765034,298.57605405549594 M403.65383249765034,298.57605405549594 L404.2079083247456,297.550367966485 M404.2079083247456,297.550367966485 L404.3181355510883,296.47813813010487 M404.3181355510883,296.47813813010487 L403.97819230292055,295.4216782913907 M403.97819230292055,295.4216782913907 L403.20792268526134,294.4423776100806 M403.20792268526134,294.4423776100806 L402.0521499180403,293.59710388626235 M402.0521499180403,293.59710388626235 L400.57806191276916,292.934935592962 M400.57806191276916,292.934935592962 L398.8713110234255,292.4943059521853 M398.8713110234255,292.4943059521853 L397.03101535833196,292.30078571491106 M397.03101535833196,292.30078571491106 L395.1640611158097,292.3656077035121 M395.1640611158097,292.3656077035121 L393.37885164237093,292.68500948537314 M393.37885164237093,292.68500948537314 L391.7790777728062,293.2404513022003 M391.7790777728062,293.2404513022003 L390.45765894693506,293.99970280767377 M390.45765894693506,293.99970280767377 L389.49140009949025,294.9186838710641 M389.49140009949025,294.9186838710641 L388.9364870694628,295.9440384707573 M388.9364870694628,295.9440384707573 L388.8252506723268,297.01619796935125 M388.8252506723268,297.01619796935125 L389.1642499427922,298.07286130082423 M389.1642499427922,298.07286130082423 L389.9338404780237,299.052602202005 M389.9338404780237,299.052602202005 L391.08937117961705,299.8984425094326 M394.85871988183277,315.8144779551145 L395.47720961611935,315.45857907014965 M395.4844922438505,308.19501775807976 L395.47720961611935,315.45857907014965 M592.1183823255309,228.6751376785509 L592.067846741694,235.92076796456573 M592.067846741694,235.92076796456573 L582.9838480655935,229.96185719805004 M582.9838480655935,229.96185719805004 L573.5076328027828,224.21358415741472 M573.5076328027828,224.21358415741472 L563.6537609679858,218.68438253089744 M592.1183823255309,228.6751376785509 L593.4427549578733,226.00945531915673 M593.4427549578733,226.00945531915673 L595.8609807063951,223.61311410483916 M595.8609807063951,223.61311410483916 L599.2282654259175,221.62901282781493 M599.2282654259175,221.62901282781493 L603.3433013679123,220.17542170380577 M603.3433013679123,220.17542170380577 L607.9604972101419,219.33886430286944 M607.9604972101419,219.33886430286944 L612.8043794034675,219.16915981527904 M612.8043794034675,219.16915981527904 L617.586042984136,219.67641565046623 M617.586042984136,219.67641565046623 L622.0202927638533,220.830434620367 M622.0202927638533,220.830434620367 L625.8425469027337,222.56249624704094 M625.8425469027337,222.56249624704094 L628.8245139553443,224.76942359134858 M628.8245139553443,224.76942359134858 L630.787800798627,227.31967669654023 M630.787800798627,227.31967669654023 L631.61471436714,230.06107358293772 M631.61471436714,230.06107358293772 L631.2552852021804,232.82988823288463 M631.2552852021804,232.82988823288463 L629.7303578751398,235.460625131902 M629.7303578751398,235.460625131902 L627.1306270960728,237.79583895350578 M627.1306270960728,237.79583895350578 L623.6111967932557,239.6956723897304 M623.6111967932557,239.6956723897304 L619.382445247026,241.04623720118272 M619.382445247026,241.04623720118272 L614.6973487651592,241.76656143437236 M614.6973487651592,241.76656143437236 L609.8364550132625,241.81340038067086 M606.3424617475445,233.63009378041917 L607.819512841507,234.28745019390243 M607.819512841507,234.28745019390243 L609.5257923967747,234.7249390644358 M609.5257923967747,234.7249390644358 L611.362092387295,234.91709054133938 M611.362092387295,234.91709054133938 L613.2216025761835,234.85272630022905 M613.2216025761835,234.85272630022905 L614.9961794747799,234.535586775868 M614.9961794747799,234.535586775868 L616.5826102398762,233.98413722537418 M616.5826102398762,233.98413722537418 L617.8886405430826,233.2304794968756 M617.8886405430826,233.2304794968756 L618.8384072898145,232.31844089294964 M618.8384072898145,232.31844089294964 L619.3767134084792,231.30109306172417 M619.3767134084792,231.30109306172417 L619.4723809310345,230.23756805271904 M619.4723809310345,230.23756805271904 L619.119922666857,229.18968784660956 M619.119922666857,229.18968784660956 L618.3398915680634,228.21833985591488 M618.3398915680634,228.21833985591488 L617.1777136634864,227.37991758846232 M617.1777136634864,227.37991758846232 L615.7008884532376,226.72313428068287 M615.7008884532376,226.72313428068287 L613.9952844454476,226.28607710564634 M613.9952844454476,226.28607710564634 L612.1599298882583,226.09412982670844 M612.1599298882583,226.09412982670844 L610.3014198395833,226.1584247972287 M610.3014198395833,226.1584247972287 L608.5276913400701,226.4752232915066 M608.5276913400701,226.4752232915066 L606.9417210715825,227.0261623116793 M606.9417210715825,227.0261623116793 L605.6356819110277,227.77924359686082 M605.6356819110277,227.77924359686082 L604.6854389818837,228.69077188498196 M604.6854389818837,228.69077188498196 L604.1462744010524,229.7078058282773 M604.1462744010524,229.7078058282773 L604.0496046030743,230.77126114157812 M604.0496046030743,230.77126114157812 L604.401123715719,231.8193459723322 M604.401123715719,231.8193459723322 L605.1804925267573,232.79112522504408 M605.1804925267573,232.79112522504408 L606.3424617475445,233.63009378041917 M667.2977949159782,316.32813305450463 L667.2303462212551,323.5935186314794 M609.8364550132625,241.81340038067086 L609.7819747432063,249.06200507083986 M667.2303462212551,323.5935186314794 L661.3389618641036,310.3085492790841 M661.3389618641036,310.3085492790841 L653.9186226228172,297.29352099209217 M653.9186226228172,297.29352099209217 L645.0062631721088,284.60626619579733 M645.0062631721088,284.60626619579733 L634.64532038763,272.30286619418996 M634.64532038763,272.30286619418996 L622.8853923000887,260.43744931372873 M622.8853923000887,260.43744931372873 L609.7819747432063,249.06200507083986 M116.2228276494933,526.7271399851476 L116.27805590256037,534.0390939028764 M247.90507893865197,560.0110215607868 L247.9308367452678,567.3302321814786 M116.27805590256037,534.0390939028764 L136.38026966064456,541.7009399396734 M136.38026966064456,541.7009399396734 L157.35224430861405,548.5576978147031 M157.35224430861405,548.5576978147031 L179.09644498852023,554.5761456218677 M179.09644498852023,554.5761456218677 L201.51140254790218,559.7270477727347 M201.51140254790218,559.7270477727347 L224.49217458512402,563.9853204252815 M224.49217458512402,563.9853204252815 L247.9308367452678,567.3302321814786 M277.15937188856543,562.8448619442304 L279.357352903203,565.425106589988 M279.357352903203,565.425106589988 L280.41929964832326,568.2417627337767 M280.41929964832326,568.2417627337767 L280.2815361185746,571.127670587802 M280.2815361185746,571.127670587802 L278.951671972221,573.9113887342509 M278.951671972221,573.9113887342509 L276.5081722563366,576.4273805864575 M276.5081722563366,576.4273805864575 L273.09582745401735,578.5259334898723 M273.09582745401735,578.5259334898723 L268.91733329502426,580.0819874692698 M268.91733329502426,580.0819874692698 L264.2210910859847,581.0028303268191 M264.2210910859847,581.0028303268191 L259.2866071695319,581.2335174066282 M259.2866071695319,581.2335174066282 L254.40752066938506,580.7603122278327 M254.40752066938506,580.7603122278327 L249.8742952063772,579.6114213703071 M249.8742952063772,579.6114213703071 L245.95654346643022,577.8553749204256 M245.95654346643022,577.8553749204256 L242.8871828422706,575.5967836597029 M242.8871828422706,575.5967836597029 L240.84835025392135,572.9702028312429 M240.84835025392135,572.9702028312429 L239.96079310473903,570.1318717724738 M239.96079310473903,570.1318717724738 L240.27660818533673,567.2505413786472 M240.27660818533673,567.2505413786472 L241.77644354704938,564.4973093892476 M241.77644354704938,564.4973093892476 L244.3707250074258,562.035495515027 M244.3707250074258,562.035495515027 L247.90507893865197,560.0110215607868 M254.61688425028206,572.648888701936 L256.11026099926806,573.3340135493398 M256.11026099926806,573.3340135493398 L257.8425430187935,573.7899661908272 M257.8425430187935,573.7899661908272 L259.7129455565903,573.9902472117179 M259.7129455565903,573.9902472117179 L261.6127387604855,573.923159562811 M261.6127387604855,573.923159562811 L263.43143504126795,573.5926308293606 M263.43143504126795,573.5926308293606 L265.0632163006573,573.0178846432694 M265.0632163006573,573.0178846432694 L266.41321498983797,572.2323949933343 M266.41321498983797,572.2323949933343 L267.4030129260515,571.2818413696775 M267.4030129260515,571.2818413696775 L267.9750603130638,570.2215225597312 M267.9750603130638,570.2215225597312 L268.0962590623642,569.1130906621237 M268.0962590623642,569.1130906621237 L267.759616413229,568.0209636515539 M267.759616413229,568.0209636515539 L266.9848001739687,567.0085889527785 M266.9848001739687,567.0085889527785 L265.81685849631145,566.1347785469313 M265.81685849631145,566.1347785469313 L264.3237295248496,565.4502492276716 M264.3237295248496,565.4502492276716 L262.59214145888933,564.9947556714579 M262.59214145888933,564.9947556714579 L260.72269562888687,564.7947063509548 M260.72269562888687,564.7947063509548 L258.82394597286157,564.8617200640072 M258.82394597286157,564.8617200640072 L257.0061410229273,565.1918861863473 M257.0061410229273,565.1918861863473 L255.37485142749915,565.7660892738741 M255.37485142749915,565.7660892738741 L254.0248565296818,566.5509655846536 M254.0248565296818,566.5509655846536 L253.03457364382126,567.5009761180552 M253.03457364382126,567.5009761180552 L252.46163923351122,568.5609607070181 M252.46163923351122,568.5609607070181 L252.33939785045885,569.6693186750979 M252.33939785045885,569.6693186750979 L252.6750811029135,570.7616489784508 M252.6750811029135,570.7616489784508 L253.44919771278296,571.7744827746149 M253.44919771278296,571.7744827746149 L254.61688425028206,572.648888701936 M277.15937188856543,562.8448619442304 L277.17856115544004,570.164689021856 M672.3980167380693,332.9208833935932 L672.3293693961522,340.1899851680311 M277.17856115544004,570.164689021856 L302.1063113027574,571.4500554776947 M302.1063113027574,571.4500554776947 L327.13300882602147,571.716042509552 M327.13300882602147,571.716042509552 L352.13187973167413,570.9612532231266 M352.13187973167413,570.9612532231266 L376.9763223167858,569.18964192074 M376.9763223167858,569.18964192074 L401.54059332492096,566.410499974329 M401.54059332492096,566.410499974329 L425.70049125292957,562.6384181146486 M425.70049125292957,562.6384181146486 L449.33411904632857,557.8931333262103 M449.33411904632857,557.8931333262103 L472.32251780841153,552.1994665900515 M472.32251780841153,552.1994665900515 L494.550272272699,545.587135907345 M494.550272272699,545.587135907345 L515.9062442487547,538.0905802745332 M515.9062442487547,538.0905802745332 L536.2840772330718,529.7487619282589 M536.2840772330718,529.7487619282589 L555.5827600401554,520.6048783389009 M555.5827600401554,520.6048783389009 L573.707248609627,510.70618389571985 M573.707248609627,510.70618389571985 L590.5687814628126,500.1036102058585 M590.5687814628126,500.1036102058585 L606.0854987108546,488.8515673940192 M606.0854987108546,488.8515673940192 L620.182653935013,477.0075207819416 M620.182653935013,477.0075207819416 L632.79312395764,464.6317544430392 M632.79312395764,464.6317544430392 L643.8575588655251,451.78697119132244 M643.8575588655251,451.78697119132244 L653.3247114258872,438.5379396191497 M653.3247114258872,438.5379396191497 L661.1516073773429,424.9511896335864 M661.1516073773429,424.9511896335864 L667.3036747011338,411.0945907048355 M667.3036747011338,411.0945907048355 L671.7548942565298,397.03701827526527 M671.7548942565298,397.03701827526527 L674.4877435006139,382.8480178418119 M674.4877435006139,382.8480178418119 L675.4933014086752,368.59740844115606 M675.4933014086752,368.59740844115606 L674.7711698403264,354.3549441946175 M674.7711698403264,354.3549441946175 L672.3293693961522,340.1899851680311 M667.2977949159782,316.32813305450463 L670.6788127668343,314.33495260720696 M670.6788127668343,314.33495260720696 L674.8064595280557,312.87657176463307 M674.8064595280557,312.87657176463307 L679.4358045187928,312.0393119997073 M679.4358045187928,312.0393119997073 L684.292378301878,311.87270155384005 M684.292378301878,311.87270155384005 L689.0883068844599,312.38658744785874 M689.0883068844599,312.38658744785874 L693.539227073822,313.5505969181784 M693.539227073822,313.5505969181784 L697.3812325675406,315.29582150376183 M697.3812325675406,315.29582150376183 L700.3861709661704,317.51895284209144 M700.3861709661704,317.51895284209144 L702.3754747618302,320.08824185513123 M702.3754747618302,320.08824185513123 L703.230537717903,322.85136728883805 M703.230537717903,322.85136728883805 L702.900037331148,325.6442735100674 M702.900037331148,325.6442735100674 L701.4029778499951,328.3010507873776 M701.4029778499951,328.3010507873776 L698.8278552774107,330.6636468376582 M698.8278552774107,330.6636468376582 L695.3273034273062,332.5914471638559 M695.3273034273062,332.5914471638559 L691.1093613222864,333.9695788576763 M691.1093613222864,333.9695788576763 L686.4248036068294,334.7159084576804 M686.4248036068294,334.7159084576804 L681.5524018462885,334.7859297354848 M681.5524018462885,334.7859297354848 L676.7821731277215,334.1754441723881 M676.7821731277215,334.1754441723881 L672.3980167380693,332.9208833935932 M677.8328520387814,326.4987304095106 L679.3212792808898,327.1636387345344 M679.3212792808898,327.1636387345344 L681.0392894760538,327.606136766511 M681.0392894760538,327.606136766511 L682.8869535021056,327.8004938346044 M682.8869535021056,327.8004938346044 L684.7568171797845,327.7353859071027 M684.7568171797845,327.7353859071027 L686.5401355142219,327.41462457670616 M686.5401355142219,327.41462457670616 L688.1331957178523,326.8568381964935 M688.1331957178523,326.8568381964935 L689.4433597863126,326.09452611149663 M689.4433597863126,326.09452611149663 L690.3945247344876,325.1720191835622 M690.3945247344876,325.1720191835622 L690.9314108404911,324.142970122303 M690.9314108404911,324.142970122303 L691.022914940703,323.0672391865262 M691.022914940703,323.0672391865262 L690.66376795943,322.0073437959021 M690.66376795943,322.0073437959021 L689.8749882311018,321.0248323808889 M689.8749882311018,321.0248323808889 L688.7024099980043,320.17679641866334 M688.7024099980043,320.17679641866334 L687.2142379912982,319.5124574636363 M687.2142379912982,319.5124574636363 L685.4969126612434,319.07039835194104 M685.4969126612434,319.07039835194104 L683.6502298996679,318.8762354503091 M683.6502298996679,318.8762354503091 L681.781377150171,318.94127268953605 M681.781377150171,318.94127268953605 L679.998867823671,319.2617146929082 M679.998867823671,319.2617146929082 L678.4062713116059,319.81898182977216 M678.4062713116059,319.81898182977216 L677.0960957132971,320.58070751609637 M677.0960957132971,320.58070751609637 L676.1444466548728,321.5026952086252 M676.1444466548728,321.5026952086252 L675.6067384416094,322.53139737267145 M675.6067384416094,322.53139737267145 L675.514220633651,323.60705762622194 M675.514220633651,323.60705762622194 L675.8723945276926,324.6671747367859 M675.8723945276926,324.6671747367859 L676.6605066512925,325.6501250836647 M676.6605066512925,325.6501250836647 L677.8328520387814,326.4987304095106 M181.6035703316604,480.9462669351954 L193.79724450610644,468.9845336587785 M193.79724450610644,468.9845336587785 L207.62473970119393,456.97589259053166 M207.62473970119393,456.97589259053166 L227.80445068535226,441.0917191773209 M227.80445068535226,441.0917191773209 L251.07105669752252,424.23949378431246 M251.07105669752252,424.23949378431246 L275.66762685234426,407.53090542091246 M187.5805227593173,483.9303035930877 L181.6035703316604,480.9462669351954 M234.80804752781222,407.9127823746239 L235.4335447157962,407.55285117542786 M234.77961758847283,400.6285939394546 L235.40525459021092,400.2687425934015 M234.77961758847283,400.6285939394546 L234.80804752781222,407.9127823746239 M213.49735188089372,412.86964096937396 L234.77961758847283,400.6285939394546 M62.602046405618864,499.6609890474637 L213.49735188089372,412.86964096937396 M181.6035703316604,480.9462669351954 L62.602046405618864,499.6609890474637 M234.80804752781222,407.9127823746239 L233.9767799443315,405.1530876993075 M233.9767799443315,405.1530876993075 L232.0243901392477,402.5929484378981 M232.0243901392477,402.5929484378981 L229.06519660783658,400.3815148225174 M229.06519660783658,400.3815148225174 L225.2720384019824,398.6475039758003 M225.2720384019824,398.6475039758003 L220.86613291867025,397.49177586971666 M220.86613291867025,397.49177586971666 L216.10420071824387,396.98153066203975 M216.10420071824387,396.98153066203975 L211.2635853487912,397.1464069591544 M211.2635853487912,397.1464069591544 L206.62618634908304,397.9768351474087 M206.62618634908304,397.9768351474087 L202.46214278439507,399.42454013315535 M202.46214278439507,399.42454013315535 L199.01415785775637,401.40534563318755 M199.01415785775637,401.40534563318755 L196.48345630180938,403.8039875276833 M196.48345630180938,403.8039875276833 L195.01797637054887,406.4808006708373 M195.01797637054887,406.4808006708373 L194.70372167153496,409.27977090297975 M194.70372167153496,409.27977090297975 L195.55961420807932,412.0375872003373 M195.55961420807932,412.0375872003373 L197.53624796912487,414.5932136938068 M197.53624796912487,414.5932136938068 L200.51866930209684,416.79725039514807 M200.51866930209684,416.79725039514807 L204.33296675940895,418.5207576187596 M204.33296675940895,418.5207576187596 L208.75644001596277,419.6628163185027 M208.75644001596277,419.6628163185027 L213.5305414983026,420.15654367079117 M395.47720961611935,315.45857907014965 L390.728131003777,314.9711325383305 M390.728131003777,314.9711325383305 L386.32030162530407,313.8435980767212 M386.32030162530407,313.8435980767212 L382.51133605184486,312.14201644936884 M382.51133605184486,312.14201644936884 L379.52364318274294,309.96601067835934 M379.52364318274294,309.96601067835934 L377.5314353745259,307.44288539851186 M377.5314353745259,307.44288539851186 L376.65060655773624,304.72012546059096 M376.65060655773624,304.72012546059096 L376.9319907773459,301.956739158585 M376.9319907773459,301.956739158585 L378.35861489913856,299.3139480221824 M378.35861489913856,299.3139480221824 L380.84674080781303,296.9457879333058 M380.84674080781303,296.9457879333058 L384.25091473494973,294.9901510667281 M384.25091473494973,294.9901510667281 L388.3724650586341,293.5608390938517 M388.3724650586341,293.5608390938517 L392.9711613440079,292.74096072402017 M392.9711613440079,292.74096072402017 L397.7791208733544,292.57817553412093 M397.7791208733544,292.57817553412093 L402.5163183089989,293.08194553796943 M402.5163183089989,293.08194553796943 L406.90688322697144,294.222987311465 M406.90688322697144,294.222987311465 L410.69496450573183,295.93496656126365 M410.69496450573183,295.93496656126365 L413.6596548454357,298.1182958686929 M413.6596548454357,298.1182958686929 L415.62778241190455,300.64590196369795 M415.62778241190455,300.64590196369795 L416.4841355385634,303.3705182699806 M592.067846741694,235.92076796456573 L593.3919361699046,233.25448154261727 M593.3919361699046,233.25448154261727 L595.8096372272364,230.85759713564477 M595.8096372272364,230.85759713564477 L599.1761872516646,228.8730459927813 M599.1761872516646,228.8730459927813 L603.2903224221769,227.41912522046852 M603.2903224221769,227.41912522046852 L607.9065051186559,226.58237807735603 M607.9065051186559,226.58237807735603 L612.7493221329753,226.41263509624605 M612.7493221329753,226.41263509624605 L617.5299319028538,226.92000598830703 M617.5299319028538,226.92000598830703 L621.963201970615,228.07428668927253 M621.963201970615,228.07428668927253 L625.7846088668517,229.80674107898707 M625.7846088668517,229.80674107898707 L628.7659117182399,232.01416874904734 M628.7659117182399,232.01416874904734 L630.7287571683125,234.5649998495856 M630.7287571683125,234.5649998495856 L631.5554786980061,237.30701785562167 M631.5554786980061,237.30701785562167 L631.1961185697097,240.0764596300927 M631.1961185697097,240.0764596300927 L629.6715174982369,242.7077921867358 M629.6715174982369,242.7077921867358 L627.0723508976415,245.04353459546724 M627.0723508976415,245.04353459546724 L623.5536890933924,246.9437979590747 M623.5536890933924,246.9437979590747 L619.3258644216343,248.2946683402336 M619.3258644216343,248.2946683402336 L614.6417976743058,249.01515552888173 M614.6417976743058,249.01515552888173 L609.7819747432063,249.06200507083986 M667.2303462212551,323.5935186314794 L670.6106240620531,321.59989127823513 M670.6106240620531,321.59989127823513 L674.7373635132105,320.1411833727956 M674.7373635132105,320.1411833727956 L679.3656876748363,319.30373581423413 M679.3656876748363,319.30373581423413 L684.2211875270599,319.1370879961149 M684.2211875270599,319.1370879961149 L689.0160526041326,319.65108915703223 M689.0160526041326,319.65108915703223 L693.4659826477491,320.8153596933484 M693.4659826477491,320.8153596933484 L697.3071299760288,322.5609756318856 M697.3071299760288,322.5609756318856 L700.3113931182136,324.7846053702224 M700.3113931182136,324.7846053702224 L702.300244724462,327.35447022056724 M702.300244724462,327.35447022056724 L703.1551056034092,330.1182147347471 M703.1551056034092,330.1182147347471 L702.8246654966936,332.91174649814866 M702.8246654966936,332.91174649814866 L701.3279253415081,335.5691186314992 M701.3279253415081,335.5691186314992 L698.7533623751971,337.93224350921486 M698.7533623751971,337.93224350921486 L695.2535773020795,339.86047522881813 M695.2535773020795,339.86047522881813 L691.0365635707369,341.2389152521125 M691.0365635707369,341.2389152521125 L686.3530405638738,341.98541180694593 M686.3530405638738,341.98541180694593 L681.4817181606369,342.0554487478181 M681.4817181606369,342.0554487478181 L676.7125490704677,341.44482662065366 M676.7125490704677,341.44482662065366 L672.3293693961522,340.1899851680311 M247.9308367452678,567.3302321814786 L244.39728003597503,569.3551465500996 M244.39728003597503,569.3551465500996 L241.8035854747028,571.8174958298865 M241.8035854747028,571.8174958298865 L240.30409170432284,574.571326408715 M240.30409170432284,574.571326408715 L239.98835239573418,577.4532830218237 M239.98835239573418,577.4532830218237 L240.87571472691434,580.2922307340936 M240.87571472691434,580.2922307340936 L242.9140932100289,582.9193820164611 M242.9140932100289,582.9193820164611 L245.9827672436686,585.1784636594618 M245.9827672436686,585.1784636594618 L249.89964061812066,586.9348912840433 M249.89964061812066,586.9348912840433 L254.43184819620194,588.0840314792482 M254.43184819620194,588.0840314792482 L259.309837924206,588.5573393448268 M259.309837924206,588.5573393448268 L264.2432116052326,588.3266022060672 M264.2432116052326,588.3266022060672 L268.9383963194105,587.4055595118009 M268.9383963194105,587.4055595118009 L273.11594877354577,585.8491677930066 M273.11594877354577,585.8491677930066 L276.5275237016685,583.750159297402 M276.5275237016685,583.750159297402 L278.9704710982932,581.2336210700835 M278.9704710982932,581.2336210700835 L280.30003313778434,578.4492982085079 M280.30003313778434,578.4492982085079 L280.4377624812548,575.5627632182151 M280.4377624812548,575.5627632182151 L279.37605123456177,572.7454947691349 M279.37605123456177,572.7454947691349 L277.17856115544004,570.164689021856 M93.06847174826328,523.6567491359576 L88.30994688572832,524.4636953070896 M88.30994688572832,524.4636953070896 L84.01821935105397,525.9169411849522 M84.01821935105397,525.9169411849522 L80.44943699604386,527.9299610937906 M80.44943699604386,527.9299610937906 L77.81692121415011,530.3827784923595 M77.81692121415011,530.3827784923595 L76.278190055555,533.1291688088348 M76.278190055555,533.1291688088348 L75.92573607307258,536.0051948820507 M75.92573607307258,536.0051948820507 L76.78124508609392,538.8390162414304 M76.78124508609392,538.8390162414304 L78.79415909552154,541.4611563274759 M78.79415909552154,541.4611563274759 L81.8445712919397,543.714655100852 M81.8445712919397,543.714655100852 L85.75033216965596,545.4644875601324 M85.75033216965596,545.4644875601324 L90.27791056476423,546.6057137262515 M90.27791056476423,546.6057137262515 L95.1562732382248,547.0698948585379 M95.1562732382248,547.0698948585379 L100.09329175617722,546.8291822023754 M100.09329175617722,546.8291822023754 L104.79336591577453,545.8979915282791 M104.79336591577453,545.8979915282791 L108.97508246444914,544.3322136429325 M108.97508246444914,544.3322136429325 L112.38829230676589,542.2257429183918 M112.38829230676589,542.2257429183918 L114.82903086773251,539.7048340431305 M114.82903086773251,539.7048340431305 L116.15180832475318,536.9204149509394 M116.15180832475318,536.9204149509394 L116.27805590256037,534.0390939028764 M62.66918586954273,506.96701969993717 L72.41351795349556,512.758588608965 M72.41351795349556,512.758588608965 L82.5518511485501,518.3248307779116 M82.5518511485501,518.3248307779116 L93.06847174826328,523.6567491359576 M62.66918586954273,506.96701969993717 L213.5305414983026,420.15654367079117 M209.2013993048238,411.75120490641564 L208.04821345490652,410.8942790805382 M208.04821345490652,410.8942790805382 L207.28485827476155,409.90170193883733 M207.28485827476155,409.90170193883733 L206.95563902578633,408.8311881517624 M206.95563902578633,408.8311881517624 L207.07961287756783,407.7449794882649 M207.07961287756783,407.7449794882649 L207.6494855713425,406.7061898659406 M207.6494855713425,406.7061898659406 L208.6320561817526,405.77516826041733 M208.6320561817526,405.77516826041733 L209.97019103470885,405.0059694896557 M209.97019103470885,405.0059694896557 L211.58611417237032,404.44325088328327 M211.58611417237032,404.44325088328327 L213.38596876519725,404.11966475725126 M213.38596876519725,404.11966475725126 L215.26521392528429,404.05399357349995 M215.26521392528429,404.05399357349995 L217.1147271485846,404.2500524935116 M217.1147271485846,404.2500524935116 L218.82710508995382,404.6964512192172 M218.82710508995382,404.6964512192172 L220.30288521257097,405.36729467011816 M220.30288521257097,405.36729467011816 L221.4563225413388,406.22364293198507 M221.4563225413388,406.22364293198507 L222.2203580829924,407.2157783018079 M222.2203580829924,407.2157783018079 L222.55054747926482,408.2860776729683 M222.55054747926482,408.2860776729683 L222.42759454556608,409.3723580373997 M222.42759454556608,409.3723580373997 L221.8585657126364,410.411485573311 M221.8585657126364,410.411485573311 L220.87646858380958,411.34303389028406 M220.87646858380958,411.34303389028406 L219.53832836824182,412.11282751083877 M219.53832836824182,412.11282751083877 L217.92192225228982,412.6760728290783 M217.92192225228982,412.6760728290783 L216.12121770589667,412.99999687127684 M216.12121770589667,412.99999687127684 L214.24095033485133,413.06573975763865 M214.24095033485133,413.06573975763865 L212.39047076747664,412.86947337621774 M212.39047076747664,412.86947337621774 L210.67742049259365,412.4226259212383 M210.67742049259365,412.4226259212383 L209.2013993048238,411.75120490641564 M90.51831980443995,538.5247715089539 L89.3624869910584,537.6545348829715 M89.3624869910584,537.6545348829715 L88.60046323207723,536.6465561642719 M88.60046323207723,536.6465561642719 L88.27651147057782,535.5594318831578 M88.27651147057782,535.5594318831578 L88.40936490178456,534.4563671954935 M88.40936490178456,534.4563671954935 L88.99119949102612,533.4014694643864 M88.99119949102612,533.4014694643864 L89.9881644659892,532.4559946960014 M89.9881644659892,532.4559946960014 L91.3422372166873,531.674869152008 M91.3422372166873,531.674869152008 L92.97476407152595,531.1034143521997 M92.97476407152595,531.1034143521997 L94.79089230868811,530.7748051603704 M94.79089230868811,530.7748051603704 L96.68513837863134,530.7081160770919 M96.68513837863134,530.7081160770919 L98.5475157050098,530.9072108086337 M98.5475157050098,530.9072108086337 L100.26986075342285,531.3605427992932 M100.26986075342285,531.3605427992932 L101.75215010536272,532.0417978822974 M101.75215010536272,532.0417978822974 L102.90826666026027,532.9114290937924 M102.90826666026027,532.9114290937924 L103.67099112269347,533.9189523808496 M103.67099112269347,533.9189523808496 L103.99592311679726,535.005860575244 M103.99592311679726,535.005860575244 L103.86410629555769,536.108998859989 M103.86410629555769,536.108998859989 L103.28310178433492,537.1642565861306 M103.28310178433492,537.1642565861306 L102.28661358423665,538.1102702677006 M102.28661358423665,538.1102702677006 L100.9325310175733,538.8920045558258 M100.9325310175733,538.8920045558258 L99.29951000436643,539.4639984913574 M99.29951000436643,539.4639984913574 L97.48254053684354,539.7929393042782 M97.48254053684354,539.7929393042782 L95.5872554904604,539.8597015437016 M95.5872554904604,539.8597015437016 L93.72390489308236,539.6603911680276 M93.72390489308236,539.6603911680276 L92.00087383615698,539.2066032959539 M92.00087383615698,539.2066032959539 L90.51831980443995,538.5247715089539 M254.6411528012008,579.9708468073217 L253.47372748370208,579.0962509229671 M253.47372748370208,579.0962509229671 L252.69978338804572,578.0831970715717 M252.69978338804572,578.0831970715717 L252.36417395986876,576.9906294098049 M252.36417395986876,576.9906294098049 L252.48638620966636,575.8820305674521 M252.48638620966636,575.8820305674521 L253.05919027094797,574.8218155857678 M253.05919027094797,574.8218155857678 L254.04924919469158,573.8715985371028 M254.04924919469158,573.8715985371028 L255.39893956145494,573.0865515897907 M255.39893956145494,573.0865515897907 L257.0298617460628,572.5122236566804 M257.0298617460628,572.5122236566804 L258.8472577428553,572.1819857442172 M258.8472577428553,572.1819857442172 L260.7455806370086,572.114957459585 M260.7455806370086,572.114957459585 L262.61460665580165,572.3150502788037 M262.61460665580165,572.3150502788037 L264.34580621974055,572.7706428734617 M264.34580621974055,572.7706428734617 L265.83860055620056,573.455321020057 M265.83860055620056,573.455321020057 L267.00628089834646,574.3293213874059 M267.00628089834646,574.3293213874059 L267.780924308277,575.3419161448572 M267.780924308277,575.3419161448572 L268.11749269612307,576.4342805185586 M268.11749269612307,576.4342805185586 L267.99632261152277,577.5429532898844 M267.99632261152277,577.5429532898844 L267.4244051807781,578.6035024868521 M267.4244051807781,578.6035024868521 L266.43483098945387,579.5542626216974 M266.43483098945387,579.5542626216974 L265.0851368338832,580.3399229035632 M265.0851368338832,580.3399229035632 L263.4537232070682,580.9147939311629 M263.4537232070682,580.9147939311629 L261.63543627509245,581.2453944552079 M261.63543627509245,581.2453944552079 L259.73607030224014,581.3124966751401 M259.73607030224014,581.3124966751401 L257.86608801085157,581.1121721540799 M257.86608801085157,581.1121721540799 L256.13419480463756,580.6561204775926 M256.13419480463756,580.6561204775926 L254.6411528012008,579.9708468073217 M677.7630280217808,333.7663947325635 L676.5909458976793,332.9175993821319 M676.5909458976793,332.9175993821319 L675.8030124924007,331.93442890291107 M675.8030124924007,331.93442890291107 L675.4449224191155,330.87407434905003 M675.4449224191155,330.87407434905003 L675.5374243106204,329.79817313967874 M675.5374243106204,329.79817313967874 L676.0750178420276,328.7692405093748 M676.0750178420276,328.7692405093748 L677.026460134181,327.8470462340434 M677.026460134181,327.8470462340434 L678.3363489314984,327.085149856196 M678.3363489314984,327.085149856196 L679.9285952680037,326.5277578339817 M679.9285952680037,326.5277578339817 L681.7107113760284,326.207244014711 M681.7107113760284,326.207244014711 L683.5791506957819,326.1421921993149 M683.5791506957819,326.1421921993149 L685.4254238026062,326.336398616465 M685.4254238026062,326.336398616465 L687.1423670126298,326.77855679801144 M687.1423670126298,326.77855679801144 L688.6302066262169,327.44304462803643 M688.6302066262169,327.44304462803643 L689.802521495297,328.29127061341404 M689.802521495297,328.29127061341404 L690.591122211588,329.27400215966406 M690.591122211588,329.27400215966406 L690.9501849474166,330.3341349899749 M690.9501849474166,330.3341349899749 L690.8586963144647,331.4101068817503 M690.8586963144647,331.4101068817503 L690.32192451952,332.43938641319306 M690.32192451952,332.43938641319306 L689.3709661209845,333.3620999252374 M689.3709661209845,333.3620999252374 L688.0610888458582,334.12458270323407 M688.0610888458582,334.12458270323407 L686.4683790208578,334.6824939701044 M686.4683790208578,334.6824939701044 L684.6854542669932,335.0033271141513 M684.6854542669932,335.0033271141513 L682.8160044664053,335.0684496180003 M682.8160044664053,335.0684496180003 L680.9687505252234,334.874049036952 M680.9687505252234,334.874049036952 L679.25112275527,334.431451934019 M679.25112275527,334.431451934019 L677.7630280217808,333.7663947325635 M606.2887783714853,240.87684638193676 L605.1270677963341,240.03768784403587 M605.1270677963341,240.03768784403587 L604.3478737948138,239.0656885102231 M604.3478737948138,239.0656885102231 L603.996435518514,238.01736628852035 M603.996435518514,238.01736628852035 L604.0930875191301,236.9536700723685 M604.0930875191301,236.9536700723685 L604.6321367388412,235.93640571324977 M604.6321367388412,235.93640571324977 L605.5821734813302,235.0246708884441 M605.5821734813302,235.0246708884441 L606.88792763422,234.27141895093047 M606.88792763422,234.27141895093047 L608.4735506298613,233.72035507521127 M608.4735506298613,233.72035507521127 L610.2468897654312,233.40348478332191 M610.2468897654312,233.40348478332191 L612.1049909488084,233.3391752409815 M612.1049909488084,233.3391752409815 L613.9399408662797,233.53116602254224 M613.9399408662797,233.53116602254224 L615.6451679430526,233.96832224778163 M615.6451679430526,233.96832224778163 L617.1216658031212,234.62525439250948 M617.1216658031212,234.62525439250948 L618.2835849667451,235.4638666420002 M618.2835849667451,235.4638666420002 L619.0634409659584,236.43543471112633 M619.0634409659584,236.43543471112633 L619.4158179808953,237.48355230684868 M619.4158179808953,237.48355230684868 L619.3201678142508,238.5473182191907 M619.3201678142508,238.5473182191907 L618.781976682887,239.5648964652281 M618.781976682887,239.5648964652281 L617.8324159113815,240.47714160902945 M617.8324159113815,240.47714160902945 L616.526670609991,241.2309699934911 M616.526670609991,241.2309699934911 L614.9405873188109,241.78254440277055 M614.9405873188109,241.78254440277055 L613.166400151332,242.09975572987977 M613.166400151332,242.09975572987977 L611.3072992677824,242.16413454319985 M611.3072992677824,242.16413454319985 L609.4714043340242,241.97193956243407 M609.4714043340242,241.97193956243407 L607.7655020085921,241.53435163893187 M607.7655020085921,241.53435163893187 L606.2887783714853,240.87684638193676 M391.08306408316093,307.16014104144534 L389.92778920018156,306.3141107175834 M389.92778920018156,306.3141107175834 L389.1583691773295,305.3341496951645 M389.1583691773295,305.3341496951645 L388.819445232684,304.2772489308483 M388.819445232684,304.2772489308483 L388.93065742197035,303.2048484864207 M388.93065742197035,303.2048484864207 L389.4854481572833,302.17926343012977 M389.4854481572833,302.17926343012977 L390.4514937642564,301.26007579417677 M390.4514937642564,301.26007579417677 L391.7726208123256,300.5006536035436 M391.7726208123256,300.5006536035436 L393.3720413258152,299.94508690951415 M393.3720413258152,299.94508690951415 L395.156856379944,299.6256133143555 M395.156856379944,299.6256133143555 L397.0233980333139,299.56077675104314 M397.0233980333139,299.56077675104314 L398.86328687705634,299.75434049947364 M398.86328687705634,299.75434049947364 L400.5696603234825,300.195069207775 M400.5696603234825,300.195069207775 L402.0434221711894,300.8573863676028 M402.0434221711894,300.8573863676028 L403.19893901304204,301.7028501058152 M403.19893901304204,301.7028501058152 L403.969037819627,302.682370906019 M403.969037819627,302.682370906019 L404.30890532342124,303.73906817760275 M404.30890532342124,303.73906817760275 L404.19870185874714,304.8115389600699 M404.19870185874714,304.8115389600699 L403.6447479560906,305.8374555068723 M403.6447479560906,305.8374555068723 L402.6791755778832,306.7571598425217 M402.6791755778832,306.7571598425217 L401.35804974766336,307.5171655760178 M401.35804974766336,307.5171655760178 L399.7581581620817,308.07324897015263 M399.7581581620817,308.07324897015263 L397.9725076588698,308.3930540583525 M397.9725076588698,308.3930540583525 L396.1049575744003,308.45796096134916 M396.1049575744003,308.45796096134916 L394.26412430776145,308.2641868473881 M394.26412430776145,308.2641868473881 L392.55707025452335,307.8230247868351 M392.55707025452335,307.8230247868351 L391.08306408316093,307.16014104144534 M68.80568132813346,503.3993339446531 L66.71934256575247,502.1632442695974 M66.71934256575247,502.1632442695974 L64.65143175144067,500.9170896345727 M64.65143175144067,500.9170896345727 L62.602046405618864,499.6609890474637 M62.66918586954273,506.96701969993717 L62.602046405618864,499.6609890474637 M93.00807688649854,516.3470644837892 L93.06847174826328,523.6567491359576 M116.2228276494933,526.7271399851476 L116.09654212268242,529.6078317824486 M116.09654212268242,529.6078317824486 L114.77345862524805,532.3916430003399 M114.77345862524805,532.3916430003399 L112.33216399528493,534.912001710439 M112.33216399528493,534.912001710439 L108.91818113215214,537.0180128494013 M108.91818113215214,537.0180128494013 L104.7355207977298,538.5834491944798 M104.7355207977298,538.5834491944798 L100.0343886031215,539.5144367812085 M100.0343886031215,539.5144367812085 L95.09626126064984,539.7550969431434 M95.09626126064984,539.7550969431434 L90.2168054998225,539.2910170401368 M90.2168054998225,539.2910170401368 L85.68821534183672,538.1500397791004 M85.68821534183672,538.1500397791004 L81.78158468619313,536.4005890325335 M81.78158468619313,536.4005890325335 L78.73049673602083,534.1475819652875 M78.73049673602083,534.1475819652875 L76.71714131456031,531.5260141951977 M76.71714131456031,531.5260141951977 L75.86145143110434,528.6928115637538 M75.86145143110434,528.6928115637538 L76.2139956364087,525.8174136561626 M76.2139956364087,525.8174136561626 L77.75308244292466,523.071623400528 M77.75308244292466,523.071623400528 L80.38619781243801,520.6193420928896 M80.38619781243801,520.6193420928896 L83.95578775933598,518.6067622742665 M83.95578775933598,518.6067622742665 L88.24848262280796,517.1538341761192 M88.24848262280796,517.1538341761192 L93.00807688649854,516.3470644837892 M90.45729853585135,531.2118380632162 L91.94018260621363,531.8935210078507 M91.94018260621363,531.8935210078507 L93.66359850599832,532.3472098260326 M93.66359850599832,532.3472098260326 L95.52736636710176,532.5464766975318 M95.52736636710176,532.5464766975318 L97.4230768085149,532.4797290304166 M97.4230768085149,532.4797290304166 L99.2404550368841,532.1508600177352 M99.2404550368841,532.1508600177352 L100.87384439607149,531.5789909423614 M100.87384439607149,531.5789909423614 L102.22823345817994,530.79742731283 M102.22823345817994,530.79742731283 L103.22494849912732,529.8516201754857 M103.22494849912732,529.8516201754857 L103.80608702754694,528.7965928736019 M103.80608702754694,528.7965928736019 L103.93793728388681,527.6936955005407 M103.93793728388681,527.6936955005407 L103.61293624186698,526.607024705682 M103.61293624186698,526.607024705682 L102.8500442964081,525.5997215077593 M102.8500442964081,525.5997215077593 L101.6936715869615,524.7302802856193 M101.6936715869615,524.7302802856193 L100.21105230760884,524.0491740515524 M100.21105230760884,524.0491740515524 L98.4883227223263,523.595941117387 M98.4883227223263,523.595941117387 L96.62552856810737,523.3968898913237 M96.62552856810737,523.3968898913237 L94.73085756936905,523.4635644018192 M94.73085756936905,523.4635644018192 L92.91432095538335,523.7921017882993 M92.91432095538335,523.7921017882993 L91.28142597822182,524.3634317248387 M91.28142597822182,524.3634317248387 L89.92704673868411,525.1443866066977 M89.92704673868411,525.1443866066977 L88.9298547109122,526.0896548276979 M88.9298547109122,526.0896548276979 L88.34788572795571,527.1443221356343 M88.34788572795571,527.1443221356343 L88.21499839700624,528.2471459112363 M88.21499839700624,528.2471459112363 L88.53901876585206,529.334032794022 M88.53901876585206,529.334032794022 L89.30120969198055,530.3417914262855 M89.30120969198055,530.3417914262855 L90.45729853585135,531.2118380632162 M391.08306408316093,307.16014104144534 L391.08937117961705,299.8984425094326 M606.2887783714853,240.87684638193676 L606.3424617475445,233.63009378041917 M254.6411528012008,579.9708468073217 L254.61688425028206,572.648888701936 M677.7630280217808,333.7663947325635 L677.8328520387814,326.4987304095106 M213.49735188089372,412.86964096937396 L213.5305414983026,420.15654367079117 M213.49735188089372,412.86964096937396 L208.72218825016603,412.3760229906345 M208.72218825016603,412.3760229906345 L204.29773238117383,411.23421731217707 M204.29773238117383,411.23421731217707 L200.4825893665395,409.5110919958642 M200.4825893665395,409.5110919958642 L197.4995089304549,407.30754379851396 M197.4995089304549,407.30754379851396 L195.52244092199388,404.7524839006659 M195.52244092199388,404.7524839006659 L194.66636415954284,401.99527922430093 M194.66636415954284,401.99527922430093 L194.98069516233772,399.19692995121403 M194.98069516233772,399.19692995121403 L196.44650721529607,396.52071086513894 M196.44650721529607,396.52071086513894 L198.97777711554485,394.1226014592161 M198.97777711554485,394.1226014592161 L202.42653332660538,392.1422358075226 M202.42653332660538,392.1422358075226 L206.59150610520462,390.69485235967886 M206.59150610520462,390.69485235967886 L211.2299381503554,389.864608636703 M211.2299381503554,389.864608636703 L216.07163032730853,389.6997689662368 M216.07163032730853,389.6997689662368 L220.8346205172504,390.20990082725393 M220.8346205172504,390.20990082725393 L225.24150367385914,391.3653722242356 M225.24150367385914,391.3653722242356 L229.0355023553708,393.0989979822975 M229.0355023553708,393.0989979822975 L231.9953501775429,395.3099406015027 M231.9953501775429,395.3099406015027 L233.94816983973794,397.8695116107186 M233.94816983973794,397.8695116107186 L234.77961758847283,400.6285939394546 M209.16726309957787,404.4661651102256 L210.64361144032443,405.13743724514836 M210.64361144032443,405.13743724514836 L212.35704211594413,405.5841856236167 M212.35704211594413,405.5841856236167 L214.20793320178137,405.78040848991253 M214.20793320178137,405.78040848991253 L216.08861925292553,405.714680179593 M216.08861925292553,405.714680179593 L217.88972527241765,405.3908279572279 M217.88972527241765,405.3908279572279 L219.5064922870945,404.82770752746865 M219.5064922870945,404.82770752746865 L220.84493183743223,404.05808460730924 M220.84493183743223,404.05808460730924 L221.82724933854678,403.1267428810604 M221.82724933854678,403.1267428810604 L222.39640679428481,402.0878458216497 M222.39640679428481,402.0878458216497 L222.51938915608463,401.00180642345595 M222.51938915608463,401.00180642345595 L222.18912831998898,399.9317445048399 M222.18912831998898,399.9317445048399 L221.42492466454462,398.9398292741606 M221.42492466454462,398.9398292741606 L220.27123234050634,398.0836710439063 M220.27123234050634,398.0836710439063 L218.79512517105843,397.4129764732842 M218.79512517105843,397.4129764732842 L217.0823671286737,396.96667682361004 M217.0823671286737,396.96667682361004 L215.2324428152957,396.77066141963377 M215.2324428152957,396.77066141963377 L213.3527794302697,396.8363180272957 M213.3527794302697,396.8363180272957 L211.55252374336118,397.15983233327256 M211.55252374336118,397.15983233327256 L209.9362399230198,397.722426050819 M209.9362399230198,397.722426050819 L208.59780573887457,398.4914541207949 M208.59780573887457,398.4914541207949 L207.61501454647333,399.4222691352483 M207.61501454647333,399.4222691352483 L207.04501285494152,400.46082828085036 M207.04501285494152,400.46082828085036 L206.92100912076242,401.54679597806324 M206.92100912076242,401.54679597806324 L207.25029937863638,402.6170723119603 M207.25029937863638,402.6170723119603 L208.01382236748998,403.6094293155816 M208.01382236748998,403.6094293155816 L209.16726309957787,404.4661651102256 M209.2013993048238,411.75120490641564 L209.16726309957787,404.4661651102256 M90.51831980443995,538.5247715089539 L90.45729853585135,531.2118380632162" stroke="black"  stroke-width="4"  fill="red"/></svg>